<svg xmlns="http://www.w3.org/2000/svg" viewBox="0 0 184.6 184.3">
<g fill="white">
	<path d="M65,170.4c-0.9-0.7-1.7-1.3-2.9-1.2c-1.1,0.1-2.3,0.1-3.5,0c-0.7,0-1.4-0.2-2.1-0.3c0-0.1,0-0.1,0-0.2
		c0.8-0.3,1.6-0.6,2.5-0.9c0.2-0.1,0.5,0,0.7,0.1c0.9,0.6,1.8,0.4,2.8,0.5c1.1,0.1,2.1,0,3.2,0c0.2,0,0.4,0,0.5,0.1
		c1.2,0.7,2.5,0.6,3.7,0.7c0.5,0,0.9-0.1,1.3-0.5c-0.1-0.1-0.1-0.2-0.2-0.2c-0.9-0.3-1.8-0.7-2.7-1c-0.6-0.3-1.2-0.7-1.8-1
		c-0.9-0.4-1.8-0.7-2.7-1.1c-0.5-0.2-1.1-0.4-1.6-0.6c-0.2-0.1-0.3-0.1-0.5-0.1c-0.5,0-1.1,0-1.6-0.1s-1-0.3-1.4-0.5
		c-0.5-0.2-1-0.4-1.5-0.4c-1.4,0-2.8-0.1-4.1-0.5c-1.7-0.4-3.5-0.6-5.3-0.7c-2-0.2-4-0.2-6-0.4c-0.4,0-0.8-0.3-1.2-0.5
		c-0.3-0.1-0.7-0.2-1-0.3c-0.4-0.1-0.9-0.3-1.3-0.5c-0.3-0.1-0.6-0.1-0.9-0.1c-1.3,0.1-2.4-0.4-3.3-1.3c-0.6-0.5-1.2-0.9-2-1.1
		c-0.9-0.2-1.7-0.5-2.5-1c-0.4-0.3-0.6-0.9-0.9-1.4c0-0.1,0.2-0.4,0.4-0.4c0.6,0,1.2,0,1.8,0c0.4,0,0.8,0.1,1.2,0
		c0.9-0.2,1.8,0.1,2.6,0.5c0.8,0.3,1.6,0.7,2.4,0.9c0.3,0.1,0.5,0.1,0.8,0.1c0.2,0,0.4,0.1,0.7,0.1c0,0.1,0,0.1,0,0.2
		c-0.2,0-0.3,0.1-0.5,0.1c-0.8,0.1-1.6,0.1-2.4,0.3c-0.6,0.1-0.6,0.4-0.3,0.8c0.2,0.2,0.3,0.4,0.5,0.5c1,0.5,2,1,3,1.5
		c0.4,0.2,0.9,0.2,1.3,0.2c1.1,0.1,2.1,0.2,3.2,0.2c0.6,0,1.2-0.2,1.4-0.9c0.1-0.4,0.5-0.6,0.8-0.5c0.4,0.1,0.9,0.2,1.3,0.3
		c0.6,0.1,1.1,0.4,1.7,0.4c0.2,0,0.6-0.2,0.7-0.5c0.1-0.1-0.1-0.5-0.2-0.6c-0.7-0.9-1.5-1.5-2.5-2.1c-1.3-0.7-2.6-1.6-3.7-2.6
		c-1-0.8-2.2-1.1-3.4-1.6c-0.8-0.4-1.6-0.7-2.4-1.1c-0.1-0.1-0.3-0.1-0.4-0.2c-0.7-0.3-1.3-0.6-2-1c-0.9-0.5-1.7-1.1-2.8-1.3
		c-1.3-0.3-2.5-0.7-3.7-1c-0.8-0.2-1.6-0.3-2.4-0.2c-0.4,0-0.7,0.6-1.1,1c-0.6,0.6-1.2,1.2-1.8,1.8c-0.7,0.6-1.9-0.1-2.1-1
		c-0.2-1,0.1-1.5,1-1.9c0.3-0.1,0.6-0.3,0.8-0.5c1.4-1.3,2.9-0.7,4.4-0.4c0.4,0.1,0.8,0.1,1.2,0.3c0.5,0.2,0.9,0.4,1.4,0.6
		c0.1,0.1,0.3,0.2,0.4,0.2c0.6,0,1.2,0,1.8,0c0.4,0,0.6-0.3,0.5-0.7c-0.2-0.7-0.5-1.3-1.2-1.5c-1.2-0.3-1.9-1.1-2.8-1.8
		c-0.2-0.2-0.4-0.3-0.7-0.4c-0.4-0.2-0.7-0.4-1.1-0.5c-0.3-0.1-0.6-0.3-0.9-0.4c-2-0.7-3.8-1.7-5.3-3.2c-0.8-0.8-1.7-1.5-2.6-2.2
		c-0.1-0.1-0.2-0.2-0.3-0.3c-0.1-0.2-0.2-0.5-0.3-0.7c0.2-0.1,0.5-0.2,0.7-0.2c0.9,0,1.3-0.6,0.9-1.4c-0.2-0.5-0.6-1-1-1.3
		c-1.7-1.2-3.5-2.4-5.3-3.6c-0.1-0.1-0.2-0.1-0.3-0.2c-0.2,0-0.6-0.1-0.7,0.1c-0.1,0.1-0.1,0.6,0,0.7c0.8,0.9,1.3,1.9,2.4,2.6
		c0.8,0.5,1.4,1.1,2.1,1.8c0.2,0.1,0.1,0.5,0.2,0.8H16c-0.6-0.5-1.1-1.1-1.7-1.4c-2.6-1.1-4.2-3.3-6-5.3c-0.4-0.5-0.9-0.9-1.3-1.4
		c-0.2-0.2-0.5-0.4-0.6-0.7C6,126.7,6,126.3,6,126c0.3,0,0.7-0.2,1-0.1c1.3,0.7,2.6,1.5,3.9,2.2c0.2,0.1,0.5,0.3,0.7,0.3
		c1.3,0.3,2.5,0.9,3.6,1.6c0.4,0.2,0.7,0.6,0.9,0.9c0.9,1.2,1.9,2.3,3.3,3c0.2,0.1,0.4,0.4,0.5,0.7c0.2,0.3,0.4,0.7,0.6,1
		c0.3,0.4,0.9,0.6,1.3,0.4c0.5-0.3,0.6-0.8,0.3-1.3c-0.3-0.6-0.8-1.2-1.2-1.7c-0.2-0.3-0.4-0.5-0.6-0.8c-0.8-1.4-1.7-2.7-2.8-3.8
		c-0.8-0.8-1.5-1.8-2.2-2.6c-0.5-0.5-1-0.9-1.5-1.4s-1-1.1-1.5-1.6c-0.6-0.7-1.2-1.4-1.8-2.2c-0.1-0.1-0.1-0.2-0.2-0.2
		c-1.2-0.4-1.8-1.3-2.4-2.2c-0.4-0.6-0.8-0.8-1.4-0.9c-0.8-0.1-1.4-0.2-2.1,0.5c-0.5,0.5-1.3,0.6-2.1,0.4c-0.6-0.1-1.5-1.6-1.2-2.1
		c0.3-0.6,0.8-1.1,1.2-1.5s1-0.5,1.5-0.9c0.5-0.3,1.1-0.3,1.5,0.1c0.7,0.7,1.5,1.3,2.2,2c0.2,0.2,0.4,0.5,0.6,0.7
		c0.9,0.9,1.8,1.9,2.7,2.8c0.1,0.1,0.1,0.1,0.2,0.2c0.5,0.3,1,0.6,1.5,0.2s0.4-0.9,0.2-1.4c-0.3-0.9-0.7-1.9-1-2.8
		c-0.1-0.5-0.2-0.9-0.3-1.4c-0.1-0.7-0.4-1.2-0.9-1.7c-0.4-0.3-0.7-0.7-1.1-1c-0.5-0.5-0.9-1.1-1.1-1.7c-0.2-0.5-0.6-0.9-0.9-1.4
		c-0.4-0.6-0.8-1.2-0.9-2c-0.1-0.5-0.6-0.9-0.9-1.4c-0.6-0.9-1.2-1.7-1.7-2.6c-0.3-0.6-0.4-1.4-0.6-2.1C3.2,100,3.2,99.7,3,99.5
		c-0.3-0.4-0.5-0.7-0.3-1.2c0-0.1,0-0.3-0.1-0.3c-0.4-0.5-0.3-1.1-0.4-1.7C2.3,95.7,2.1,95,2,94.2c-0.1-1-0.3-1.9-0.7-2.8
		c-0.1-0.2,0-0.4,0.1-0.8C1.7,91,2,91.2,2.1,91.4c0.4,0.6,0.8,1.2,1.2,1.8c0.4,0.6,0.8,1.2,1.2,1.7c0.1,0.1,0.2,0.2,0.2,0.3
		c0.1,0.6,0.5,0.9,0.8,1.4c0.5,0.7,0.8,1.5,1.2,2.2c0.2,0.3,0.5,0.8,0.7,0.8c0.4,0,0.9-0.4,0.9-0.9c0-0.6-0.1-1.1-0.2-1.7
		c-0.1-0.5-0.2-1-0.3-1.4c-0.1-0.6,0-1.1,0-1.7c0-0.7,0-1.3,0-2c-0.1-1.8,0.1-3.7-0.5-5.5c-0.1-0.3-0.1-0.6-0.1-0.9
		c-0.1-1-0.7-1.8-1.1-2.6c-0.2-0.4-0.4-0.9-0.5-1.4c-0.1-0.6-0.2-1.2-0.6-1.7c-0.4-0.6-0.6-1.3-1-1.9c-0.3-0.5-0.6-1-1.1-1.4
		c-0.3-0.2-0.8-0.3-1.2-0.3c-0.7-0.1-1.3-0.1-1.6-0.9c-0.3-0.7,0-1.4,0.9-2C1.5,73,2.2,73,2.6,73.5C3.4,74.3,4.2,75.2,5,76
		c0.1,0.1,0.2,0.3,0.3,0.4c0.3,0.9,0.6,1.9,0.9,2.8c0.3,0.8,0.6,1.6,0.9,2.3C7.3,81.8,7.6,82,7.9,82c0.2,0,0.4-0.2,0.5-0.4
		c0.2-0.4,0.4-0.9,0.5-1.3C9,80,9.1,79.7,9,79.6c-0.3-0.6,0-1.1,0.2-1.7c0.1-0.3,0.1-0.7,0.1-1c-0.1-0.9-0.1-1.7,0.4-2.5
		s0.4-1.6,0.3-2.5c-0.1-0.7-0.3-1.3-0.4-2c-0.1-0.7-0.2-1.4-0.4-2.1c-0.1-0.5-0.3-0.9-0.4-1.4c-0.1-0.7-0.1-1.5-0.2-2.2
		c-0.1-0.9-0.4-1.7-0.4-2.6c0-0.7,0.1-1.4,0.2-2.1c0.1-0.7,0.1-1.4,0.2-2.1c0.1-0.4,0.2-0.8,0.3-1.2c0.1-0.5,0.4-1,0.4-1.5
		c0-0.9,0.2-1.8,0.5-2.7c0.3-1,0.5-2.1,0.8-3.1c0.1-0.5,0.4-0.9,0.6-1.3c0.1-0.3,0.2-0.6,0.3-0.8c0.2-0.8,0.2-1.7,0.4-2.5
		c0.2-1,0.9-1.7,1.5-2.4c0.2-0.2,0.2-0.6,0.3-1c0-0.2,0-0.4,0.1-0.5s0.3-0.3,0.4-0.2c0.1,0.1,0.3,0.2,0.3,0.4c0,0.3,0,0.7-0.2,1
		c-0.6,0.9-0.4,1.9-0.5,2.9c0,1.7,0,3.3-0.3,5c-0.2,1.4-0.7,2.9-0.3,4.4c0.1,0.4,0,0.8-0.1,1.2c-0.1,1-0.2,1.9-0.3,2.9
		c0,0.5,0.1,0.9,0.7,1c0.6,0.1,1.1-0.2,1.2-0.7c0.2-0.8,0.3-1.7,0.6-2.5c0.3-0.9,0.7-1.7,1.2-2.4c1-1.6,1.7-3.4,2.3-5.2
		c0.1-0.4,0.1-1,0.2-1.4c0.2-0.8,0.4-1.7,0.5-2.5c0.2-1.4,0.4-2.7,0.6-4.1c0-0.3,0-0.5,0-0.8c0.4-1.4,0.2-2.7,0.1-4.1
		c-0.1-1-0.4-1.8-1.2-2.4c-0.6-0.4-0.9-1-1-1.7c-0.2-0.8,0.4-1.5,1.4-1.8c0.6-0.2,1.7,0.3,2,0.8c0.7,1.1,0.9,2.3,0.8,3.5
		c0,0.5,0,1.1,0.1,1.6c0.2,0.9,0.2,1.8-0.2,2.7c-0.3,0.7-0.5,1.5-0.1,2.3c0.3,0.6,0.8,0.7,1.3,0.3c0.2-0.2,0.4-0.4,0.6-0.7
		c0.6-0.7,1.1-1.5,1.6-2.3c0.3-0.5,0.5-1,0.8-1.5c0.5-1.1,1.1-2.1,1.5-3.2c0.4-0.9,0.8-1.8,0.9-2.7c0.2-1.1,0.6-2.1,1.2-3
		c0.1-0.1,0.2-0.2,0.2-0.3c0.1-1.2,0.7-2.2,1-3.3c0.3-1.1,0.9-2.2,1.6-3.1c0.6-0.8,1-1.7,1.4-2.5c0.1-0.1,0.1-0.3,0.2-0.4
		c0.2-0.1,0.4-0.3,0.6-0.3c0.1,0,0.3,0.3,0.4,0.4c0,0.2,0,0.5-0.1,0.7c-0.5,1.3-1.1,2.5-1.7,3.8c-0.2,0.5-0.3,1.2-0.4,1.8
		c0,0.2,0.1,0.5,0.3,0.6c0.1,0.1,0.5,0,0.6-0.2c0.2-0.2,0.4-0.6,0.5-0.8c0.4-0.6,0.7-1.3,1.1-1.8c0.2-0.2,0.6-0.3,0.9-0.3
		c0.3,0,0.3,0.3,0.2,0.7c-0.3,0.6-0.5,1.1-0.7,1.7c0,0.1,0.1,0.4,0.3,0.5c0.5,0.2,1,0,1.4-0.6c0.7-1.1,1.5-2.2,2.8-2.6
		c0.8-0.2,1.2-0.8,1.7-1.3c0.1-0.2,0.3-0.4,0.4-0.5c1.1-0.9,2.2-1.7,3.2-2.6c0.4-0.3,0.7-0.7,0.7-1.3c0-0.8,0.8-1.3,1.2-1.9
		c0.5-0.7,1.1-1.5,1.7-2.2c0.3-0.4,0.7-0.7,1.1-1c0.1-0.1,0.3-0.3,0.3-0.5c0-0.9,0.5-1.6,1.1-2.2s1.1-1.4,1.8-2
		c1-0.9,2.1-1.8,3.2-2.7c0.9-0.7,1.8-1.5,3.1-1.7c0.3-0.3,0.7-0.6,1-0.8c0.6-0.5,1-0.6,1.4-0.3c0.4,0.4,0.4,1,0,1.6
		c-0.6,0.8-1.3,1.6-2,2.3c-1,1.1-2.1,2.2-3.1,3.3C57.1,7.6,57,8,56.8,8.1c-0.4,0.3-0.8,0.5-1.3,0.7c0,0-0.3-0.1-0.3-0.2
		c0-0.2,0-0.4,0.1-0.5c0.3-0.4,0.7-0.7,1-1s0.6-0.6,0.7-1c0.3-0.7-0.1-1.3-0.8-1.1c-0.5,0.1-0.9,0.5-1.2,0.9
		c-0.4,0.6-0.7,1.2-1.4,1.6c-0.6,0.3-1,0.9-1.5,1.4c-0.2,0.2-0.4,0.4-0.7,0.6c-0.4,0.3-0.7,1.6-0.4,1.9c0.3,0.3,0.6,0.4,0.9,0.1
		c0.6-0.5,1.2-1,1.9-1.5c0.2-0.1,0.4-0.1,0.6-0.2c0.1,0.1,0.1,0.1,0.1,0.2c-0.1,0.5-0.1,1.1,0.5,1.3c0.4,0.1,0.9,0,1.3-0.3
		c0.7-0.5,1.5-0.9,2.1-1.6c0.8-1,1.8-1.8,3.1-2c0.9-0.2,1.5-0.8,2.2-1.3c0.5-0.4,1-0.7,1.6-0.7c0.3,0,0.5-0.1,0.8-0.2
		c1.4-0.5,2.8-0.9,4.1-1.4c0.6-0.2,1.2-0.2,1.8-0.2c1.4-0.1,2.7-0.2,4.1-0.1C77.6,3.6,79,3.6,80.4,4c1.3,0.3,2.6,0.5,3.7,1.3
		C84.6,5.5,85,6,85.3,6.4c0.1,0.1,0.1,0.4,0,0.5c-0.2,0.4-1.4,0.8-1.9,0.7c-0.4-0.1-0.8-0.1-1.1-0.1C80.9,7.6,79.5,7.8,78,8
		c-0.5,0.1-1.1,0.2-1.6,0.3s-1,0.1-1.5,0.1c-0.9,0.1-1.8,0.4-2.7,0.5C71.4,9,70.6,9,69.8,9.1c-0.7,0-1.4,0-2.1,0.1
		c-0.7,0-1.4,0.1-2.1,0.2c-0.4,0.1-0.9,0.3-1.3,0.5c-0.4,0.3-0.7,0.4-1.2,0.3c-1.7-0.3-3.3,0.1-4.8,1.1c-0.2,0.2-0.5,0.3-0.8,0.4
		c-0.2,0.1-0.4,0.1-0.5,0.2c-0.3,0.3-0.6,0.6-0.6,0.8c0,0.4,0.5,0.5,0.9,0.6c0.7,0.1,1.3-0.2,1.8-0.6c0.4-0.2,0.8-0.4,1.3-0.4
		c1.7,0,3.5-0.1,5.2,0c1.3,0.1,2.6,0.4,3.9,0.7c0.6,0.1,0.7,0.4,1,1.2c-0.3,0.2-0.6,0.4-1,0.5c-1.6,0.5-3.2,1-4.8,1.6
		c-0.5,0.2-1,0.4-1.5,0.5c-0.6,0.1-1.1-0.1-1.4-0.6c-0.3-0.5-0.2-1,0.1-1.4c0.3-0.5,0.8-0.6,1.4-0.5c0.2,0,0.5,0,0.7,0
		c0-0.1,0-0.2,0-0.3c-0.4-0.1-0.8-0.3-1.2-0.2C61.3,14,59.6,14,58,14.4c-2.1,0.4-4.2,0.4-6.2,1.3c-0.4,0.2-0.8,0.4-0.7,0.9
		s0.6,0.5,1,0.4c0.7-0.1,1.4-0.2,2.1-0.3c0.2,0,0.5-0.1,0.7-0.2s0.4-0.2,0.6-0.2c1.1-0.1,2.3-0.2,3.5-0.2c0.5,0,1,0,1.5,0
		c0.2,0,0.3,0.2,0.5,0.4c-0.1,0.1-0.3,0.4-0.4,0.4c-0.9,0.1-1.8,0.5-2.7,0.5c-1.1,0-2.1,0.4-3.1,0.6c-0.7,0.2-1.3,0.4-2,0.1
		c-0.1,0-0.2,0-0.4,0c-0.9,0.1-1.7,0.2-2.6,0.3c-0.3,0-0.6,0-0.8-0.1c-0.7-0.3-1.3-0.2-1.8,0.3C47,18.7,46.8,19,46.6,19
		c-1.8,0.5-2.9,2.1-4.5,2.8c-1.1,0.5-1.8,1.3-2.7,2.1c-0.5,0.4-1.1,0.7-1.5,1.1s-0.8,0.9-1.2,1.4c1,0.5,1.8,0.3,2.5,0
		c0.8-0.3,1.6-0.9,2.5-1.2c0.5-0.2,1.1-0.3,1.7-0.4c0.6-0.1,0.7,0.1,0.6,0.7c0,0.2-0.1,0.4-0.2,0.5c-0.3,0.5-0.2,0.7,0.3,0.7
		c0.6,0.1,1.3-0.2,1.5-0.7c0.1-0.2,0.1-0.6,0-0.8c-0.2-0.6,0-1,0.6-1.1c0.9-0.2,1.7-0.3,2.6-0.4c0.2,0,0.4-0.1,0.5-0.3
		c0.4-0.4,0.8-0.5,1.3-0.4s1,0.1,1.4,0.1c0.4-0.1,0.9-0.2,1.2-0.5c0.4-0.3,0.8-0.3,1.1,0s0.2,0.8-0.2,1.1c-0.4,0.3-0.8,0.5-1.2,0.7
		c-0.6,0.3-1.2,0.5-1.8,0.8c-0.9,0.5-1.8,1.2-2.8,1.7c-0.3,0.2-0.7,0.1-1,0.3c-1.6,0.7-3.1,1.5-4.7,2.1c-1,0.4-2,0.9-3.1,1.1
		s-2,0.8-3,1.2c-0.4,0.2-0.8,0.3-1.2,0.5c-1.4,0.5-2.8,0.9-4.2,1.4c-0.3,0.1-0.7,0.3-0.9,0.5c-0.9,0.8-1.8,1.7-2.4,2.9
		c-0.3,0.7-1,1.3-1.5,1.9c-0.2,0.3-0.4,0.6-0.5,0.9c-0.1,0.3-0.2,0.7-0.3,1c-0.2,0.7,0,1,0.7,0.8c0.8-0.2,1.5-0.6,2.3-1
		c1.3-0.6,2.4-1.4,4-1.3c0.5,0.1,1,0,1.4,0c0.9-0.1,1.4,0.5,2,1c0.1,0.1,0.1,0.2,0.2,0.4c0.1,0.3,0,0.7,0.4,0.8
		c0.6,0.1,1.1,0.1,1.6-0.4c1.1-1.2,2.2-2.5,3.4-3.5c1.7-1.3,2.9-3,4.3-4.6c0.5-0.5,1.1-0.9,1.7-1.3c1.3-0.8,2.5-1.6,3.8-2.5
		c0.2-0.1,0.4-0.3,0.5-0.4c1-0.7,1.9-1.4,3-2c0.9-0.5,1.8-1.1,2.7-1.5c1-0.5,2.1-0.9,3.2-1.4c0.2-0.1,0.5-0.1,0.7-0.2
		c0.4-0.2,0.7-0.3,1.1-0.5c0.2-0.1,0.4-0.2,0.5-0.3c0.5-0.2,1-0.5,1.5-0.7c0.8-0.3,1.6-0.6,2.3-0.9c0.3-0.1,0.6-0.1,0.9-0.3
		c1.3-0.7,2.8-0.9,4.2-1.2c0.3,0,0.5-0.1,0.8-0.2c0.6-0.1,1.2-0.2,1.7-0.3c0.3-0.1,0.7-0.2,1-0.3c0.4-0.1,0.8-0.3,1.3-0.4
		c1.2-0.3,2.5-0.5,3.7-0.8c0.2,0,0.4-0.1,0.5-0.1c1-0.1,2-0.2,3-0.3c0.3,0,0.5-0.1,0.8-0.2c1.3-0.4,2.5-0.4,3.8-0.1
		c0.4,0.1,0.9,0,1.3,0c0.2,0,0.5-0.2,0.7-0.2c0.9,0,1.8,0.1,2.7,0.1c0.7,0,1.4,0,2.1,0c0.3,0,0.6,0,0.9,0.1c1.4,0.6,2.8,0.5,4.3,0.5
		c0.3,0,0.6,0.1,0.8,0.2c1.5,0.7,3,1,4.7,1c1.5,0.1,3,0.4,4.5,1c0.6,0.2,1.2,0.3,1.8,0.5c0.9,0.3,1.8,0.7,2.6,1.1
		c0.5,0.2,1.1,0.4,1.7,0.6c0.8,0.3,1.7,0.5,2.5,0.8c0.9,0.4,1.9,0.8,2.8,1.3c1,0.6,2,1.3,3,1.9c0.5,0.3,1,0.5,1.5,0.8
		c1.3,0.8,2.7,1.5,3.9,2.4c1.1,0.8,2.1,1.7,3.1,2.5c0.8,0.6,1.6,1.2,2.3,1.9c1,0.8,1.9,1.7,2.8,2.5c0.1,0.1,0.2,0.2,0.3,0.4
		c0.7,1.5,2.1,2.4,3.4,3.4c0.5,0.4,0.9,0.8,1.2,1.4c0.2,0.5,0.7,0.9,1.1,1.3c0.6,0.6,1.1,1.2,1.4,1.9c0.2,0.7,0.8,1.1,1.4,1.4
		c0.3,0.2,0.5,0,0.5-0.3c0-0.4,0-0.8,0-1.2c0-0.8,0.5-1.3,1.2-1.7c1-0.5,2.1-0.6,3.2-0.5c1.3,0.1,2.7,0.3,3.9,0.7
		c0.6,0.2,1.2,0.7,1.8,1c0.2-0.4,0.2-0.8-0.1-1.1c-0.9-1.1-1.8-2.2-2.7-3.2c-0.3-0.3-0.8-0.5-1.2-0.6c-1.2-0.2-2.5-0.3-3.7-0.4
		c-0.5-0.1-0.9-0.1-1.4-0.2c-0.8-0.2-1.6-0.3-2.3-0.7c-1.1-0.5-2.2-1.1-3.3-1.8c-1-0.6-1.9-1.3-2.8-2.1c-0.8-0.6-1.4-1.4-2.1-2.1
		c-0.8-0.8-1.7-1.6-2.5-2.5c-0.4-0.5-0.9-0.9-1.2-1.5c-0.1-0.2-0.1-0.6,0-0.9c0.1-0.2,0.5-0.2,0.7-0.2c1.9,0.5,3.8,1.2,5.6,2.1
		c0.8,0.4,1.7,0.8,2.6,1.2c0.4,0.2,0.8,0.4,1.2,0.6c0.3,0.1,0.6,0.2,0.9,0.2c0.4,0,0.6-0.3,0.3-0.6c-0.7-0.8-1.4-1.6-2.3-2.3
		c-1.4-1.1-2.8-2.1-4.4-3c-0.9-0.5-1.8-1-3-1.1c-0.7,0-1.3-0.6-1.9-0.8c-1-0.3-2.1-0.4-3.1-0.6s-2-0.2-3-0.4
		c-0.6-0.1-1.2-0.2-1.8-0.3c-0.4-0.1-0.7-0.3-1.1-0.5c-0.2-0.1-0.3-0.3-0.5-0.3c-1.1-0.1-2-0.6-2.9-1.1c-0.6-0.3-1.4-0.4-2.1-0.6
		c-0.1,0-0.2,0-0.2,0c-1.6-0.6-3.2-1.1-4.7-1.7c-0.7-0.3-1.3-0.7-2-1.1c-0.4-0.3-0.4-0.7-0.3-1.1c0.1-0.5,0.5-0.5,0.9-0.3
		c1.7,0.7,3.4,0.6,5.1,0.6c0.9,0,1.8,0,2.6,0.3c0.9,0.4,1.8,0.7,2.7,0.9c0.5,0.1,1,0,1.5,0.1c0.4,0,0.8,0.1,1.2,0.2
		c0.8,0.3,1.6,0.6,2.3,0.9c0.2,0.1,0.4,0.1,0.5,0c0.2-0.1,0.4-0.2,0.4-0.4c0-0.1-0.2-0.3-0.3-0.4c-0.7-0.5-1.4-0.9-2.3-0.8
		c-0.6,0.1-0.9-0.5-1.2-0.9c-0.3-0.4-0.7-0.5-1.2-0.6c-0.4-0.1-0.9-0.4-1.3-0.5c-0.6-0.2-1.2-0.5-1.9-0.6c-1.7-0.2-3.4-0.2-5.1-0.4
		c-0.4,0-0.7-0.3-1.1-0.4c-0.2-0.1-0.3-0.2-0.5-0.2c-1.1-0.5-2.2-0.9-3.3-1.4c-0.4-0.2-0.9-0.3-1.4-0.4c-1.6-0.4-3.2-0.8-4.8-1.3
		c-0.7-0.2-1.4-0.7-2.1-0.9c-1.2-0.3-2.2-1.1-3.2-1.7c-0.3-0.2-0.6-0.2-0.9-0.3c-0.7-0.3-1.5-0.5-2.2-0.8c-0.4-0.2-0.6-0.5-0.5-0.9
		c0.1-0.3,0.4-0.5,0.7-0.6c0.2-0.1,0.5-0.1,0.8-0.1c0.8,0,1.6,0.1,2.4,0.1c2.1,0,4.2,0.4,6.2,1c1.1,0.3,2.3,0.4,3.4,0.8
		c1.2,0.4,2.5,0.9,3.5,1.7c0.3,0.3,0.7,0.5,1.1,0.5c1.6,0.3,2.9,1.1,4.3,1.7c0.8,0.4,1.5,0.8,2.2,1.2s1.4,0.9,2.1,1.2
		c0.7,0.2,1.5,0.3,2.3,0.3c0.4,0,0.6-0.3,0.5-0.7c-0.1-0.3-0.2-0.8-0.5-1c-1.2-1.1-2.5-2.1-3.7-3.2c-0.3-0.2-0.5-0.5-0.8-0.8
		c-0.6-0.5-1.2-0.9-1.8-1.4c-0.2-0.2-0.6-0.3-0.7-0.6c-0.2-0.4-0.3-0.9-0.2-1.2c0.2-0.5,0.7-0.3,1.1-0.1c0.6,0.3,1.2,0.7,1.8,1
		c0.2,0.1,0.3,0.2,0.5,0.3c1.7,0.5,3.2,1.7,4.6,2.6c0.4,0.3,0.9,0.4,1.3,0.7c0.7,0.5,1.3,1,1.9,1.5c0.8,0.7,1.5,1.4,2.3,2.1
		c0.6,0.5,1.2,0.9,1.9,1.2c0.5,0.2,0.8,0.5,0.7,1.1c0,0.2,0,0.4,0,0.5c0.3,0.2,0.6,0.3,0.7,0.5c0.5,0.6,0.9,1.3,1.3,2
		c0.1,0.2,0.2,0.4,0.4,0.5c0.9,0.5,1.4,1.3,1.6,2.2c0.3,1.2,1.2,1.9,2,2.6c0.7,0.7,1.4,1.4,2.1,2.1c1.1,1.2,2.3,2.2,4,2.7
		c0-0.4,0.1-0.7,0-1c-0.3-0.9-0.6-1.8-1-2.7c-0.3-0.7-0.7-1.4-1.1-2c-0.4-0.8-0.8-1.5-1.3-2.3c-0.3-0.5-0.8-1-1.1-1.5
		c-0.4-0.7-0.8-1.5-1.1-2.3c-0.1-0.2,0.1-0.7,0.3-0.9c0.3-0.2,0.7-0.2,1,0.1c0.3,0.4,0.7,0.7,1,1.2c0.5,1,1.4,1.7,2.1,2.5
		c0.5,0.6,0.9,1.3,1.4,2c0.2,0.3,0.5,0.6,0.8,0.9c0.5,0.6,1.1,1.1,1.7,1.7c0.2,0.2,0.4,0.6,0.7,0.7c0.6,0.3,0.7,0.8,0.9,1.3
		c0.5,1.5,1.1,3,2.1,4.3c0.2,0.3,0.4,0.6,0.5,0.9c0.7,2.1,1.4,4.2,2.2,6.2c0.5,1.3,1.2,2.5,2.4,3.5c0.6,0.5,1.4,1.1,1.7,2.1
		c0.1,0.4,0.6,0.8,1,1.1c0.1,0.1,0.5,0,0.7-0.1c0.1,0,0.1-0.3,0.1-0.5c-0.1-1-0.2-1.9-0.3-2.9c-0.2-1.3-0.4-2.6-0.6-4
		c0-0.4,0-0.8,0.1-1.1c0.4-0.7,0.8-1.4,1.3-2.1c0.1-0.2,0.5-0.3,0.8-0.4c1.1-0.3,2.2-0.1,3.1,0.7c0.5,0.5,0.8,1,0.6,1.8
		c-0.2,0.7-0.5,1.3-1.3,1.5c-0.2,0.1-0.4,0.1-0.6,0.2c-1.6,0.5-2,1.1-1.9,2.7c0,0.8,0.1,1.6,0.8,2.2c0.1,0.1,0.2,0.4,0.1,0.5
		c-0.4,0.9-0.1,1.8,0.2,2.7c0.5,1.5,0.9,3,1.5,4.5c0.2,0.7,0.6,1.3,0.9,1.9c0.1,0.3,0.3,0.6,0.4,0.9c0.2,0.4,0.4,0.9,0.6,1.3
		c0.5,1.1,1.1,2.1,1.6,3.2c0.2,0.3,0.1,0.8,0.3,1.1c0.2,0.4,0.6,0.7,0.9,1c0.3-0.3,0.8-0.6,0.8-1c0.2-1,0.2-2,0.3-3
		c0.1-1.2,0.2-2.4,0.3-3.6c0-0.7,0-1.5,0-2.2c0-0.2-0.1-0.4-0.1-0.6c0.5-1.4-0.2-2.9,0-4.3c0.1-0.4-0.1-0.8-0.1-1.2
		c0-0.2,0-0.4,0-0.6c0.1-0.6,0.3-0.7,0.8-0.4c0.7,0.4,1.3,0.9,1.2,1.8c0,0.9,0.1,1.7,0.7,2.4c0.2,0.3,0.3,0.6,0.4,0.9
		c0.3,1.7,0.6,3.4,0.9,5.1c0,0.3,0.1,0.5,0.1,0.8c0.4,1.1,0.4,2.3,0.1,3.4c-0.1,0.4,0,0.8,0,1.2c0.1,0.7,0,1.3-0.2,1.9
		c-0.3,0.6-0.4,1.2-0.5,1.8c-0.1,0.7-0.4,1.3-0.7,2c-0.2,0.4-0.4,1-0.4,1.5c-0.1,0.7,0,1.4,0,2c0,0.7-0.1,1.4-0.2,2.1
		c0,0.6-0.1,1.2,0,1.8c0.1,1.2,0.3,2.4,0.5,3.6c0.1,0.6,0.4,1.2,0.6,1.8c0.1,0.4,0.2,0.8,0.2,1.2c0.1,1,0,2,0.6,3
		c0.2,0.3,0.1,0.9,0.1,1.3c-0.1,0.7-0.1,1.3,0.2,1.9c0.2,0.4,0.2,0.8,0.4,1.2c0.1,0.2,0.3,0.4,0.5,0.7c0.2-0.2,0.5-0.3,0.6-0.6
		c0.2-0.5,0.3-1,0.4-1.5c0.2-0.8,0.4-1.5,0.6-2.3c0.1-0.5,0.4-1,0.3-1.5c-0.1-1.3,0.5-2.4,1.1-3.5c0.2-0.3,0.2-0.6,0.4-0.9
		c0.2-0.5,0.4-1.1,0.7-1.5c0.5-0.7,1-1.5,1.7-2.1c0.8-0.7,1.9-0.3,2,0.8c0.1,0.8,0,1.7-0.1,2.5c0,0.3-0.5,0.6-0.9,0.7
		c-1.6,0.3-2.3,1.1-2.4,2.7c0,0.2,0,0.5,0,0.7c0.2,1.5-0.5,2.8-1.3,4c-0.1,0.1-0.2,0.2-0.2,0.4c-0.7,3-1.4,5.9-2,8.9
		c-0.1,0.6-0.1,1.3-0.1,2c0,0.3,0.1,0.7,0.3,1c0.2,0.4,0.7,0.5,1,0.1c0.6-0.7,1.1-1.5,1.7-2.2c0.2-0.2,0.3-0.5,0.5-0.7
		c0.9-0.9,1.3-2,1.7-3.1c0.3-0.6,0.7-1.2,1-1.8c0.2-0.5,0.4-1,0.5-1.5c0.1-0.3,0.1-0.7,0.2-1.2c0.5,0.4,0.9,0.6,0.5,1.2
		c-0.1,0.2-0.1,0.6,0,0.8c0.6,0.7,0.5,1.4,0.1,2.2c-0.3,0.6-0.4,1.4-0.6,2c-0.3,1-0.7,1.9-1,2.9c-0.4,1.3-0.7,2.7-1.1,4
		c-0.3,1-0.8,2-1.6,2.7c-1,0.9-2,1.9-2.6,3.2c-0.2,0.4-0.5,0.6-0.8,1c-0.4,0.4-0.7,0.8-1.1,1.2c-0.6,0.8-1.3,1.7-1.7,2.6
		c-0.4,1-1.1,1.9-1.5,2.9c-0.4,1.1-1.3,2.1-1.1,3.4v0.1c-0.3,0.9-0.7,1.9-1.1,2.9c0.4,0,0.6,0,0.8-0.1c1-0.5,1.9-1.1,2.7-2
		c1.1-1.1,2.3-2.2,3.8-2.7c1.1-0.4,2.3-0.6,3.6-0.3c0.5,0.1,0.9,0.4,0.9,0.9s0,1,0,1.5c-0.1,1.1-1.4,1.4-2.2,0.7
		c-0.1-0.1-0.2-0.2-0.3-0.4c-1.2-1.2-2.7-0.7-3.6,0.5c-0.2,0.2-0.2,0.5-0.4,0.6c-1.1,0.6-1.6,1.7-2.3,2.6c-0.6,0.8-1.2,1.6-1.7,2.4
		c-0.7,1-1.5,2.1-2.2,3.1c-0.7,0.9-1.4,1.8-2.1,2.7c-0.4,0.6-0.6,1.2-1,1.8c-0.2,0.3-0.4,0.6-0.7,0.8c-0.7,0.4-0.8,1.1-1.1,1.7
		c-0.1,0.3,0.3,0.8,0.8,0.8c0.6,0,1.3-0.1,1.8-0.4c1.7-0.9,3.2-2.2,4.9-3.1c1-0.5,1.8-1.6,2.7-2.4c0.4-0.3,0.8-0.6,1.2-0.7
		c0.7-0.2,1.1,0.3,0.8,1c-0.2,0.4-0.4,0.7-0.8,1c-0.6,0.5-1,0.9-1.3,1.7c-0.2,0.4-0.6,0.8-0.9,1.1c-1.1,1.1-2.2,2.2-3.3,3.3
		c-0.3,0.3-0.4,0.7-0.6,1c-0.8,1.2-1.9,2-3.2,2.5c-0.2,0.1-0.4,0.3-0.5,0.3c-0.3,0.1-0.5,0.2-1,0.3c0.4-0.7,0.7-1.3,1-1.8
		c0-0.1,0.1-0.1,0.1-0.2c0.2-0.5,0.6-1,0.1-1.4c-0.4-0.4-1.1-0.3-1.5,0c-0.8,0.6-1.6,1.2-2.4,1.8c-0.6,0.4-1.3,0.8-1.9,1.2
		c-0.6,0.5-1,1-1.5,1.5c0,0,0.2,0.4,0.3,0.4c1,0,2,0.3,2.9-0.4c0.1-0.1,0.3-0.2,0.4-0.2c0.3-0.1,0.8-0.2,0.9,0.2
		c0,0.3-0.2,0.8-0.5,1c-0.6,0.4-1.3,0.9-2,1.1c-0.6,0.2-1.4,0.1-2,0c-0.4-0.1-0.7-0.2-1,0.2c-0.9,1-1.9,1.6-3.1,2.1
		c-0.6,0.2-1.1,0.7-1.7,1c-0.4,0.2-0.8,0.4-1.2,0.5c-0.8,0.2-1.2,0.8-1.4,1.5c-0.1,0.5,0.3,0.6,0.6,0.7c0.5,0.2,1.1,0.5,1.7,0.8
		c-0.7,0.5-1.2,0.6-1.8,0.5c-0.7-0.1-1.3,0.1-1.8,0.6c-0.2,0.2-0.5,0.3-0.7,0.4c-1.1,0.4-2.2,0.9-3.3,1.3c-0.7,0.2-1.4,0.3-2.1,0.5
		c-0.3,0.1-0.6,0.3-0.8,0.5c-0.3,0.2-0.4,0.5-0.7,0.8c-0.2,0.1-0.5,0.2-0.6,0.2c-0.2-0.1-0.4-0.4-0.4-0.6c0-0.1,0.2-0.4,0.4-0.5
		s0.4-0.2,0.7-0.3c0.6-0.2,1-0.6,1.4-1.1c0.6-0.7,1.4-1.1,1.9-1.8c0.6-1,1.4-1.9,2.1-2.8c0.2-0.2,0.2-0.6,0.3-0.8
		c0.2-0.3,0.4-0.7,0.6-1c0.4-0.3,0.8-0.4,1.2,0.1c0.9,1.1,1.6,1,2.3-0.2c0.5-0.7,1-1.3,1.5-2c0.5-0.8,0.8-1.7,1.3-2.4
		c0.7-0.9,0.6-2.1,0.9-3.1c0.2-0.7,0.3-1.5,0.4-2.3c0.1-1.4,0.1-2.8,0.8-4.1c0.2-0.4,0.2-0.8,0.3-1.2c0.1-0.5,0.3-1.1,0.4-1.6
		c0-0.2,0.1-0.4,0.1-0.5c-0.1-1.3,0.6-2.4,1.2-3.5c0.1-0.2,0.2-0.5,0.1-0.6c-0.2-0.4-0.2-0.7,0-1.1c0.1-0.4,0.1-0.9,0.1-1.4
		c0-0.7,0-1.4-0.1-2.2c0-0.5,0.3-0.8,0.8-0.8c0.6-0.1,1,0.2,1,0.7c0,1.4,0.6,2.6,0.9,4c0.3,1.2,0.4,2.5,0.3,3.7
		c-0.1,0.8,0.1,1.6,0,2.4c-0.1,1.2-0.4,2.4-0.6,3.5c0,0.2-0.1,0.4-0.2,0.6c-0.1,0.3-0.1,0.6,0.2,0.8s0.6,0.2,0.9-0.1
		c0.1-0.1,0.2-0.3,0.3-0.5c0.6-0.8,1.2-1.6,1.7-2.4c0.5-0.7,1.1-1.5,1.4-2.3c0.5-1.2,0.9-2.4,1.2-3.6c0.2-0.9,0.1-1.8,0.2-2.7
		c0-0.4,0.1-0.7,0.2-1.1c0.2-0.7,0.2-1.4,0.3-2.1c0-0.1-0.1-0.3-0.1-0.4c0.2-1.3-0.2-2.4-0.7-3.5c-0.3-0.7-0.6-1.3-1-1.9
		c-0.2-0.4-1.4-0.6-1.9-0.5c-0.3,0.1-0.6,0.2-0.9,0.2c-0.6,0-1.2,0.1-1.5-0.7c-0.3-0.8-0.3-1.6,0.3-2.3c0.2-0.3,0.5-0.4,0.8-0.6
		c0.4-0.3,0.9-0.4,1.3-0.1c0.2,0.2,0.5,0.2,0.8,0.3c1.1,0.3,1.7,1,2.2,2c0.5,1.1,1.2,2,1.7,3.1c0.2,0.4,0.3,0.8,0.4,1.2
		c0.1,0.4,0.1,0.9,0.2,1.4c0.7-0.6,1.3-1,1.3-1.8s0.2-1.7,0.2-2.5c0-0.5-0.3-1.1-0.5-1.6c-0.1-0.3-0.3-0.6-0.4-1
		c-0.3-0.9-0.5-1.9-0.8-2.8c-0.2-0.5-0.5-1-0.8-1.5c-0.6-0.9-0.9-1.9-0.9-2.9c0-0.8-0.2-1.6-0.5-2.4c-0.2-0.4-0.1-0.8-0.1-1.2
		c0-2.2,0-4.4,0-6.5c0-1.2-0.3-2.4-0.5-3.6c0-0.2-0.1-0.3,0-0.5c0.1-0.3,0.2-0.7,0.3-0.7c0.3-0.1,0.8,0,1,0.1c0.6,0.4,0.9,1,1,1.7
		c0.2,0.9,0.7,1.8,1,2.7c0.2,0.5,0.3,1,0.4,1.5c0.2,0.9,0.6,1.7,1,2.5c0.7,1.4,1.6,2.8,1.3,4.5c-0.1,0.8,0.2,1.6,0.7,2.2
		c0.2,0.3,0.5,0.3,0.7,0.1c0.2-0.2,0.5-0.5,0.6-0.7c0.2-0.8,0.3-1.7,0.4-2.5c0.1-1.2,0.2-2.4,0.2-3.6c0-0.4,0-0.7,0-1.1
		c0-0.2-0.1-0.3,0-0.5c0.2-1,0.1-2-0.2-2.9c-0.3-0.8-0.4-1.6-0.7-2.5c-0.2-0.7-0.5-1.4-0.6-2.2c-0.3-1.7-1.2-3.1-2.3-4.4
		c-0.3-0.4-0.6-0.8-0.9-1.1c-0.6-0.5-1.4-0.4-2.2-0.4c-0.3,0-0.6,0-0.9-0.2c-1-0.6-1.3-1.1-0.4-2.1c0.1-0.1,0.3-0.3,0.4-0.5
		c0.8-1.1,2-1.1,2.6,0c0.4,0.8,1,1.3,1.7,1.7c0.1,0.1,0.3,0.2,0.4,0.4c0.7,0.9,1.4,1.8,1.9,2.7c0.3,0.6,0.7,0.5,1.2,0.3
		s0.7-0.7,0.5-1.1c-0.4-0.8-0.8-1.5-1.2-2.3c-0.2-0.4-0.4-0.8-0.4-1.2c0-1.8-0.9-3.2-1.9-4.6c-0.9-1.1-1.9-2.1-2.9-3
		c-0.3-0.2-0.8-0.3-1.2-0.3c-1,0-1.6-0.2-1.9-1.2c-0.3-1-1-1.8-1.8-2.5c-0.6-0.5-1.1-1.2-1.5-1.9c-0.5-0.9-1-1.8-1.4-2.7
		c-0.1-0.2-0.3-0.4-0.5-0.7c-0.1-0.3-0.3-0.5-0.4-0.8c-0.1-0.8-0.3-1.5-0.8-2.1c-0.3-0.4-0.5-1-0.7-1.5c-0.2-0.6-0.2-1.3-0.9-1.6
		c-0.1,0-0.2-0.1-0.2-0.2c-0.5-1.1-1-2.3-1.4-3.4c-0.1-0.3-0.3-0.6-0.4-0.9c-0.1-0.3,0-0.7,0.1-1c0-0.1,0.5-0.1,0.7-0.1
		c0.4,0.2,0.8,0.5,1.2,0.7c0.1,0.1,0.2,0.2,0.3,0.3c1,0.3,1.4,1.2,1.8,2c0.6,1.2,1.5,2.2,2.5,3c0.8,0.6,1.4,1.4,2.1,2.1
		c0.2,0.2,0.4,0.4,0.6,0.6c0.4,0.4,0.7,0.9,1.1,1.3c0.4,0.5,0.8,1,1.1,1.5c0.4,0.6,0.9,1.1,0.8,1.9c-0.1,0.8,0.6,1.3,1.1,1.9
		c0.2,0.3,0.7-0.1,0.7-0.5c-0.1-0.6-0.2-1.2-0.5-1.6c-0.5-0.7-0.7-1.3-0.6-2.1c0.1-0.9-0.3-1.6-0.8-2.3c-0.6-0.8-1.1-1.6-1.4-2.6
		c-0.1-0.4-0.4-0.8-0.7-1.2c-0.4-0.7-0.8-1.5-1.3-2.1c-0.7-0.9-0.9-2.2-2.2-2.7c-0.2-0.1-0.3-0.3-0.4-0.4c-1.1-1.5-2.5-2.5-4.2-3.2
		c-0.3-0.1-0.5-0.4-0.8-0.6c-0.7-0.7-1.3-1.5-2.1-2c-0.6-0.4-1.5-0.4-2.3-0.4c-0.7,0-1,0.5-1.2,1.3c-0.1,0.5-0.4,1-0.6,1.5
		c-0.1,0.2-0.5,0.4-0.7,0.4c-0.5-0.1-1.1-0.2-1.6-0.4s-0.6,0-0.6,0.4c0,0.3,0.1,0.7,0.3,1c0.4,0.7,0.8,1.4,1.2,2.1
		c0.2,0.3,0.4,0.5,0.6,0.8c0.8,1,1.4,2,1.7,3.2c0.4,1.2,1.2,2.3,1.7,3.5c0.5,1,0.8,2.1,1.3,3.2c0.3,0.8,0.7,1.7,1,2.5
		s0.4,1.6,0.6,2.4c0.1,0.4,0.1,0.8,0.3,1.1c0.8,1.3,0.7,2.7,1,4c0.1,0.4,0.3,0.7,0.4,1c0.1,0.4,0.2,0.9,0.2,1.3
		c0.1,0.6,0.1,1.2,0.1,1.8c0,0.2,0.1,0.4,0.1,0.6c0.7,3.5,0.6,7.1,0.5,10.6c-0.1,1.5-0.1,2.9-0.2,4.4c0,0.2-0.1,0.4-0.2,0.6
		c-0.1,0.2-0.2,0.4-0.2,0.6c-0.1,0.6-0.2,1.2-0.2,1.8c-0.1,1.5-0.2,2.9-0.4,4.4c-0.1,0.5-0.3,1.1-0.4,1.6c0,0.2-0.1,0.3-0.2,0.5
		c-0.2,1.2-0.3,2.4-0.6,3.6c-0.3,1-0.7,2-1.1,3c-0.3,0.7-0.8,1.4-0.8,2.1c-0.1,0.8-0.4,1.2-0.8,1.8c-0.5,0.7-0.6,1.6-1,2.4
		c-0.2,0.5-0.6,1-0.9,1.5c-0.2,0.5-0.4,1-0.6,1.5c-0.2,0.4-0.4,0.8-0.6,1.2c-0.2,0.4-0.5,0.7-0.8,1.1c-0.7,1.1-1.4,2.1-2,3.2
		c-0.1,0.2-0.2,0.4-0.3,0.6s-0.1,0.4-0.2,0.5c-1.6,1.7-2.6,3.8-4.3,5.5c-0.5,0.4-0.7,1.1-1.1,1.6c-0.8,0.9-1.8,1.7-2.6,2.5
		c-1.3,1.3-2.5,2.7-3.7,4c-0.9,1-1.9,1.9-2.9,2.8c-0.1,0.1-0.3,0.3-0.5,0.3c-1.2,0-1.8,0.9-2.6,1.5c-1.1,0.8-2.1,1.7-3.3,2.2
		c-0.9,0.4-1.6,1.1-2.4,1.5l0,0c-1.2,0.6-2.4,1.3-3.5,1.9c-0.4,0.2-0.8,0.4-1.2,0.7c-0.6,0.4-1.2,0.7-1.9,0.7
		c-0.2,0-0.5,0.1-0.7,0.3c-0.6,0.6-1.5,0.8-2.3,1.1c-0.5,0.2-1,0.3-1.4,0.6c-0.8,0.6-1.8,0.7-2.7,1c-1.3,0.3-2.7,0.5-4,0.8
		c-1.5,0.4-3,0.8-4.6,1.1c-0.4,0.1-0.8,0.1-1.2,0.2c-0.2,0-0.5,0-0.7,0.1c-1.3,0.6-2.8,0.5-4.2,1c-0.5,0.2-1.2,0.2-1.8,0
		c-1.5-0.4-3.1-0.2-4.6-0.3c-1.2,0-2.4,0.1-3.5,0c-1.4-0.1-2.8-0.5-4.2-0.4c-1.2,0.1-2.3-0.4-3.5-0.4c-0.6,0-1.1-0.2-1.7-0.3
		c-1-0.2-2-0.4-2.9-0.6c-0.6-0.1-1.2-0.3-1.7-0.5c-0.4-0.1-0.8-0.2-1.2-0.3c-0.1,0-0.2,0-0.3,0c-0.9-0.3-1.9-0.7-2.8-1
		c-0.2-0.1-0.4-0.2-0.6-0.3c-1.3-0.5-2.6-0.9-3.9-1.4c-0.2-0.1-0.5-0.1-0.8-0.1c-0.4-0.1-0.7-0.2-1.1-0.4c-1-0.5-2-1.1-3.1-1.7
		c-1-0.6-2.1-1.1-3.1-1.6c-0.2-0.1-0.4-0.3-0.6-0.5c-0.9-0.6-1.7-1.2-2.6-1.8c-1.6-1-3.3-2-4.9-3.1c-0.7-0.5-1.2-1.2-1.8-1.8
		c-0.2-0.2-0.4-0.5-0.6-0.5c-1.1-0.4-1.7-1.2-2.3-2.1c-0.8-1.1-1.6-2.1-2.9-2.6c-0.8-0.3-1.3-1.1-1.6-2c-0.3-0.8-0.8-1.3-1.4-1.8
		c-0.6-0.5-1.1-1.2-1.6-1.8c-0.4-0.4-0.8-0.8-0.8-1.4c0-0.2-0.2-0.3-0.3-0.5c-0.8-0.8-1.3-1.7-1.8-2.6c-0.4-0.7-1-1.4-1.4-2.1
		c-0.4-0.6-0.6-1.4-1-2c-0.3-0.5-0.6-1-0.9-1.5c-0.1-0.2-0.3-0.3-0.3-0.5c-0.1-1.4-0.7-2.6-1.7-3.6c-0.7-0.7-0.8-1.6-1-2.5
		c-0.3-0.9-0.6-1.9-0.9-2.9c-0.2-0.6-0.3-1.2-0.5-1.8c-0.3-1-0.6-1.9-0.9-2.8c0-0.1-0.1-0.1-0.1-0.2c-0.2-1.2-0.7-2.4-1.1-3.5
		c-0.1-0.4-0.2-0.8-0.3-1.1c-0.1-0.4-0.2-0.9-0.2-1.3c-0.1-0.8-0.1-1.6-0.2-2.4c-0.1-0.7-0.1-1.4-0.2-2c-0.1-0.9-0.2-1.7-0.3-2.6
		c0-0.4,0-0.8,0-1.2c0-0.2,0-0.5,0-0.7c0-0.4-0.2-0.7-0.1-1.1c0.2-1.5-0.1-3-0.1-4.5c0-0.4,0.1-0.9,0.3-1.3c0.6-1.3,0.2-2.6,0-3.9
		c0-0.3-0.6-0.5-0.9-0.7c-0.8-0.3-1.6-0.4-2.4-0.7c-0.8-0.3-1.4-0.1-2.1,0.2c-0.1,0.1-0.2,0.3-0.3,0.4c-0.1,0.2-0.1,0.5-0.2,0.6
		c-0.2,0.2-0.5,0.2-0.8,0.2c0-0.2-0.1-0.4-0.1-0.6c0.1-0.2,0.3-0.4,0.4-0.6c0.2-0.4,0.4-0.8,0.6-1.1v-0.1c0.3-0.8,2.1-2,3-2
		c0.7,0.1,1.3,0.1,1.8,0.6c0.4,0.4,1,0.5,1.5,0.3c0.5-0.1,0.8-0.4,0.9-1c0.1-1.8,0.6-3.5,1.3-5.2c0.3-0.8,0.5-1.6,0.7-2.4
		c0.1-0.3,0.2-0.5,0.3-0.8c0.3-0.9,0.7-1.7,0.9-2.6c0.3-1.1,0.6-2,1.3-2.9c0.4-0.5,0.6-1.1,0.9-1.6c0.2-0.3,0.4-0.7,0.6-1
		c0.1-0.1,0.2-0.2,0.2-0.3c0-0.5,0.2-0.8,0.6-1.1C29,53,29,52.6,29,52.4c0-0.7,0.1-1.4,1-1.7c0.2-0.1,0.4-0.2,0.4-0.4
		c0.1-0.9,0.8-1.4,1.3-2.1c0.1-0.1,0.2-0.2,0.2-0.4c0.1-0.7,0.5-1.4,0.9-2c0.4-0.7,0.9-1.3,1.5-1.8c0.3-0.2,0.5-0.5,0.7-0.8
		c0.2-0.2,0.4-0.5,0.5-0.7c0.2-0.3,0.4-0.6,0.4-1c0-0.2-0.4-0.7-0.5-0.6c-1.3,0.4-2.2-0.4-3.3-0.7c-0.5-0.2-1-0.2-1.6,0
		c-0.2,0.1-0.5,0.2-0.7,0.2c-1,0-1.8,0.7-2.6,1.2c-0.5,0.4-1.1,0.6-1.6,1.1c-1.4,1.3-3.2,2.1-4.2,3.9c-0.5,0.9-1.3,1.7-1.8,2.6
		c-0.4,0.5-0.6,1.2-0.9,1.7c-0.5,0.8-1,1.6-1.4,2.4c-0.3,0.5-0.2,1.1,0,1.6c0.1,0.1,0.3,0.2,0.4,0.2c0.6,0,1.1-0.4,1.5-0.9
		c0.3-0.4,0.6-0.8,1-1.1c1-0.7,1.8-1.4,2.6-2.3c0.6-0.7,1.3-1.5,2.3-1.8c0.3-0.1,0.5-0.5,0.8-0.7c0.2-0.1,0.5-0.1,0.8-0.1
		c0,0.3,0.1,0.7-0.1,0.9c-0.3,0.5-0.7,1-1,1.5c-0.4,0.6-0.9,1.1-1.2,1.7c-0.5,0.8-0.9,1.6-1.2,2.5c-0.3,1.2-1.1,2-2,2.9
		c-0.2,0.2-0.3,0.5-0.5,0.7c-0.3,0.3-0.6,0.7-1,1c-0.1,0-0.4-0.1-0.5-0.3c-0.1-0.3-0.1-0.7-0.1-1.1c0-0.4-0.2-0.5-0.6-0.5
		c-1,0.1-1.5,0.8-1.9,1.7c-0.3,0.7-0.7,1.4-1.2,2.1c-0.2,0.3-0.3,0.7,0.1,0.9c0.4,0.3,0.6-0.1,0.8-0.3c0.4-0.6,0.8-1.1,1.5-1.3
		c0.2,0,0.4,0.1,0.6,0.1c-0.1,0.2,0,0.5-0.2,0.6c-0.7,0.6-1.2,1.4-1.4,2.4c0,0.2-0.2,0.4-0.3,0.5c-1.2,1-2.3,2.1-3.2,3.4
		c-0.4,0.7-0.9,1.3-1.4,1.9c-0.2,0.3-0.4,0.6-0.4,1c-0.2,1.1-0.5,2.2-0.6,3.3c-0.1,0.6,0,1.3,0,1.9c0,0.5,0.1,0.9,0.8,1.1
		c0.7,0.1,0.8-0.3,1-0.7c0-0.1,0.1-0.1,0.3-0.1c0,0.3,0,0.7-0.1,1c-0.4,1.3-0.9,2.5-1.3,3.8c-0.4,1.1-0.6,2.1-0.8,3.3
		c-0.1,0.7-0.6,1.4-0.9,2c-0.1,0.1-0.2,0.3-0.2,0.4c0,1.1-0.3,2.3,0.2,3.4c0.1,0.2,0,0.4,0,0.6c0,0.9-0.2,1.9-0.1,2.8
		c0.1,0.9,0.3,1.9,0.4,2.8c0.1,0.4,0,0.8,0.1,1.2c0,0.3,0.1,0.6,0.3,0.8c0.3,0.5,0.9,0.4,1.2-0.1v-0.1c0-1.7,1.2-3,1.5-4.6
		c0.1-0.4,0.5-0.8,0.6-1.2c0.3-1.3,0.9-2.4,1.5-3.6c0.1-0.3,0.2-0.7,0.2-1c0.1-0.4,0.1-0.8,0.2-1.3c0.5,0.4,0.9,0.7,0.9,1.3
		c0,0.6,0.1,1.2,0.1,1.8c0.1,1.7,0.3,3.4-0.2,5.1c-0.2,1-0.2,2-0.4,3c-0.2,1.3-0.6,2.7-0.9,4c-0.1,0.5-0.5,0.6-1,0.7
		c-0.1,0-0.4-0.2-0.4-0.4c-0.1-0.4-0.2-0.7-0.2-1.1c-0.1-0.4-0.2-0.7-0.6-0.6c-0.2,0-0.6,0.3-0.6,0.5c0,0.5,0.1,1.1,0.2,1.6
		c0,0.1,0.4,0.2,0.6,0.3c0.2,0.1,0.5,0.3,0.5,0.5c0.2,1.3,0.1,2.5-0.6,3.7c-0.8,1.5-1.1,3.2-0.8,4.9c0.2,1.1,0.7,2.1,1.1,3.1
		c0.1,0.4,0.4,0.7,0.5,1.1s0.4,0.6,0.7,0.6c0.3-0.1,0.5-0.3,0.7-0.5c1-1,1-2.2,1-3.5c0-0.1,0-0.3,0.1-0.4c0.1,0,0.1,0,0.2,0
		c0,0.9,0,1.9,0,2.8c0,2.1-0.1,4.3,0.7,6.3c0.1,0.2,0.1,0.6,0.1,0.8c0,1.8,0.7,3.4,1.7,4.9c0.6,0.9,1.1,1.8,1.7,2.7
		c0.4,0.5,0.8,1,1.2,1.5c0.1,0.1,0.5,0.3,0.6,0.2c0.2-0.1,0.5-0.4,0.4-0.6c-0.1-0.8-0.2-1.5-0.4-2.3c-0.3-0.9-0.8-1.7-1-2.6
		c-0.4-1.4-0.7-2.9-0.9-4.3c-0.2-1.5-0.2-3-0.2-4.5c0-0.6,0.1-1.1,0.2-1.7c0.1-0.5,0.4-0.5,0.7-0.2c0.2,0.2,0.4,0.4,0.4,0.7
		c0.3,1.2,1,2.1,1.6,3.1c0.7,1.2,1.4,2.4,1.2,4.1c-0.7-0.3-1.4-0.6-2.2-0.9c-0.5,0.6-0.5,1.2-0.3,1.9c0.2,0.7,0.6,1.3,0.8,2
		c0.2,0.5,0.3,1,0.5,1.5c0.3,0.9,0.7,1.8,1,2.7c0,0.1,0.1,0.1,0.2,0.2c0.6-0.5,0.7-1.1,0.5-1.8c-0.2-0.6-0.3-1.1-0.3-1.7
		c-0.1-0.4-0.1-0.9,0.5-0.9c0.5,0,0.5,0.4,0.5,0.9c0,0.3,0,0.7,0.2,0.9c0.8,0.7,0.7,1.7,0.8,2.6c0.1,0.4,0.2,0.8,0.3,1.2
		c0.2,0.8,0.4,1.6,0.5,2.4c0.1,1,0.4,1.8,0.8,2.7c0.3,0.8,0.6,1.7,0.7,2.6c0.3,2,1.3,3.6,3,4.6c0.4,0.2,0.7,0.5,1,0.7
		c0.6,0.3,1,0.1,1-0.5s-0.2-1.3-0.4-1.9c-0.2-0.6-0.5-1.1-0.8-1.7c-0.3-0.6-0.3-1,0.1-1.6c0.2-0.4,0.3-1,0.3-1.5
		c-0.2-1.7,0.4-2.3,2.1-1.8c0.9,0.3,1.2,0.9,1,1.8c-0.1,0.2-0.3,0.4-0.5,0.5c-0.4,0.3-0.9,0.4-1.3,0.7c-0.3,0.2-0.6,0.5-0.6,0.8
		c-0.1,0.8-0.3,1.7,0.5,2.3c0.2,0.1,0.2,0.4,0.2,0.6c0,0.6,0.2,1,0.6,1.4c0.8,0.8,1.3,1.8,1.6,2.9c0.2,0.8,0.8,1.2,1.4,1.7
		c0.5,0.4,1.1,0.8,1.5,1.3c0.6,0.8,1.2,1.4,2.2,1.8c0.2,0.1,0.4,0.2,0.6,0.4c0.8,0.9,1.9,1.2,2.9,1.8s2,1.3,2.9,1.9
		c0.4,0.2,0.8,0.4,1.2,0.5c0.2,0,0.5,0,0.5-0.2c0.1-0.2,0.1-0.5,0-0.6c-0.6-0.9-1.2-1.8-1.8-2.7c-0.5-0.8-0.5-1.1,0.2-1.7
		c0.6-0.6,0.6-1.3-0.1-1.8c-0.3-0.2-0.5-0.3-0.8-0.5c-0.2-0.2-0.4-0.4-0.7-0.7c-0.2,0.5-0.4,1-0.5,1.5c-0.1,0-0.1,0-0.2,0
		c-0.6-0.8-1.6-1.3-1.8-2.5c-0.1-0.4-0.3-0.8-0.5-1.1c-1-1.4-1.6-2.9-1.9-4.6c-0.1-0.3,0.1-0.7,0.3-0.9c0.3-0.3,0.7,0,0.9,0.2
		c0.9,1,1.7,2,2.6,3c0.4,0.4,0.8,0.8,1.3,1.1c0.6,0.4,1,0.8,1.2,1.5c0.2,0.5,0.5,1,0.8,1.5c0.3,0.6,0.8,1.2,0.9,1.9
		c0.2,1.2,1,2.1,1.6,3.1c0.7,1.1,1.5,2.2,2.2,3.4c0.4,0.6,0.7,1.4,1,2c0.5,1,1.3,1.6,2.2,2.2c0.7,0.4,1.3,0.9,2,1.3
		c0.7,0.4,1.4,0.7,2.2,1c0.3,0.1,0.6-0.1,0.9-0.2c-0.1-0.3,0-0.6-0.2-0.8c-0.6-0.7-1.3-1.4-2-2c-0.8-0.7-1.6-1.4-2-2.5
		s-1.1-2-2.1-2.7c-0.5-0.4-1.1-1.9-0.8-2.5c0.1-0.1,0.4-0.3,0.5-0.3c0.3,0.1,0.6,0.3,0.8,0.5c0.9,1.1,1.9,1.9,3.1,2.4
		c0.9,0.4,1.8,1,2.7,1.4c0.1,0,0.1,0.1,0.2,0.2c0.5,1.1,1.6,1.4,2.5,2c0.9,0.6,1.8,1.2,2.6,2c0.8,0.9,1.9,1.6,2.9,2.4
		c0.4,0.3,0.8,0.7,1.2,1c0.3,0.3,0.6,0.5,0.9,0.8c0.5,0.4,0.9,0.9,1.5,1.2c0.7,0.4,1.4,0.9,2.1,1.2c1,0.4,2.1,0.7,3.3,0.4
		c0.3-0.1,0.6-0.2,1-0.4c-0.4-0.3-0.6-0.6-0.9-0.8c-0.6-0.4-1.4-0.6-2-1c-1.2-0.9-2.9-1.2-3.7-2.7c-0.1-0.2-0.4-0.4-0.6-0.4
		c-1.3,0.1-2.1-0.7-2.9-1.6c-0.3-0.4-0.7-0.7-1-1.1c0.3,0.1,0.6,0.1,0.9,0.2c0.5,0.2,0.9,0.1,0.9-0.5c0-0.3-0.1-0.6-0.2-0.8
		c-0.6-0.9-1.5-1.5-2.4-1.9c-0.1,0-0.3,0.1-0.4,0.2c-0.2,0.3-0.3,0.6-0.5,1.1c-0.4-0.4-0.8-0.6-1.1-1c-0.5-0.6-1-1.1-1.7-1.4
		c-0.9-0.4-1.9-0.7-2-1.9c0-0.2-0.2-0.4-0.3-0.6c-0.6-0.7-1.1-1.4-1.7-2.2c-0.3-0.3-0.2-1.1,0.1-1.3s1,0,1.2,0.4
		c0.5,0.8,1.1,1.4,1.9,1.8c1.5,0.8,3.1,1.4,4.3,2.7c0.1,0.1,0.1,0.1,0.2,0.1c1.2,0.2,1.8,1.1,2.5,1.8c0.7,0.6,1.4,1.3,2.3,1.7
		c0.8,0.4,1.3,1.1,2,1.6c0.5,0.4,1.1,0.7,1.7,1c1,0.6,1.8,1.3,2.4,2.3c0.7,1.3,1.9,2,3.1,1.7c0.4-0.1,0.8-0.4,1.1-0.7
		c0.6-0.6,1.2-0.8,2-0.7c0.7,0.1,1.4,0,2,0c0.1,0,0.2,0.1,0.4,0.1c-0.1,0.3-0.1,0.6-0.3,0.9c-0.3,0.6-0.1,1.1,0.2,1.7
		c0.2,0.3,0.3,0.6,0.3,0.9c0.1,1.5,0.1,3.1,0,4.6c0,0.5-0.3,1-0.5,1.4s-0.4,0.9-0.2,1.4c0.3,0.5,0.8,0.5,1.2,0.4
		c1.4-0.6,2.7-0.5,4.1-0.3c0.6,0.1,1.1,0.3,1.6,0.5c0.7,0.4,1,0.4,1.5-0.2c0.4-0.5,0.6-1.4,0.2-1.8c-0.4-0.3-0.4-0.7-0.3-1.1
		c0.1-0.7,0-1.3,0-2c0.1-1.1,0.3-2.2,0.4-3.3c0.1-0.5,0.1-1,0.1-1.4c0-0.2-0.2-0.4-0.4-0.6c-0.3-0.3-0.7-0.6-1.1-1
		c0.3-0.1,0.5-0.3,0.7-0.3c0.8,0,1.7,0,2.5,0.1c0.2,0,0.5,0.2,0.6,0.4c0.4,0.7,1,1,1.7,1c0.9,0,1.4,0.6,2,0.9c0.6,0.3,1,0.4,1.5-0.1
		c0.1-0.1,0.3-0.2,0.4-0.2c1.1-0.6,1.2-1.1,0.6-2.2c-0.2-0.3-0.1-0.5,0.1-0.7c0.2-0.1,0.3-0.3,0.5-0.4c0.5-0.4,1.1-0.3,1.4,0.3
		s0.8,0.8,1.5,0.6c0.6-0.2,1.2-0.3,1.7-0.6c0.3-0.2,0.6-0.4,0.9-0.7c0.6-0.7,1.1-1.5,1-2.4c-0.2-1.3,0.5-2.1,1.2-3
		c0.5-0.7,1.2-1.1,2-1.4c0.5-0.2,1-0.6,1.4-0.9c0.3-0.2,0.6-0.5,0.9-0.7s0.6-0.2,0.8,0.1c0.2,0.2,0.3,0.6,0.2,0.8
		c-0.2,0.4-0.5,0.7-0.8,1s-0.7,0.6-0.8,0.9c-0.2,0.8-0.7,1.3-1.3,1.8c-0.3,0.3-0.6,0.5-0.8,0.8c-0.5,0.6-0.4,1.3,0.4,1.6
		c0.3,0.1,0.5,0.2,0.8,0.4c-1.3,0.8-2.7,1.5-4,2.3c-0.4,0.3-0.8,0.7-1.1,1.2c0,0.1,0.1,0.4,0.2,0.4c1.1,0.1,2.3,0.3,3.3-0.3
		c0.9-0.6,1.9-1.1,3.1-1.1c0.9,0,1.3-0.6,1-1.4c-0.4-1.3,0.1-2.2,1-3c1-0.8,1.9-1.7,2.8-2.6c0.2-0.2,0.3-0.4,0.4-0.6
		c0.3-0.6,0.9-0.8,1.5-0.7c0.4,0,0.6,0.3,0.5,0.7c-0.2,0.7-0.3,1.3-0.6,1.9c-0.1,0.2-0.4,0.4-0.6,0.5c-0.5,0.4-1,0.8-1.4,1.3
		c-0.3,0.4-0.2,0.8,0.2,1c0.4,0.2,1,0.4,1.4,0.3c1.3-0.4,2.5-0.8,3.5-1.8c0.1-0.1,0.3-0.2,0.5-0.3c0.5-0.4,0.9-0.8,1.1-1.5
		c0.3-1,0.6-2.1,1.5-2.8c0.4-0.3,0.7-0.6,1.3-0.3c1,0.6,2.1,0.2,2.9-0.7c0.3-0.4,0.6-0.9,0.8-1.4c0.2-0.6,0.7-0.7,1.1-0.7
		c0.5,0,0.4,0.4,0.6,0.8c0.2,0.5,0.5,1,0.8,1.4s0.4,0.7,0.1,1.1c-0.6,0.7-1.1,1.4-1,2.4c0,0.5-0.8,1.1-1.3,1.2
		c-0.3,0.1-0.7,0.1-1,0.1c-0.1,0-0.3,0-0.4,0.1c-0.6,0.2-1.1,0.6-1.1,1c0,0.3,0.8,1.1,1.3,1c0.8,0,1.6-0.1,2.3-0.3
		c0.6-0.2,1.1-0.1,1.6,0c0.3,0.1,0.6,0,0.8,0c0.5-0.1,1.1-0.2,1.6-0.4c0.7-0.3,1.4-0.5,2.2-0.6c0.6,0,1.1-0.7,1-1.2
		c-0.1-0.4-0.6-0.6-1.2-0.6c-0.7,0.1-1.4,0.1-2.2,0c-0.2,0-0.6-0.3-0.6-0.4c0-0.3,0.1-0.7,0.3-0.8c0.8-0.4,1.6-0.6,2.5-0.6
		c1.1,0.1,2.1-0.1,3.2-0.2c1.2-0.1,2.5-0.1,3.7-0.3c0.5,0,1-0.2,1.5-0.3c0.3-0.1,0.7-0.2,1.1-0.2c1.1-0.1,2.2-0.3,3.3-0.4
		c0.5,0,1.1,0,1.7,0.1c0.6,0.1,0.7,0.7,0.2,1s-1,0.7-1.5,0.8c-1.8,0.3-3.6,0.9-5.2,1.8c-0.1,0.1-0.3,0.1-0.4,0.1
		c-2.5,0.4-4.6,1.6-7,2.3c-0.4,0.1-0.8,0.5-1.3,0.6c-1,0.3-2,0.3-3.1,0.1c-0.4-0.1-0.9-0.1-1.2,0c-1.6,0.6-3.2,0.7-4.8,0.2
		c-0.5-0.1-1.1-0.1-1.7-0.1c-1.5,0.2-3.1,0.4-4.6,0.7c-0.4,0.1-0.8,0.4-1.3,0.5c-0.8,0.3-1.6,0.7-2.4,0.9c-1.8,0.3-3.3,1.1-4.8,2
		c-0.4,0.3-0.9,0.4-1.3,0.7c-0.2,0.2-0.5,0.4-0.6,0.7c0,0.2,0.3,0.4,0.5,0.7c0.1,0.2,0.5,0.4,0.4,0.5c-0.1,0.3-0.4,0.6-0.6,0.6
		c-1,0.1-2,0.1-3,0.2c-0.5,0-0.9,0-1.4,0.1c-0.2,0.1-0.5,0.3-0.5,0.5c0,0.3,0.2,0.7,0.4,0.8c0.7,0.3,1.5,0.5,2.2,0.7
		c0.4,0.1,0.8,0.3,1.2,0.4c0,0.1,0,0.2,0,0.3c-0.4,0.1-0.8,0.3-1.3,0.3c-1.4,0.1-2.6-0.4-3.9-0.8c-1.3-0.5-2.6-0.6-4-0.9
		c-0.7-0.1-1.4-0.3-2-0.5c-0.7-0.3-1.4-0.4-2.2-0.2c-0.6,0.2-1.1,0.4-1.7,0.7c-0.3,0.2-0.3,0.5,0,0.7s0.6,0.5,0.9,0.6
		c1.3,0.2,2.6,0.3,3.8,0.4c0.1,0,0.2-0.1,0.3,0c1.4,0.4,2.8,0.7,4.1,1.3c1.1,0.5,2.1,0.7,3.3,0.8c0.7,0.1,1.3,0.6,1.9,0.9
		c0.1,0.1,0.2,0.4,0.1,0.4c-0.1,0.1-0.3,0.3-0.5,0.2c-1.2-0.2-2.4-0.5-3.6-0.7c-0.4-0.1-0.8,0-1.2,0c-0.4,0-0.5,0.3-0.3,0.6
		c0.1,0.2,0.3,0.4,0.5,0.5c0.6,0.3,1.3,0.5,1.9,0.8c0.4,0.2,0.7,0.4,1.1,0.6c0.8,0.4,1.5,0.7,2.3,1.1c0.4,0.2,0.8,0.3,1.1,0.5
		c0.3,0.1,0.5,0.3,0.8,0.3c1,0.2,2,0.4,2.9,0.6c0.6,0.1,1.2,0.4,1.7,0.6c0.9,0.2,1.7,0.3,2.6,0.3c0.5,0,1-0.7,1.1-1.4
		c0.1-0.9,0.1-0.9,0.8-0.5c0.2,0.1,0.5,0.1,0.7,0.1c0.6,0.1,1.2,0.2,1.8,0.3c1.3,0.2,2.5,0.4,3.8,0.5c1,0.1,1.5,0.9,0.9,1.8
		c-0.1,0.2-0.4,0.3-0.6,0.3c-1.6,0.2-3.2,0.4-4.9,0.3c-1-0.1-2.1,0.1-3.1,0.1c-1.7,0-3.4,0-5-0.6c-0.4-0.1-0.8,0-1.2-0.1
		c-0.4-0.1-0.9-0.3-1.3-0.5c-0.8-0.4-1.5-1-2.3-1.2c-1.5-0.4-2.8-1.1-4.1-1.9c-0.3-0.2-0.7-0.4-1-0.4c-1,0-1.6-0.6-2.3-1.1
		c-0.3-0.2-0.6-0.5-1-0.7c-0.9-0.4-1.8-0.8-2.7-1.2c-0.9-0.4-1.7-0.8-2.6-1.2c-0.5-0.2-1.2,0.2-1.4,0.9c-0.1,0.4-0.3,0.7-0.5,1
		c-0.4,0.6-1,0.8-1.7,0.8c-0.3,0-0.6,0.1-0.8,0.3c-0.4,0.3-0.8,0.3-1.1,0.1c-0.7-0.3-1.5-0.3-2-1.1c0-0.1-0.2-0.1-0.4-0.1
		c-1.3,0.1-2.7,0.1-4,0.2c-0.3,0-0.6,0.2-0.7,0.4c-0.5,0.5-0.9,0.7-1.7,0.5c-0.7-0.2-1.4-0.1-2.1,0c-1,0.2-2.3-0.8-2.3-1.8
		c0-0.7-0.3-1.2-0.9-1.5s-1.1-0.1-1.6,0.3c-1.6,1-3.1,2-4.7,3c-0.3,0.2-0.6,0.2-0.9,0.3c-0.3,0.2-0.6,0.5-0.9,0.7
		c-0.2,0.2-0.4,0.4-0.6,0.6c-0.9,0.6-1.8,1.3-2.7,1.9c-0.2,0.2-0.5,0.3-0.8,0.4c-0.4,0.2-0.8,0.5-1.2,0.7c-0.1,0.1-0.3,0.2-0.4,0.2
		c-1,0.3-2,0.7-3,0.9c-1.2,0.3-2.3,0.5-3.5,0.7c-0.2,0-0.4-0.1-0.6,0c-0.5,0.1-1.1,0.2-1.6,0.4c-1,0.4-2,0.6-3,0.3
		c-0.4-0.1-0.5-0.5-0.5-0.9s0.2-0.7,0.6-0.8c1.2-0.2,2.3-0.6,3.3-1.4c0.5-0.4,1.1-0.5,1.6-0.8c0.7-0.4,1.7-0.6,2-1.6
		c0.2-0.4,0.8-0.7,1.2-1.1c0.6-0.4,1.2-0.8,1.8-1.2c0.5-0.4,1-0.9,1.5-1.3c0.1-0.1,0.2-0.1,0.2-0.2c0.7-0.2,1.5-0.4,2.1-0.7
		c1.1-0.6,2.3-0.6,3.5-0.7c0.1,0,0.2,0,0.2-0.1c1.1-0.8,2.5-0.6,3.7-1c0.7-0.2,1.5-0.4,2.2-0.7c0.3-0.1,0.6-0.5,0.6-0.7
		s-0.3-0.5-0.6-0.6c-1-0.6-2-0.5-3.1-0.3c-1.2,0.3-2.4,0.2-3.6,0.3c-0.8,0.1-1.5,0.3-2.3,0.5c-0.3,0.1-0.6,0.2-1,0.3
		c-0.8,0.2-1.7,0.4-2.5,0.7c-1.1,0.3-2.2,0.7-3.3,0.8c-1.2,0.1-2.3,0-3.5,0c-0.5,0-1,0-1.6,0c-1.2,0-2.4,0.1-3.6,0
		c-0.9-0.1-1.7-0.4-2.5-0.7c-1.2-0.5-2.3-1-3.5-1.5c-0.1-0.1-0.3-0.1-0.4-0.3c-0.2-0.2-0.4-0.5-0.6-0.8c0.3-0.2,0.6-0.5,0.9-0.5
		c1.3-0.1,2.5-0.2,3.8-0.3c0.9,0,1,0.1,1.2,1c0.1,0.7,0.5,1,1.2,1.2c2.5,0.7,5,0.6,7.5,0.5C63.8,171.4,64.5,171.2,65,170.4z
		 M154.7,95.2c1.1-0.5,1.1-0.5,0.7-1.5c-0.1-0.2-0.2-0.5-0.3-0.7c0-0.2-0.1-0.4,0-0.5c0.5-0.6,0.5-1.4,0.5-2.1s0.1-1.4,0.2-2.1
		c0-0.3,0.1-0.7,0-1c-0.2-1.4-0.3-2.7,0.1-4c0.2-0.6,0-1.3,0-2c-0.1-1-0.2-1.9-0.3-2.9c-0.1-1.1-0.3-2.3-0.4-3.4
		c-0.1-0.4-0.2-0.8-0.2-1.2c-0.1-0.6-0.1-1.2-0.3-1.8c-0.3-1-0.6-2.1-0.9-3.1c-0.5-1.4-1-2.7-1.3-4.1c0-0.2-0.1-0.3-0.2-0.5
		c-0.2-0.4-0.4-0.9-0.6-1.3c-0.3-0.9-0.5-1.9-0.9-2.8c-0.9-1.7-1.9-3.4-2.8-5.1c-0.3-0.5-0.5-1-0.7-1.5c-0.3-0.7-0.4-1.4-0.9-2
		c-0.8-1.1-1.9-2.1-2.5-3.4c0-0.1-0.1-0.1-0.2-0.2c-0.5-0.6-1-1.2-1.5-1.8c-0.6-0.8-1.1-1.6-1.7-2.3c-0.7-0.8-1.6-1.4-2.1-2.2
		c-1.3-1.8-2.9-3.2-4.5-4.6c-1-0.8-2-1.6-3-2.4c-1.6-1.3-3.2-2.5-4.9-3.8c-0.5-0.4-1.2-0.7-1.7-1c-0.9-0.6-1.8-1.2-2.7-1.7
		c-1.2-0.6-2.4-1.1-3.7-1.7c-0.6-0.3-1.1-0.6-1.7-0.8c-0.3-0.1-0.6-0.2-0.8-0.3c-0.6-0.2-1.2-0.3-1.7-0.6c-1.3-0.7-2.7-1.1-4.1-1.5
		c-0.8-0.3-1.8-0.2-2.6-0.4c-1.5-0.3-2.9-0.6-4.4-1c-0.1,0-0.2-0.1-0.3-0.1c-0.7-0.5-1.5-0.6-2.4-0.7c-0.4,0-0.8,0.1-1.1-0.1
		c-0.6-0.4-1.3-0.4-2-0.4c-1.3-0.1-2.6,0.3-3.9-0.2c-0.1,0-0.2,0-0.2,0c-0.7-0.1-1.5-0.1-2.2-0.2c-0.4,0-0.9-0.3-1.2-0.2
		c-1,0.2-2.1-0.2-3,0.4c-0.1,0.1-0.3,0-0.4,0c-0.6,0-1.3-0.1-1.9,0c-1.5,0.1-2.9,1-4.5,0.7c-0.1,0-0.2,0-0.2,0
		c-2,0.4-3.9,0.8-5.9,1.2c-0.4,0.1-0.7,0.2-1,0.4c-0.9,0.6-1.8,0.9-2.9,0.9c-0.3,0-0.6,0.1-0.9,0.2c-1,0.4-2,0.8-3.1,1.1
		c-0.7,0.2-1.2,0.6-1.8,0.9c-0.8,0.4-1.7,0.7-2.5,1c-0.2,0.1-0.4,0.2-0.6,0.3c-1.1,0.6-2.2,1.2-3.3,1.7c-0.9,0.3-1.7,0.8-2.3,1.5
		c-0.6,0.6-1.2,1.1-2,1.4c-0.3,0.1-0.6,0.2-0.9,0.4c-0.6,0.4-1.4,0.7-1.8,1.2c-0.6,0.7-1.2,1.3-2,1.6c-0.2,0.1-0.3,0.2-0.5,0.4
		c-1,0.8-1.8,1.7-2.8,2.2c-0.9,0.4-1.5,1.2-2,2c-0.3,0.4-0.6,0.8-1,1.2c-1.1,1.1-2.4,1.9-3,3.4c0,0.1-0.1,0.1-0.1,0.2
		c-0.7,0.8-1.5,1.6-2.2,2.4c-0.5,0.6-1.1,1.2-1.5,1.9c-0.3,0.4-0.3,0.9-0.6,1.3c-1,1.4-1.8,3-3.1,4.2c-0.2,0.2-0.3,0.6-0.3,0.9
		c-0.1,0.4,0.1,0.7,0,1.1c-0.2,0.7-0.4,1.5-0.9,2c-0.4,0.5-0.8,0.9-1.1,1.4c-0.2,0.4-0.5,0.7-0.7,1.1c-0.3,0.4-0.5,0.8-0.7,1.3
		c-0.3,1-0.6,2-0.9,3c-0.6,1.8-1.1,3.5-1.7,5.3c-0.5,1.6-0.9,3.1-0.8,4.8c0,0.2,0,0.5-0.1,0.7c-0.2,1.2-0.4,2.4-0.6,3.6
		c-0.1,0.6-0.2,1.3-0.2,2c-0.1,1.2-0.1,2.4-0.1,3.6c0,0.5,0.1,1.1,0,1.5c-0.3,1.5-0.4,3,0.1,4.5c0.2,0.4,0.2,0.9,0.2,1.4
		c0,1.8,0.1,3.5,0.7,5.2c0.1,0.4,0.1,0.8,0.2,1.1c0.3,1.6,0.6,3.3,1,4.9c0.3,1.1,0.8,2.1,0.9,3.1c0.2,1,0.7,1.8,1.3,2.6
		c0.1,0.1,0.2,0.3,0.3,0.5c0.3,0.9,0.4,1.9,0.7,2.8c0.3,0.9,0.7,1.7,1.1,2.5s0.9,1.5,1.3,2.3c0.4,0.7,0.8,1.5,1.2,2.2
		c0.6,0.9,1.2,1.8,1.8,2.8c0.5,0.8,1.1,1.6,1.6,2.4c0.2,0.3,0.6,0.6,0.8,0.9c0.8,1.3,1.6,2.4,2.8,3.4c0.9,0.8,1.5,1.7,2.3,2.6
		c0.3,0.3,0.6,0.6,0.9,0.8c0.6,0.5,1.3,1,1.9,1.6c0.9,1,1.8,1.8,2.9,2.4c1.3,0.7,2.5,1.5,3.4,2.7c0.3,0.4,0.6,0.8,1,0.9
		c2.1,0.9,3.8,2.4,5.8,3.4c0.7,0.4,1.3,0.7,2,1c0.9,0.4,1.8,0.6,2.7,0.9c0.1,0,0.1,0.1,0.2,0.1c0.3,0.1,0.7,0.3,1,0.4
		c0.7,0.4,1.5,0.7,2.2,1.1c0.4,0.2,0.9,0.4,1.4,0.5c0.4,0.1,0.8,0.2,1.2,0.3c0.9,0.3,1.7,0.7,2.6,1c0.4,0.2,0.9,0.2,1.3,0.4
		c0.5,0.3,1.1,0.3,1.6,0.2c0.3,0,0.6,0,0.9,0c0.3,0.1,0.6,0.2,0.9,0.2c0.9,0.2,1.9,0.5,2.8,0.7c1.2,0.2,2.3,0.4,3.5,0.6
		c0.1,0,0.2,0,0.3,0c0.7,0,1.3,0,2,0.1c0.4,0,0.9,0.3,1.3,0.3c3,0,6-0.1,9-0.2c0.7,0,1.5,0.1,2.2-0.5c0.1-0.1,0.3,0,0.5,0
		c0.6,0,1.3,0.1,1.9,0s1.2-0.4,1.9-0.6c0.8-0.2,1.6-0.3,2.3-0.4c0.4-0.1,0.9-0.1,1.3-0.3c0.6-0.2,1.1-0.3,1.7-0.5
		c0.4-0.1,0.9-0.3,1.3-0.4c0.3-0.1,0.6-0.2,0.9-0.3c0.2,0,0.3,0,0.5,0c1-0.3,2-0.7,3.1-0.9c1.2-0.2,2.2-0.8,3.3-1.3
		c0.9-0.4,1.8-0.9,2.7-1.4c0.3-0.2,0.7-0.3,1-0.6c0.6-0.4,1-0.8,1.8-0.9c1.5,0,2.7-0.6,3.2-2.2c0.2-0.5,0.5-0.8,1.1-1.1
		c0.9-0.3,1.9-0.7,2.7-1.2c1.3-0.9,2.5-1.9,3.7-2.9c1.7-1.5,3.5-2.8,5-4.6c0.9-1,1.8-2,2.7-3.1c1.2-1.4,2.3-2.8,3.5-4.1
		c0.5-0.6,1.2-1.2,1.6-1.8c1.1-1.6,2.1-3.3,3.1-5c0.1-0.1,0.2-0.2,0.3-0.4c0.2-0.3,0.3-0.6,0.5-0.9c0.1-0.2,0.1-0.5,0.2-0.7
		c0.6-1.7,1.8-3.2,2.1-5c0-0.1,0.1-0.2,0.1-0.3c0.5-1,1.1-1.9,1.6-2.9c0.1-0.2,0.1-0.5,0.2-0.8c0.3-1.2,0.4-2.4,0.9-3.5
		c0.7-1.6,1-3.2,1.4-4.9c0.1-0.3,0-0.7-0.2-0.9c-0.5-0.5-0.5-0.9-0.3-1.5c0.1-0.5,0.1-0.9,0.1-1.4c0-0.1,0-0.2,0-0.3h0.1
		C154.4,94.3,154.6,94.7,154.7,95.2z M73.4,174.4v-0.1c-0.4,0.1-0.8,0.2-1.2,0.3c-0.7,0.4-1.5,0.8-2.2,1.2c-0.8,0.4-1.6,0.8-2.4,1.3
		c-0.7,0.5-1.1,1.2-1.9,1.5c-0.2,0.1-0.3,0.3-0.4,0.4c-0.1,0.1-0.2,0.3-0.3,0.3c-0.8,0.1-1.1,0.8-1.5,1.2c-0.2,0.2-0.2,0.7-0.2,1
		c0,0.1,0.5,0.2,0.8,0.2c0.4,0,0.8,0,1.1-0.1c1-0.2,2-0.4,2.7-1.2c0.2-0.3,0.6-0.5,1-0.7c0.6-0.3,1.2-0.6,1.7-0.9
		c0.4-0.2,0.7-0.5,1.1-0.8c0.9-0.6,1.8-1.3,2.6-2c0.4-0.3,0.6-0.9,0.4-1.4s-0.7-0.4-1.2-0.4C73.5,174.4,73.5,174.4,73.4,174.4z
		 M64.2,7.6c0.7,0.4,2,0.5,2.9,0.1c1.4-0.6,3-0.6,4.5-0.6C73.7,7,75.7,7,77.8,6.9c0.2,0,0.5-0.1,0.7-0.3c0.4-0.3,0.4-0.5-0.1-0.8
		c-1.4-0.9-3-0.8-4.5-0.6c-0.5,0.1-0.9,0-1.4,0.1c-0.4,0-0.9,0-1.3,0.1c-1.4,0.3-2.8,0.9-4.3,0.7c-0.1,0-0.2,0-0.3,0.1
		C65.7,6.5,65,7,64.2,7.6z M68.8,165.2c-0.2-0.3-0.2-0.5-0.3-0.6c-0.6-1.3-1.4-2.3-2.6-3.1c-0.9-0.7-2-1.1-2.6-2.2
		c-0.2-0.4-0.6-0.6-1.1-0.6c-0.2,0-0.4-0.2-0.6-0.3c-0.4-0.2-0.7-0.5-1.1-0.6c-0.6-0.3-1-0.2-1.4,0.3s0.1,0.7,0.3,0.9
		c0.7,0.7,1.4,1.4,2.2,1.8c0.5,0.3,1.1,0.5,1.6,1c0.3,0.3,0.7,0.5,1,0.7c0.5,0.4,1.2,0.8,1.6,1.3c0.5,0.8,1.2,1.1,2.1,1.4
		C68.1,165.3,68.4,165.2,68.8,165.2z M157.4,131.1c-0.1,0.5-0.2,1-0.3,1.5s0.1,0.8,0.7,0.8c1-0.2,1.8-1.2,1.9-2.1
		c0-1,0.1-1.9,0.2-2.9c0-0.1,0-0.2,0.1-0.2c0.5-0.6,0.4-1.3,0.2-2c-0.1-0.5-0.5-0.9-1-0.8c-0.4,0.1-1,0.5-1.1,0.9
		C157.7,127.8,157.1,129.4,157.4,131.1z M161.8,58.9c-0.7,0.1-0.9,0.3-0.7,0.6c0.7,1.2,1.1,2.4,2.1,3.4c0.1,0.1,0.2,0.3,0.3,0.5
		c0.4,1,0.8,2,1.2,3c0.1,0.2,0.2,0.4,0.3,0.5c0.5,0.2,1,0.5,1.4,0.4c0.6-0.1,0.7-0.8,0.2-1.5c-0.6-1-1.2-1.9-1.8-2.9s-1.1-2-1.8-2.9
		C162.8,59.6,162.2,59.3,161.8,58.9z M148.5,36.1c-1-1-1.9-1.9-3.1-2.5c-0.8-0.3-1.5-0.8-2.2-1.2c-0.6-0.4-1.2-0.8-1.9-1.1
		c-0.3-0.1-0.8,0-1.2,0.1c0.1,0.3,0.2,0.7,0.4,0.9c1.5,1.3,2.9,2.6,4.8,3.3c0.4,0.2,0.8,0.4,1.2,0.6
		C147.2,36.5,147.8,36.5,148.5,36.1z M10.4,61.6c0.8-0.5,1.3-1.3,1.3-2.2c0-1.7-0.1-3.4-0.1-5.1c0-0.3-0.2-0.6-0.3-1
		C10.1,54.4,9.6,60.6,10.4,61.6z M170.3,102.1c0-0.1,0-0.2,0-0.3c-0.6-1.4-1.2-2.8-1.9-4.2c-0.1-0.1-0.3-0.2-0.4-0.2
		c-0.1,0.2-0.2,0.3-0.2,0.5c0.2,0.7,0.3,1.4,0.3,2.1c0,0.9,0.3,1.8,0.5,2.8c0.1,0.6,0.3,1.2,0.5,1.8c0.1,0.2,0.4,0.3,0.7,0.4
		c0.1-0.3,0.4-0.6,0.3-0.8c-0.2-0.5-0.1-0.9,0-1.3C170.3,102.6,170.3,102.4,170.3,102.1z M41.9,26.5c-1.5,0.1-2.6,0.8-3.8,1.4
		c-0.3,0.1-0.5,0.4-0.7,0.6c-0.3,0.3-0.4,0.9-0.2,1c0.6,0.2,1.1,0.3,1.7,0c0.5-0.2,1-0.5,1.5-0.6c0.9-0.1,1.4-0.6,1.9-1.3
		c0.2-0.2,0.3-0.6,0.2-0.7C42.4,26.6,42.1,26.6,41.9,26.5z M8.3,106c0-0.4,0.1-0.8,0-1.1c-0.3-0.8-0.6-1.6-1-2.4
		c-0.1-0.3-0.3-0.6-0.5-0.7c-0.3-0.2-0.7-0.2-1-0.2c-0.1,0-0.3,0.4-0.3,0.6C6.2,103.6,6.5,105.2,8.3,106z M128.2,19.6
		c-0.3-0.1-0.4-0.2-0.6-0.2c-0.8-0.1-1.5-0.2-2.2-0.7c-0.1-0.1-0.3-0.1-0.4-0.1c-0.7,0-1.4-0.1-2.1-0.1c-0.3,0-0.8-0.4-0.9,0.2
		c-0.1,0.5,0.5,0.4,0.8,0.4c1,0,1.9,0.1,2.8,0.7C126.4,20.2,127.2,20,128.2,19.6z M83.8,167c0.4,0.4,0.6,0.6,0.8,0.9
		c0.2-0.2,0.5-0.4,0.4-0.5c-0.1-0.3-0.4-0.6-0.5-1C84.3,166.5,84.2,166.7,83.8,167z M109.8,8.7c-0.2,0.1-0.4,0.2-0.5,0.3
		c0.1,0.1,0.2,0.3,0.3,0.4c0.2,0.1,0.3,0.3,0.5,0.3c0.2,0.1,0.4,0,0.7,0.1c-0.1-0.2-0.1-0.5-0.2-0.6C110.4,9,110.1,8.9,109.8,8.7z
		 M25.4,132.4c-0.1,0.2-0.3,0.4-0.3,0.5s0.2,0.2,0.3,0.4c0.1-0.1,0.2-0.2,0.2-0.3C25.6,132.7,25.5,132.6,25.4,132.4z M172.2,60
		c0.1,0,0.2,0,0.3,0c0-0.3,0-0.5,0-0.8c-0.1,0-0.2,0-0.2,0C172.2,59.5,172.2,59.8,172.2,60z"/>
	<path d="M118.9,168c0.4-0.1,0.8-0.2,1.3-0.2c0.9,0,1.8,0,2.6,0c0.4,0,0.8,0.3,1.2,0.4c0.1,0.1,0.3,0.2,0.4,0.2
		c0.9,0,1.9-0.1,2.8-0.1c1.1,0,2.3,0,3.4,0.1c1.3,0.2,2.5,0,3.8,0c0.9,0,1.8,0.3,2.6,0.5c0.6,0.2,0.6,0.9,0,1.3
		c-0.1,0.1-0.3,0.2-0.4,0.2c-1.2,0.1-2,0.8-3,1.3c-0.4,0.2-0.8,0.3-1.3,0.3c-1,0.1-1.9,0.2-2.7,1.1c-0.7,0.8-2.1,0.7-2.9-0.1
		c-0.2-0.2-0.5-0.3-0.9-0.5c0.5-0.1,0.8-0.2,1.2-0.3c1,0,1.8-0.5,2.6-1c0.3-0.2,0.5-0.6,0.5-0.9c0-0.2-0.5-0.5-0.8-0.5
		c-0.7-0.1-1.4-0.2-2.1-0.3c-0.3,0-0.7-0.1-1-0.2c-0.1,0-0.3-0.1-0.4-0.1c-0.6,0.3-1.1,0-1.6-0.2c-0.3-0.1-0.7,0-1.1,0
		s-0.8,0.2-1.2,0.1c-0.7,0-1.4-0.1-2-0.2c-0.5-0.1-0.8-0.5-1.3-0.7C118.8,168.2,118.9,168.1,118.9,168z"/>
	<path d="M43.7,8.1c-1,1.2-1.1,2.6-1.6,3.8s-0.8,2.5-1.8,3.4c-0.7,0.7-1.5,1.4-1.4,2.6c0,0,0,0,0,0.1
		c-0.9,0.6-0.8,1.8-1.5,2.5c-0.1,0.1-0.4,0.1-0.5,0c-0.4-0.3-0.4-0.9-0.1-1.3c0.5-0.6,1-1.1,1.4-1.8c0.3-0.6,0.5-1.4,0.6-2.1
		c0.1-0.4-0.5-0.7-1-0.4c-0.6,0.3-1.1,0.8-1.6,1.3c-0.2,0.1-0.4,0.2-0.5,0.4c-0.1-0.3-0.2-0.6-0.1-0.8c0.4-0.6,0.9-1.2,1.4-1.7
		c0.3-0.3,0.5-0.6,0.8-0.9c0.2-0.2,0.4-0.5,0.5-0.7c0-0.1,0.1-0.1,0.2-0.2c0.8-1,1.5-2,2.4-2.9c0.5-0.5,1.1-0.9,1.8-1.3
		C42.9,7.8,43.3,8,43.7,8.1z"/>
	<path d="M139.4,144.5c-0.2,0.3-0.4,0.4-0.5,0.5s-0.3,0.1-0.4,0.1c0-0.1-0.1-0.4,0-0.4c0.7-0.7,0.8-1.6,1.3-2.4
		c0.7-1.1,0.8-2.3,1.2-3.4c0.3-0.7,0.7-1.4,1.1-2.1c0.2-0.3,0.4-0.2,0.5,0c0.4,0.7,0.8,1.3,0.4,2.1c-0.2,0.3-0.2,0.7-0.2,1
		c-0.2,2.2-1.1,4.3-2.1,6.3c-0.2,0.5-0.3,1-0.5,1.5c-0.1,0.2-0.3,0.3-0.4,0.4c0-0.2-0.1-0.3-0.1-0.5
		C139.9,146.6,139.9,145.6,139.4,144.5z"/>
	<path d="M149.2,142.6c-0.3-0.5-0.2-0.9,0-1.3c0.5-1.3,0.7-2.7-0.3-3.9c-0.5-0.6-0.7-1.3-0.7-2c0-0.8,0.5-1.2,1.3-1.1
		c1.2,0.1,2.1,1.3,2.1,2.5c0,1.6-0.7,3-1.3,4.4C150,141.7,149.5,142.1,149.2,142.6z"/>
	<path d="M161,149.2c-0.2,1.1-0.3,1.1-1.2,1.3c-1.4,0.3-2.2-0.3-2.8-1.5c-0.4-0.8-1.1-1-2-0.8c-0.5,0.1-0.9,0.1-1.4,0
		c-0.2,0-0.4-0.2-0.4-0.3c0-0.2,0.2-0.4,0.3-0.5c0.2-0.1,0.5-0.1,0.8-0.2c0.5-0.1,1-0.2,1.4-0.3c0.1,0,0.3,0,0.4,0
		c0.4,0.1,0.9,0.3,1.3,0.4c1.1,0.1,2.1,0.3,3,0.8C160.7,148.4,160.8,148.8,161,149.2z"/>
	<path d="M17.2,110.3c-0.5-0.4-0.8-1.2-0.4-1.8c0.5-0.8,1.1-1.7,1.8-2.3c0.6-0.6,1.5-0.3,1.8,0.5
		c0.2,0.5,0.2,1.1,0.3,1.6c0,0.7-0.2,0.9-0.9,1c-0.3,0-0.5,0-0.8,0C18.2,109.5,17.5,109.4,17.2,110.3z"/>
	<path d="M116.7,171.8c0.1,0,0.2-0.1,0.2,0c1.9,0.6,3.8,0.4,5.7,0.7c0.6,0.1,1.2,0.2,1.8,0.4c0.2,0.1,0.5,0.3,0.6,0.5
		c0,0.1-0.2,0.5-0.4,0.6c-0.3,0.1-0.7,0.2-1,0.2c-0.9-0.1-1.7-0.4-2.5-0.5c-0.1,0-0.3,0-0.4-0.1c-0.9-0.6-1.9-0.4-2.8-0.4
		C117.1,173.1,116.6,172.6,116.7,171.8z"/>
	<path d="M119.1,178.4c-0.7-0.3-1.3-0.5-1.8-0.8s-0.9-0.6-1.3-1c-0.1-0.1-0.1-0.4-0.1-0.6c0.2,0,0.4-0.1,0.5-0.1
		c0.8,0.3,1.6,0.6,2.4,0.9c0.6,0.2,0.7,0.6,0.8,1.1C119.6,177.9,119.3,178.1,119.1,178.4z"/>
	<path d="M124,178.7c-0.1,0.1-0.1,0.2-0.2,0.2c-0.4,0.3-2.5,0.2-2.9-0.2c-0.1-0.1-0.2-0.5-0.1-0.6
		c0.2-0.2,0.5-0.4,0.8-0.3c0.8,0.2,1.5,0.5,2.3,0.7C123.9,178.5,123.9,178.6,124,178.7z"/>
	<path d="M41,158.3c-0.5,0.5-1,0.3-1.5,0.2c-0.1,0-0.2-0.2-0.2-0.2c0-0.1,0.1-0.3,0.2-0.3
		C40.1,157.8,40.6,157.9,41,158.3z"/>
	<path d="M16.2,112.2c0-0.4,0-0.8,0-1.2c0-0.1,0.3-0.2,0.4-0.3c0.1,0.1,0.2,0.3,0.2,0.4c-0.1,0.4-0.2,0.8-0.3,1.1
		C16.4,112.2,16.3,112.2,16.2,112.2z"/>
	<path d="M91.6,165.1c-0.5-0.3-0.8-0.5-1.2-0.7v-0.1c0.4,0.1,0.7,0.1,1.1,0.2C91.6,164.5,91.5,164.8,91.6,165.1z"/>
	<path d="M132.9,151.7c0,0.2,0,0.5-0.1,0.7c0,0-0.2,0-0.3,0c0-0.2,0.1-0.5,0.1-0.7C132.7,151.7,132.8,151.7,132.9,151.7
		z"/>
	<path d="M90.8,36.4c0.9,0,1.9-0.1,2.8,0c0.7,0.1,1.4,0.3,2.2,0.4c0.6,0.1,1.2,0.2,1.8,0.3c1,0.2,2,0.4,3.1,0.6
		c1.4,0.3,2.8,0.5,4.2,0.9c0.7,0.2,1.5,0.4,2.2,0.7c1.2,0.5,2.4,0.9,3.6,1.5c1.4,0.7,2.7,1.5,4.1,2.3c0.6,0.3,1.2,0.5,1.8,0.9
		c0.5,0.3,1,0.7,1.5,1.1l0.1,0.1c1.7,1.2,3.4,2.3,5.1,3.5c0.3,0.2,0.5,0.5,0.7,0.8c0.7,0.8,1.3,1.5,2,2.3c0.7,0.7,1.5,1.4,2,2.3
		c0.4,0.7,1,1.3,1.6,2c0.6,0.6,1.1,1.2,1.4,2.1c0.2,0.6,0.8,1.2,1.2,1.7c0.3,0.4,0.6,0.9,0.9,1.3c0.2,0.2,0.2,0.6,0.4,0.8
		c1,0.9,1.3,2.2,1.8,3.4c0.6,1.5,1.3,3,1.7,4.5c0.2,1,0.7,1.9,1.1,2.9c0.2,0.5,0.3,1,0.4,1.5c0.2,1,0.4,2,0.6,3
		c0,0.2,0.1,0.4,0.1,0.5c0,3.3,0,6.6,0,9.9c0,0.2,0,0.5,0,0.7c0.1,1.5-0.1,2.9-0.5,4.4c-0.1,0.5,0,1-0.1,1.5c-0.3,1.2-0.6,2.4-1,3.6
		c-0.3,1-0.5,2-0.8,3c-0.4,1.1-0.8,2.2-1.3,3.3c-0.2,0.5-0.4,1-0.6,1.4c-0.7,1.4-1.4,2.9-2.1,4.3c0,0.1-0.1,0.2-0.1,0.2
		c-0.8,1-1.6,2.1-2.3,3.1c-0.4,0.5-0.7,1.1-1.1,1.6c-0.1,0.2-0.2,0.3-0.4,0.4c-0.6,0.3-0.9,0.8-1,1.5c-0.1,0.3-0.4,0.6-0.6,0.9
		c-0.2,0.2-0.5,0.4-0.6,0.6c-0.4,0.8-1.2,1.2-1.9,1.7c-0.1,0.1-0.2,0.1-0.3,0.2c-0.4,0.9-1.3,1.3-1.8,2c-0.1,0.2-0.3,0.3-0.4,0.4
		c-0.9,0.7-1.7,1.5-2.6,2.1c-0.7,0.5-1.4,0.9-2.1,1.3c-0.4,0.2-0.9,0.4-1.3,0.7c-1.2,0.8-2.3,1.7-3.4,2.5c-1.8,1.1-3.8,2.1-5.9,2.5
		c-1.2,0.2-2.3,0.8-3.4,1.2c-1,0.4-1.9,0.8-2.9,0.9c-0.5,0-1,0.2-1.4,0.4c-0.9,0.5-1.9,0.6-2.9,0.6c-2,0-4,0.1-6,0.1h-0.1
		c-2.3,0.6-4.6-0.1-6.9,0.1c-0.4,0-0.8-0.1-1.2-0.2c-2-0.5-4.1-1-6.1-1.6s-3.9-1.3-5.8-2c-1-0.3-1.9-0.7-2.9-1
		c-0.2-0.1-0.4-0.1-0.5-0.2c-0.7-0.6-1.4-1.2-2.3-1.6c-0.4-0.2-0.8-0.3-1.1-0.6c-0.7-0.5-1.4-1-2.1-1.5c-0.2-0.1-0.2-0.3-0.4-0.4
		c-1.6-0.9-2.9-2.1-4.3-3.3c-0.3-0.3-0.7-0.5-1-0.8c-1-0.9-1.9-1.9-2.9-2.8c-0.9-0.7-1.4-1.7-2.2-2.4c-1-1-1.6-2.2-2.4-3.4
		c-0.2-0.3-0.5-0.6-0.8-1c-0.6-0.9-1.2-1.7-1.4-2.7c-0.1-0.6-0.5-1.1-0.8-1.6c-0.5-1-1.1-1.9-1.5-2.9c-0.6-1.5-1.2-3-1.8-4.6
		c-0.2-0.6-0.4-1.2-0.6-1.8c-0.2-0.6-0.3-1.3-0.4-1.9c0-0.2,0-0.4-0.1-0.6c-0.7-1.4-0.5-3-0.7-4.5c-0.1-0.8,0-1.7,0-2.5
		c0-0.4-0.2-0.8-0.4-1.2c-0.2-0.4-0.3-0.8-0.2-1.3c0.2-1.1,0.3-2.2,0.3-3.4c0-1.4,0.3-2.7,0.5-4.1c0.1-0.5,0.2-1.1,0.2-1.6
		c0-1.3,0-2.6,0.7-3.8c0.3-0.5,0.2-1.1,0.4-1.7c0.1-0.4,0.3-0.9,0.4-1.3c0.1-0.4,0.3-0.8,0.3-1.3c0-0.8,0.3-1.5,0.8-2.2
		c0.3-0.4,0.6-0.8,0.7-1.3c0.4-1.8,1.5-3.1,2.6-4.4c0.3-0.3,0.5-0.7,0.6-1.1c0.3-1.2,0.7-2.3,1.8-3.2c1-0.8,1.7-2,2.6-2.9
		c0.9-1,1.8-1.9,2.7-2.8c0.4-0.4,0.7-0.8,1.1-1.3c0.1-0.1,0.1-0.2,0.2-0.3c0.7-0.2,1-0.9,1.5-1.2c0.9-0.6,1.4-1.7,2.5-2
		c0.4-0.1,0.7-0.6,1-0.9c0.5-0.4,1-0.8,1.6-1c1.2-0.3,2-1,2.7-1.9c0.2-0.3,0.6-0.4,0.9-0.6c0.5-0.2,1.1-0.3,1.6-0.5
		c1-0.4,1.9-0.7,2.9-1.1c0.7-0.3,1.3-0.6,2-0.9c0.8-0.3,1.7-0.5,2.5-0.8c0.3-0.1,0.6-0.1,0.9-0.2c2.1-0.6,4.1-1.1,6.2-1.8
		c2.4-0.8,4.9-0.6,7.4-0.7C89.6,36.4,90.2,36.4,90.8,36.4L90.8,36.4z M136.8,83.9c-0.1-0.9-0.1-2-0.3-3c-0.3-1.4-0.7-2.7-0.7-4.2
		c0-0.3-0.1-0.7-0.2-0.9c-0.5-1-0.5-2.1-0.6-3.2c0-0.3-0.1-0.6-0.2-0.9c-0.2-0.6-0.4-1.2-0.6-1.9c-0.2-0.5-0.3-1-0.6-1.5
		c-0.4-0.9-1-1.7-1.4-2.6c-0.6-1.1-1-2.4-1.6-3.5s-1.3-2.1-2-3c-1.2-1.7-2.5-3.3-4.1-4.7c-0.2-0.2-0.3-0.4-0.5-0.6
		c-0.4-0.5-0.8-1.1-1.2-1.6c-0.7-0.7-1.7-1.2-2.2-2.2c-0.1-0.1-0.3-0.2-0.4-0.3c-0.3-0.2-0.6-0.5-0.8-0.7c-0.1-0.1-0.2-0.4-0.4-0.4
		c-0.8-0.4-1.6-0.7-2.4-1c-0.3-0.2-0.7-0.4-1-0.6c-1.6-1.5-3.1-3-5.5-3.3c-0.1,0-0.3-0.1-0.4-0.2c-0.8-0.4-1.6-0.9-2.4-1.1
		c-2-0.4-3.6-1.7-5.6-1.9c-0.6-0.1-1.2-0.2-1.8-0.3C99,40.2,98,40.1,97.1,40c-0.8-0.1-1.5-0.5-2.3-0.6c-1.7-0.2-3.4-0.3-5.1-0.4
		c-0.1,0-0.3,0-0.4,0c-1,0-2,0.1-2.9,0.1c-0.3,0-0.5,0.1-0.8,0.1c-0.5,0.1-1.1,0.2-1.6,0.3c-0.5,0-0.9,0-1.4,0.1
		c-0.9,0.2-1.9,0.5-2.8,0.7c-0.6,0.1-1.1,0.1-1.7,0.2c-0.8,0.1-1.5,0.3-2.3,0.5c-0.3,0.1-0.7,0.1-1,0.3c-0.8,0.4-1.6,0.8-2.5,1
		c-1.2,0.3-2.2,1-3.3,1.5c-0.8,0.4-1.6,0.9-2.5,1.3c-1.1,0.5-2.2,0.9-3,1.8c-0.3,0.3-0.6,0.7-0.9,0.8c-0.6,0.1-1,0.4-1.4,0.8
		c-0.3,0.3-0.6,0.5-0.9,0.9c-0.5,0.6-1.3,0.9-1.9,1.5c-1.3,1.4-2.7,2.5-4.1,3.8c-0.2,0.2-0.5,0.4-0.6,0.6c-0.5,1.2-1.5,2-2.2,3
		c-0.7,0.9-1.5,1.9-2.1,2.9c-0.4,0.6-0.8,1.2-1.1,1.9c-0.6,1.2-1,2.5-1.6,3.7c-0.4,0.9-1,1.8-1.4,2.8c-0.5,1.1-0.9,2.3-1.3,3.4
		c-0.2,0.6-0.3,1.2-0.4,1.9c-0.1,0.4,0,0.9-0.2,1.3c-0.5,0.9-0.5,1.8-0.5,2.7c0,0.4-0.1,0.8-0.2,1.2c-0.1,0.6-0.4,1.2-0.4,1.8
		c-0.1,1.7-0.1,3.3-0.1,5c0,0.8,0.1,1.5,0.2,2.3c0.2,1.9-0.2,3.9,0.6,5.7c0,0.1,0,0.2,0,0.4c0.2,1.9,0.6,3.7,1.5,5.5
		c0.5,1,1.4,1.3,2.2,0.6c1.4-1.2,2.8-2.4,4.1-3.6c1.4-1.2,2.7-2.6,4.5-3.4c0.1-0.1,0.2-0.2,0.3-0.3c1.6-1.3,3.2-2.5,5.1-3.3
		c0.6-0.3,1.1-0.7,1.7-1.1c0.5-0.3,0.9-0.6,1.4-0.8c1.2-0.6,2.4-1.1,3.6-1.6l0,0c0.9-0.3,1.8-0.7,2.7-0.9c1-0.3,2-0.2,2.9-0.9
		c0.5-0.4,1.3-0.6,2-0.7c1-0.1,2-0.2,2.9-0.6c0.2-0.1,0.4-0.1,0.6-0.1c2,0.3,3.6-1.1,5.6-0.9c0.4,0,0.7,0,1.1,0s0.9,0,1.3,0
		c1-0.1,1.9-0.2,2.9-0.2s2.1,0.2,3.1,0.3c1,0.1,1.9,0.1,2.9,0.2c0.6,0,1.2,0.1,1.8,0.2c0.9,0.2,1.9,0.3,2.8,0.5
		c0.4,0.1,0.8,0.1,1.2,0.2c0.6,0.1,1.2,0.3,1.8,0.5c0.2,0.1,0.5,0.1,0.7,0.2c0.5,0.2,0.9,0.4,1.4,0.6c0.8,0.2,1.6,0.3,2.3,0.7
		c1,0.5,1.9,0.7,3,0.9c0.3,0.1,0.6,0.2,0.9,0.4c0.5,0.3,1.1,0.7,1.6,1c0.6,0.3,1.2,0.6,1.9,0.9c0.5,0.2,0.9,0.5,1.4,0.6
		c1.2,0.5,2.6,0.7,3.4,2c0,0.1,0.1,0.1,0.2,0.1c0.8,0.5,1.6,0.9,2.4,1.4c0.7,0.4,1.2,1,1.8,1.5c0.4,0.3,0.7,0.7,1.1,1
		c1.1,1,2.3,1.9,3.4,2.9c0.9,0.8,1.6,1.7,2.4,2.6c0.4,0.4,0.8,0.7,1.2,1.1s0.7,0.7,1.2,0.5c0.4-0.2,0.8-0.6,0.9-1.1
		c0.4-2.1,1.3-4,1.4-6.2c0.1-2,0.6-3.9,0.9-5.9c0-0.1,0-0.2,0-0.3C136.7,87.5,136.8,85.8,136.8,83.9z M123.8,109.8
		c-0.1,0.2-0.1,0.5-0.2,0.6c-0.6,0.5-1.4,0.9-2,1.4c-0.5,0.4-0.9,0.9-1.2,1.5c-0.1,0.3-0.1,0.8,0,1c0.6,0.8,0.6,1.7,0.7,2.6
		c0.1,0.5,0.5,0.9,0.9,1.2c0.2,0.2,0.9,0.2,1.1,0c0.9-0.8,1.6-1.7,2.4-2.5c0.2-0.2,0.3-0.4,0.6-0.4c0.9-0.2,1.2-0.9,1.3-1.7
		c0-0.2,0.1-0.4,0.2-0.5c0.4-0.4,0.3-0.8,0.2-1.2c-0.2-0.8-0.8-1.3-1.2-1.9c-0.4-0.5-0.8-0.9-1.4-1c-0.7-0.1-0.7-0.4-0.7-1
		c0-0.4,0.1-1-0.1-1.3c-0.4-0.8-1-1.5-1.5-2.3c-0.5-0.9-1.3-1.7-2.4-1.9c-0.5-0.1-0.9-0.4-0.9-1c-0.1-0.6-0.4-1.1-0.8-1.5
		s-0.8-0.9-1.2-1.3c-0.7-0.8-1.6-1-2.6-0.7c-1.1,0.3-1.5,0.3-1.2-1c0-0.1,0-0.2,0-0.2c0.1-0.7-0.1-1.3-0.7-1.7
		c-0.3-0.3-0.6-0.6-0.9-1c-0.1-0.1-0.1-0.4,0-0.5c0-0.1,0.3-0.2,0.4-0.1c0.6,0.3,1.3,0.4,1.9,0.8c0.6,0.5,1.2,0.8,2.1,0.7
		c0.7-0.1,0.8,0,0.8,0.7c-0.1,0.9,0.3,1.6,1,2.1c0.4,0.3,0.8,0.7,1.1,1.1c0.4,0.5,0.8,0.6,1.4,0.7c0.7,0.1,1.2-0.3,1.8-0.6
		c0.1-0.1,0.4,0,0.6,0c-0.1,0.2-0.2,0.4-0.4,0.5c-0.6,0.1-0.7,0.5-0.6,1s0.3,1,0.5,1.4s0.5,0.8,0.8,1.2c0.4,0.7,0.8,1.5,1.3,2.1
		c0.6,0.8,2.1,0.8,2.5,0.1c0.5-0.7,0.8-1.4,1.2-2.2c0.2-0.5,0.1-1-0.3-1.5c-0.8-0.8-1.6-1.7-2.4-2.4c-0.4-0.3-1-0.6-1.5-0.6
		c-0.7,0-1-0.3-1.2-0.9c-0.2-1-0.8-1.7-1.8-2c-0.2-0.1-0.4-0.2-0.6-0.3c-0.8-0.4-1.6-1.2-2.7-0.9c-0.3,0.1-0.5-0.1-0.5-0.5
		c0-0.9-0.6-1.4-1.3-1.8c-0.8-0.4-1.5-0.8-2.3-1.2c-0.6-0.3-1.2-0.7-1.8-1c-0.7-0.3-1.5-0.1-1.8,0.5c-0.2,0.4,0,1,0.5,1.5
		c0.4,0.4,0.7,0.8,1.1,1.2c-0.7,0.1-1.3,0-1.9-0.3c-0.5-0.2-1.1-0.4-1.7-0.5c-0.3,0-0.7,0.3-0.8,0.5c-0.1,0.2,0,0.7,0.2,0.9
		c0.3,0.6,0.7,1.1,1.2,1.6c0.6,0.7,1.3,1.3,2,1.9c0.5,0.5,1,0.7,1.7,0.8c1,0.1,1,0.1,0.9,1.2c-0.1,0.6-0.1,1.1,0.3,1.7
		c0.5,0.7,1,1.4,1.5,2.2c0.3,0.5,0.7,0.9,1.4,0.9c0.7,0,0.8,0.3,0.8,0.9c0,0.7-0.1,1.4,0.2,2c0.5,1.4,1.2,2.7,2.2,3.8
		c0.5,0.5,1,0.5,1.5,0c0.1-0.2,0.3-0.4,0.5-0.4C122.2,110.1,122.9,110,123.8,109.8z M91.4,114.9c0.1-1,0.4-1.2,1.2-1.1
		c0.3,0,0.7,0.1,1,0c0.9,0,1.4-0.5,1.5-1.4c0-0.3,0-0.5,0-0.8c0-0.9-0.1-1.8-0.1-2.7c0-1.2-1.1-2-2.2-1.7c-0.4,0.1-0.8,0.2-1.2,0.2
		c-1.1,0.1-1.7,0.5-1.7,1.5c-0.1,0.9,0,1.7,0,2.6c0,0.8,0,1.6-0.1,2.4c0,0.3-0.3,0.6-0.7,0.4c-0.4-0.1-0.6-0.3-0.5-0.8
		c0.1-0.2,0.1-0.3,0.1-0.5c0.2-0.9,0.6-1.8,0.2-2.7c-0.1-0.2,0-0.4,0-0.6c0.1-0.8-0.3-1.6-0.9-2c-0.9-0.6-2-0.7-3-0.3
		c-0.8,0.2-1.3,0.7-1.5,1.6s-0.4,1.8-0.5,2.7c-0.2,1,0.6,1.8,1.6,1.9c0.5,0,1,0.2,1.4,0.4c0.2,0.1,0.3,0.5,0.4,0.7
		c-0.2,0.1-0.4,0.3-0.6,0.3c-0.5,0-1-0.1-1.5-0.2c-0.9-0.1-1.6,0.3-1.9,1.1c-0.1,0.3-0.1,0.6-0.2,0.9c-0.1,1.2-0.2,2.5-0.3,3.7
		c-0.1,1.7,1.2,2.8,2.8,2.2c0.2-0.1,0.3-0.2,0.5-0.2s0.4-0.1,0.5,0c0.6,0.4,1.3,0.3,2,0.3c0.9,0,1.4-0.9,1.2-1.8
		c-0.1-0.4,0-0.7-0.1-1.1c0-0.5,0.1-1,0-1.4c-0.3-0.9-0.1-1.6,0.2-2.4c0.1-0.4,0.4-0.4,0.6-0.1s0.4,0.7,0.4,1c0.1,1.7,0.1,3.3-0.2,5
		c0,0.2,0.2,0.5,0.3,0.6c0.1,0.1,0.4,0.1,0.6,0.1c1.2,0,2.5,0.1,3.7,0.1c0.6,0,0.9-0.2,1.1-0.8c0.1-0.3,0.3-0.6,0.5-0.8
		c0.3-0.3,0.3-0.6,0-0.9c-0.6-0.5-0.6-1,0-1.5c0.4-0.4,0.4-1,0.1-1.5c-0.1-0.2-0.3-0.4-0.3-0.5c0-0.8-0.2-1.6-1-2.1
		c-0.5-0.4-0.9-0.4-1.3,0c-0.2,0.2-0.5,0.4-0.7,0.4C92.3,115.1,91.9,115,91.4,114.9z M113.1,122.5c-0.2,0.8,0.3,1.1,0.8,1.4
		c0.4,0.3,0.9,0.2,1.3-0.1c0.8-0.4,1.6-0.7,2.3-1.2c0.8-0.5,1.8-0.5,2.3-1.4c0.4-0.6,0.7-1.2,1-1.8c0.1-0.2,0-0.5-0.1-0.7
		c-0.2-0.6-0.4-1.1-0.5-1.7c-0.3-0.9-0.3-2-1.3-2.6c-0.7-0.3-0.8-0.9-0.7-1.6c0.1-0.9,0.2-1.9-0.7-2.5c-0.1-0.1-0.2-0.3-0.3-0.5
		c-0.5-0.8-0.8-1.6-1.4-2.4c-0.5-0.6-1.2-1.1-1.1-2.1c0-0.2-0.2-0.4-0.3-0.6c-0.1-0.2-0.2-0.4-0.3-0.6c-0.4-1.6-1.5-2.5-2.8-3.3
		c-0.5-0.3-0.8-0.2-1.3,0.1c-0.2,0.2-0.6,0.1-1,0.2c0.2-0.3,0.3-0.6,0.5-0.8c0.9-0.7,1-1.3,0.2-2.1c-0.4-0.4-0.9-0.6-1.3-1
		c-0.6-0.6-1.1-1.3-1.6-2s-1.7-0.9-2.4-0.4c-0.9,0.6-1.1,1.4-0.4,2.3c0.8,1.1,1.5,2.2,2.3,3.2c0.3,0.4,0.9,0.7,1.4,1
		c0.5,0.2,0.6,0.4,0.4,1c-0.4,1.1-0.4,2.1,0.5,3c0.1,0.1,0.2,0.4,0.3,0.5c0.4,0.5,0.7,1.3,1.2,1.6c0.9,0.5,1.2,1.1,1.2,2.2
		c0,1.9,0.4,3.7,0.7,5.6c0,0.3,0.3,0.6,0.6,0.7c0.9,0.4,1,0.8,0.6,1.6c-0.2,0.3-0.3,0.8-0.3,1.2C112.9,120.2,113,121.4,113.1,122.5z
		 M56.1,103.5c0.1,0,0.1,0.1,0.2,0.1c-0.1,0.3-0.1,0.7-0.3,0.9c-0.4,0.6-1,1.1-1.4,1.7c-0.9,1.1-0.7,2.2,0.5,3.1
		c0.3,0.2,0.5,0.4,0.7,0.7c0.4,0.8,1.2,0.9,1.8,1.2c0.1,0,0.2,0,0.3-0.1c0.6-0.5,1.1-1,1.6-1.4c0.1-0.1,0.1-0.2,0.1-0.3
		c-0.3-0.7,0.2-1.1,0.7-1.5c0.2-0.1,0.4-0.1,0.6-0.2c0.1,0.2,0.2,0.4,0.1,0.6c-0.3,0.9-0.7,1.7-1.1,2.5c-0.3,0.7-0.4,1.3,0,1.9
		c0.5,0.7,1.1,1.3,1.7,1.8c0.6,0.5,1.2,0.9,1.9,1.3c0.3,0.2,0.8,0.2,1.2,0.1c0.8-0.2,1.2-0.9,1.5-1.7c0.5-1.3,0.9-2.7,1.4-4
		c0.3-0.7,0.1-1.6-0.3-1.9c-0.5-0.3-1-0.8-1.7-0.8c-0.2,0-0.5-0.2-0.7-0.3c-0.5-0.3-0.9-0.6-1.4-0.8c-0.8-0.3-1.6,0.1-2.2,0.9
		c0-0.4,0-0.8,0-1.3s0-0.9,0-1.4c-0.2-0.8-0.6-1.4-1.5-1.8s-1.8-0.6-2.7-0.1c-0.1,0.1-0.2,0-0.3,0c0.6-1.3,0.5-2.5-0.1-3.1
		c-0.4-0.4-0.8-0.8-1.2-1.1c-1.1-0.8-1.5-0.8-2.6,0c-0.5,0.3-1,0.6-1.5,0.9s-0.9,0.7-1.3,1.1c-0.3,0.3-0.4,0.6-0.6,0.9
		c-0.6,0.8-0.5,1.4,0.2,2.1s1.4,1.4,2.2,2.1c0.6,0.5,1.6,0.5,1.7-0.1c0.3-1,1.2-1.4,1.8-2C55.5,103.7,55.8,103.6,56.1,103.5z
		 M78.9,122.5c-0.5,0.1-0.9,0.3-1.3,0.2c-0.7-0.1-1.3-0.3-2-0.4c-0.8-0.1-1.1,0.1-1.4,0.8c-0.1,0.1-0.1,0.3-0.1,0.5
		c0,1.1-0.1,2.2,0,3.2c0,0.4,0.4,0.9,0.7,1.1c0.5,0.3,1.2,0.5,1.8,0.7c0.6,0.2,1.2,0.4,1.6,0.8c0.8,0.6,1.5,0.5,1.6-0.5
		c0.1-0.7,0-1.5,0.1-2.2c0-0.4,0.1-0.9,0.3-1.3c0.1-0.5,0.2-0.9-0.1-1.3c-0.3-0.4-0.5-0.9-0.6-1.4c-0.1-0.2,0.1-0.6,0.2-0.7
		c0.6-0.4,0.7-0.9,0.7-1.5c0-0.8-0.1-1.6,0-2.3c0-0.5,0.2-0.9,0.4-1.4c0.4-0.8,0.4-1.6-0.2-2.2c-0.4-0.4-0.5-0.9-0.3-1.4
		c0.2-0.3,0.5-0.5,0.8-0.7c0.5-0.3,0.8-0.7,0.8-1.3c0-1,0.1-1.9,0.1-2.9c0-0.9-0.3-1.3-1.2-1.5c-0.4-0.1-0.8-0.1-1.1-0.3
		c-1-0.4-1.8,0-2,1.2c-0.1,0.5-0.2,1-0.5,1.3c-0.4,0.6-0.6,1-0.2,1.6c0.6,0.9,1.2,1.7,2.2,2.2c0.3,0.1,0.5,0.4,0.7,0.6
		c-0.3,0.1-0.6,0.3-0.9,0.4c-0.1,0-0.3-0.1-0.5-0.1c-0.5-0.1-1-0.2-1.4-0.3c-0.7,0-0.8,0.2-1,0.9c-0.1,0.6-0.4,1.3-0.6,1.9
		c-0.1,0.3-0.2,0.7-0.2,1c-0.1,0.3-0.1,0.7-0.3,1c-0.3,0.4-0.4,1.6,0.1,1.9c0.8,0.4,1.3,1.3,2.3,1.3
		C77.9,121.4,78.4,121.8,78.9,122.5z M105.7,111.8c-0.9,0.6-1.5,1.4-1.1,2.6c0.1,0.3,0.2,0.5,0.3,0.8c0.1,0.2,0.1,0.4,0.2,0.7
		c0.1,0.8,0.1,1.6,0.2,2.3c0.1,0.6,0.9,1.3,1.6,1.3c0.2,0,0.3,0,0.5-0.1c0.6-0.2,1.1-0.5,1.6-0.7c1.7-0.8,2.3-1.2,2.3-3.1
		c0-1.2-0.6-2.3-1-3.4c0-0.1-0.1-0.1-0.1-0.1c-0.4-0.8-1.2-1.2-2.1-1.4c-0.5-0.1-0.6-0.3-0.3-0.8c0.6-0.8,0.8-1.7,0.2-2.7
		c-0.4-0.7-0.7-1.5-1-2.2c-0.4-1-0.9-1.3-1.9-1.2c-0.3,0-0.6-0.1-1-0.1c0-0.1,0-0.1-0.1-0.2c0.2-0.1,0.4-0.3,0.6-0.4
		c0.5-0.6,0.6-1.3,0.3-1.9c-0.3-0.6-0.7-1.1-0.9-1.7c-0.5-1.1-1.4-1.7-2.6-1.7c-0.6,0-1.3,0.2-1.7,0.6c-0.4,0.4-0.2,1.1,0.1,1.6
		c0.4,0.7,0.8,1.3,1.2,2c0.3,0.5,0.6,1.1,1.1,1.4c0.7,0.6,1.1,1,0.8,2.1c-0.5,1.6,0.4,3.1,0.9,4.5c0.1,0.2,0.4,0.4,0.6,0.6
		C104.9,111,105.6,111,105.7,111.8z M85.8,129.9c0.6-0.1,1,0,1.4-0.2c1-0.4,1.7-1.6,1.6-2.7c0-0.2,0.2-0.4,0.4-0.7
		c0.2,0.2,0.4,0.3,0.5,0.5c0.2,0.6,0.3,1.2,0.5,1.7c0.4,0.9,1.1,1.2,2,1.1c0.5,0,1-0.1,1.4,0c1.6,0.1,2.3-0.5,2.6-2.1
		c0.1-0.5,0.3-1,0-1.5c0-0.1,0-0.2,0-0.3c0.3-0.8,0.3-1.4-0.5-1.9c-0.1,0-0.1-0.1-0.2-0.2c-0.2-0.4-0.5-0.4-0.9-0.4
		c-1.2,0.1-2.5,0.2-3.7,0.2c-0.5,0-0.7,0.2-0.8,0.7c0,0.2-0.1,0.5-0.2,0.6c-0.5,0.3-1.5,0-1.9-0.5c-0.2-0.3-0.5-0.6-0.7-0.6
		c-1.3-0.1-2.5-0.2-3.8-0.2c-0.5,0-1.1,0.2-1.4,0.6c-0.5,0.5-0.9,1.2-0.7,2.1c0.1,0.3,0,0.6,0,0.9c0,1.1,0.8,2.2,1.8,2.5
		C84.2,129.7,85.1,129.8,85.8,129.9z M78.6,102.4c-0.4-0.9-0.4-1.8,0.2-2.8c0.4-0.6,0.3-1.3-0.3-1.8c-0.6-0.6-1.3-0.7-2.1-0.4
		c-1.2,0.5-1.3,0.4-1.3-0.8c0-0.9-0.5-1.5-1.3-1.8c-0.9-0.3-1.7-0.1-2.3,0.6c-0.6,0.7-1.3,1.3-2,1.8c-0.8,0.5-1.1,2.1-0.4,2.8
		c0.3,0.2,0.5,0.5,0.8,0.7c0.9,0.8,2,1.1,2.8-0.3c0.6-0.9,1.4-1.6,2.1-2.4c0.1,0,0.2,0.1,0.2,0.1c0,0.4,0,0.7-0.2,0.9
		c-0.4,0.7-0.8,1.3-1.1,2c-0.4,0.9,0,1.8,1,2.1c0.4,0.1,0.8,0.3,1.1,0.5c0.6,0.4,1.2,0.3,1.8-0.1c0.2-0.1,0.5-0.3,0.7-0.2
		c0.2,0.1,0.3,0.4,0.4,0.6c0.2,1.1,0.6,1.6,1.7,1.7c0.2,0,0.5,0,0.7,0.1c0.8,0.2,1.2,0,1.7-0.7c0.8-1.4,0.8-3,0.7-4.5
		c-0.1-1.1-1-2.1-2.2-1.6c-0.5,0.2-1,0.6-1.1,1.1C79.8,101,79.4,101.8,78.6,102.4z M73.8,110.9c1.2-0.1,1.4-0.2,1.8-1.3
		c0.3-0.8,0.4-1.6,0.6-2.4c0.3-1.3-0.2-2.2-1.4-2.6c-0.3-0.1-0.6-0.3-0.9-0.4c-1.1-0.6-2.3-0.2-2.6,1c-0.1,0.5-0.3,0.9-0.5,1.3
		c-0.1,0.2-0.4,0.3-0.6,0.4c-0.1-0.2-0.3-0.5-0.3-0.7c0.1-0.7,0.3-1.4,0.5-2s0.2-1.2-0.3-1.6c-0.7-0.6-1.5-1.1-2.3-1.5
		c-0.7-0.4-1.5-0.1-1.9,0.4c-0.5,0.6-1,1.2-1.5,1.8c-0.5,0.6-0.6,2-0.1,2.7c0.1,0.1,0.1,0.1,0.2,0.2c0.6,0.4,1.3,0.7,1.9,1.1
		c0.1,0,0.1,0,0.2,0.1c0.4,0.7,1.1,0.5,1.7,0.5c1.1-0.1,1.3,0.1,1.7,1.1c0.3,0.8,0.8,1.2,1.6,1.3c0.2,0,0.4,0.1,0.6,0.2
		C72.8,110.5,73.3,110.7,73.8,110.9z M74.6,114.1c0-1.1-0.1-1.9-1-2.3c-0.4-0.2-0.9-0.3-1.3-0.5c-0.5-0.1-1-0.2-1.5-0.3
		c-0.6-0.1-1.1-0.3-1.7-0.3c-0.2,0-0.6,0.2-0.7,0.4c-0.3,0.5-0.4,1-0.6,1.5c-0.4,1.1-0.9,2.3-1.3,3.4c0,0.1-0.1,0.3-0.1,0.4
		c0.1,0.6,1.5,1.9,2.1,2.1c1,0.3,2.1,0.6,3.1,1s2-0.2,2.1-1.3c0.1-0.6,0.2-1.1,0.3-1.7C74.2,115.6,74.4,114.8,74.6,114.1z
		 M64.9,118.9L64.9,118.9c-0.1-0.6-0.3-1.1-0.6-1.4c-0.6-0.6-1.6-0.6-2-1.5c0-0.1-0.2-0.1-0.3-0.2c-0.8-0.4-1.6-0.7-2.4-1.2
		c-0.5-0.3-1.2-0.3-1.6,0c-0.5,0.5-0.8,1-0.8,1.8c0,0.4-0.2,0.8-0.4,1.2c-0.3,0.6-0.5,1.2-0.1,1.8c0.5,0.7,1,1.3,1.7,1.8
		c0.5,0.4,1.3,0.5,1.7,1c0.7,0.9,1.6,1.2,2.6,1.4c0.8,0.1,1.4-0.3,1.4-1.1c0.1-1,0-2,0.6-2.8C64.8,119.5,64.8,119.2,64.9,118.9z
		 M89,102.2c0.1,0,0.2,0,0.3,0c0.1,0.3,0.3,0.6,0.3,0.8c0,0.6-0.1,1.2-0.2,1.8c0,0.1,0,0.2,0.1,0.3c0.5,1,3.3,1.4,4.1,0.7
		c0.1-0.1,0.2-0.2,0.2-0.3c0.4-1,0.2-1.9-0.1-2.9c-0.1-0.3-0.3-0.6-0.4-0.9c-0.3-1-1.1-1.7-2.2-1.5c-0.5,0.1-1,0.3-1.4,0.6
		c-0.6,0.4-0.8,0.4-1.4,0c-0.1-0.1-0.2-0.2-0.3-0.2c-1.2-0.6-2.5-0.9-2.9,0.5c-0.4,1.2-0.7,2.6-0.8,3.9c-0.1,0.9,0.7,1.5,1.6,1.5
		c0.6,0,1.2,0,1.7-0.1c1.1-0.1,1.3-0.6,1.2-1.7C88.9,103.9,89,103,89,102.2z M73,123c0.1-1.1-0.9-2.2-2.1-2.6
		c-0.8-0.2-1.6-0.4-2.2-0.9c-0.5-0.3-0.9-0.4-1.5-0.3c-0.8,0.1-1.3,0.5-1.4,1.4c-0.1,0.5-0.2,1.1-0.4,1.6c-0.4,0.9-0.1,2.2,0.7,2.7
		c0.9,0.6,1.7,1.3,2.9,1.4c0.2,0,0.5,0.2,0.7,0.3c0.3,0.2,0.7,0.4,1,0.5c0.8,0.3,1.6,0,1.7-0.9C72.7,125.2,72.8,124.1,73,123z
		 M97.5,119.8c0,1.4,1,2.1,2.1,1.8c0.7-0.2,1.4-0.2,2-0.2c0.9,0,2.1-0.4,2.1-1.7c0-0.3,0-0.5,0-0.8c0-0.7,0.1-1.3-0.4-1.9
		c-0.1-0.2,0-0.6,0.1-0.9c0-0.2,0.2-0.5,0.2-0.7c-0.2-1.2-0.9-2.2-2.3-1.7c-0.8,0.3-1.7,0.6-2.6,0.7c-1.2,0.2-2,1.2-1.6,2.4
		C97.5,117.9,97.7,118.9,97.5,119.8z M112.2,122.6C112.1,122.6,112.1,122.6,112.2,122.6c-0.1-0.6,0-1.3-0.1-1.9
		c-0.1-1-0.6-1.3-1.6-1.2c-1.5,0.2-2.8,0.9-4,1.8c-0.9,0.7-1.2,1.6-1.1,2.7c0.1,0.6,0.1,1.2,0.2,1.8c0,0.2,0.1,0.5,0.3,0.7
		c0.6,0.7,1.3,0.6,2,0.4c0.9-0.2,1.8-0.5,2.6-0.8c1.1-0.3,1.7-1.1,1.7-2.2C112.2,123.5,112.2,123.1,112.2,122.6z M104,124.1
		L104,124.1c0.1-0.3,0.1-0.6,0-0.9c-0.2-0.7-1.1-1.2-1.6-1c-0.6,0.2-1.2,0.4-1.8,0.5c-0.5,0.1-1,0-1.4,0.1c-0.9,0.2-1.8,1-1.7,1.8
		c0.1,1,0.2,2.1,0.5,3.1c0.2,0.9,1,1.3,1.8,1.6c0.4,0.2,0.8,0.3,1.1,0.7c0.2,0.2,0.6,0.3,0.9,0.3c0.2,0,0.4-0.4,0.4-0.7
		c0-0.7,0.4-1.2,1-1.5c0.8-0.5,1-1.2,1-2C104.1,125.5,104,124.8,104,124.1z M99.4,106.1c-0.8,0.2-1.6,0.3-2.5,0.5
		c-0.6,0.2-1.3,1.1-1.4,1.7c0,0.2,0,0.4,0.1,0.5c0.7,0.7,0.7,1.6,0.8,2.4c0.2,1.4,0.8,1.9,2.1,1.7c0.5-0.1,1.1-0.2,1.6-0.2
		c0.7,0,1.2-0.2,1.6-0.8c0.5-0.7,0.9-1.3,0.6-2.3c-0.2-0.6-0.4-1.3-0.6-1.9c-0.1-0.3-0.3-0.7-0.5-0.9
		C100.9,106.3,100.2,106.1,99.4,106.1z M57,114.1c-0.1-0.6-0.2-1.1-0.3-1.5s-0.4-0.9-0.7-1c-1-0.4-1.9-1-2.6-1.7
		c-0.4-0.4-0.8-0.4-1.3,0c-1.1,0.9-1.4,2.3-0.7,3.5s1.5,2.4,2.2,3.6c0.3,0.5,0.9,0.7,1.4,0.4c0.7-0.4,1.3-0.7,1.4-1.7
		c0-0.4,0.3-0.8,0.4-1.2C57,114.3,57,114.2,57,114.1z M96.7,105.6c1-0.2,2.1,0,3.1-0.8c0.8-0.7,1-1.4,0.4-2.3
		c-0.6-0.8-1.4-1.6-1.5-2.6c0-0.1-0.1-0.1-0.1-0.2c-0.8-0.9-1.4-1-2.5-0.5c-0.2,0.1-0.5,0.2-0.7,0.3c-0.3,0.2-0.6,0.5-0.7,0.8
		c-0.1,0.5,0,1,0.1,1.5s0.4,1,0.2,1.6c-0.1,0.1,0.1,0.4,0.1,0.5c0.1,0.2,0.2,0.4,0.3,0.6C95.5,105.4,95.7,105.6,96.7,105.6z
		 M86.2,96.1c0,0.4,0.1,0.7,0.1,1c0,0.7,0.3,1.2,0.9,1.4c0.6,0.3,1.2,0.1,1.6-0.4c0.3-0.3,0.6-0.4,0.9-0.2c0.2,0.1,0.4,0.3,0.7,0.4
		c0.4,0.1,0.9,0.2,1.3,0.1c0.4-0.2,0.3-0.7,0.2-1.2c-0.3-0.9-0.5-1.8-0.7-2.7c-0.1-0.5-0.3-0.9-0.8-1.1c-0.8-0.4-1.7-0.4-2.3-1.2
		c-0.3-0.4-0.7-0.2-0.9,0.3c-0.1,0.3-0.1,0.7-0.3,1C86.2,94.2,86.5,95.2,86.2,96.1z M67.4,89.6c-0.4,0.1-0.8,0.1-1.1,0.3
		c-1.5,0.7-2.9,1.4-4.3,2.1c-0.6,0.3-0.7,0.7-0.8,1.2c0,0.6,0.1,1.1,0.6,1.5c1,0.6,2.2,0.6,3.1-0.1c0.5-0.4,0.9-0.9,1.4-1.2
		c0.6-0.4,1.2-0.6,1.9-0.8c0.8-0.3,1.4-1.5,0.9-2C68.7,90,68.2,89.5,67.4,89.6z M58.5,99.5c0.9,0,1.7-0.4,2.2-1.2
		c0.5-0.9,1.2-1.6,0.6-2.8c-0.5-0.9-1.4-1.7-2.4-1.4c-0.6,0.2-1.2,0.5-1.8,0.8c-1.7,0.9-1.9,2.2-0.5,3.5
		C57.1,99,57.6,99.6,58.5,99.5z M81.8,96.1c0.1,1.8,0.8,2.3,2,2c0.3-0.1,0.6-0.4,0.9-0.7c0.3-0.4,0.6-0.8,0.8-1.1
		c0.1-0.2,0.2-0.4,0.3-0.6c0.2-0.7,0.2-1.5,0.5-2.2c0.2-0.6,0.4-1.2,0-1.8c-0.3-0.5-0.8-0.6-1.3-0.6c-0.6,0.1-1.1,0.4-1.3,1
		c-0.1,0.3-0.4,0.6-0.6,0.9c-0.1,0.2-0.3,0.4-0.4,0.7c-0.1,0.4-0.2,0.8-0.4,1.2C82.1,95.3,81.9,95.8,81.8,96.1z M65.5,99.7
		c-0.2-0.4-0.2-0.7-0.5-0.9c-0.5-0.3-1-0.6-1.6-0.7c-0.7-0.2-1.4,0-1.9,0.6s-1.1,1.1-1.6,1.7c-0.1,0.1-0.2,0.4-0.2,0.5
		c0.3,0.6,0.5,1.2,0.9,1.7c0.2,0.3,0.5,0.6,0.8,0.7c0.8,0.2,1.6,0.2,2.2-0.6c0.4-0.4,0.8-0.8,1.1-1.2C65,100.9,65.2,100.3,65.5,99.7
		z M129.5,109.9c1.1,0,1.1,0,1.3-1c0-0.3,0.1-0.6,0.2-0.8c0.5-0.5,0.5-1.1,0.6-1.7c0.3-1.2-1.1-2.7-2.6-2.1
		c-0.2,0.1-0.3,0.3-0.4,0.5c-0.2,0.3-0.3,0.7-0.6,0.9c-0.6,0.5-0.7,0.8-0.5,1.6c0,0.1,0.1,0.3,0,0.3c-0.3,0.5,0,0.8,0.2,1.3
		C128.1,109.6,128.7,110,129.5,109.9z M48.2,104.1c-0.9,0-1.5,0.3-1.5,0.9s0.1,1.3,0.3,1.9c0.3,0.8,0.8,1.6,1.3,2.4
		c0.8,1.3,1.5,1.6,2.6,0.4c0.9-0.9,0.7-2.1-0.4-2.8c-0.3-0.2-0.6-0.6-0.8-0.9s-0.3-0.8-0.5-1.1C48.9,104.6,48.4,104.3,48.2,104.1z
		 M67,98.2c0.3-0.1,0.9-0.4,1.4-0.7c0.2-0.2,0.2-0.6,0.4-0.8c0.6-0.6,1.1-1.2,1.7-1.8c0.5-0.5,0.5-1.2,0.1-1.7
		c-0.5-0.5-1.1-0.5-1.6,0c-0.4,0.4-0.8,0.9-1.3,1c-0.9,0.2-1.5,0.8-2.1,1.4c-0.5,0.6-0.5,1.1-0.2,1.7C65.5,97.9,66,98.2,67,98.2z
		 M95.1,98c0.5,0,1.2,0.1,1.3-0.6c0.1-0.5,0-1.1-0.2-1.5c-0.4-0.8-0.9-1.6-1.4-2.4c-0.4-0.7-0.7-1.6-1.5-2.1
		c-0.4-0.3-1.1-0.2-1.3,0.1c-0.2,0.3-0.1,1.5,0.1,1.8s0.5,0.7,0.5,1c0,0.9,0.4,1.7,0.8,2.5C93.8,97.7,94.3,98.1,95.1,98z M99.1,96.5
		c0.8,0,1.4-0.3,1.6-0.8s0-1-0.6-1.6C100,94,100,94,99.9,93.9c-0.6-0.7-1.2-1.4-1.8-2.1c-0.6-0.8-1.4-1.3-2.4-1.6
		c-0.6-0.2-0.8,0-0.9,0.7c-0.2,1.1,0.6,1.6,1.2,2.2c0.7,0.7,1.5,1.3,1.7,2.4C98,96.2,98.6,96.4,99.1,96.5z M76.6,94.7
		c0.2-0.1,0.6-0.2,0.9-0.5c0.5-0.4,0.8-0.9,1.3-1.4c0.7-0.7,1.4-1.3,2-2c0.3-0.3,0.6-0.6,0.2-1c-0.3-0.4-0.7-0.8-1.2-0.5
		c-1.5,0.9-2.9,1.8-4.3,2.8C75,92.4,74.7,93,75,93.7C75.3,94.2,76,94.7,76.6,94.7z M71.5,90.4c0.3-0.1,0.7-0.3,1.2-0.5
		c0.6-0.3,1.1-0.7,1.7-0.9c0.7-0.3,1.5-0.6,2.2-0.9c0.2-0.1,0.4-0.7,0.3-1c-0.1-0.4-0.5-0.4-0.9-0.4c-0.6,0.1-1.1,0.1-1.7,0.2
		c-0.1,0-0.3,0.1-0.4,0.1c-0.7,0.2-1.4,0.4-2.1,0.7c-0.6,0.2-1.2,0.4-1.7,0.7c-0.5,0.3-0.5,0.9-0.2,1.4
		C70.2,90.3,70.7,90.3,71.5,90.4z M99.5,89.3c-0.4,0.1-0.6,0.2-0.8,0.3c-0.5,0.4-0.3,1.1,0.4,1.5c0.6,0.4,1.1,0.9,1.7,1.4
		c0.4,0.4,0.7,0.9,1.2,1.3c0.7,0.6,1.5,0.6,1.8,0.2s0.1-1.3-0.5-1.8c-0.7-0.7-1.5-1.4-2.3-2C100.6,89.8,100,89.6,99.5,89.3z
		 M79.9,96.4c0,0,0.3,0,0.4-0.1c0.5-0.4,1.2-0.7,1.3-1.4c0-0.2,0.1-0.4,0.3-0.5c0.5-0.3,0.5-0.8,0.5-1.3c0-0.6-0.5-1.1-0.9-0.9
		c-1.1,0.6-2.3,1.3-2.8,2.6C78.3,95.6,78.8,96.4,79.9,96.4z M107.5,89.8c0.1,0,0.2,0,0.3,0c0.7-0.1,0.9-0.3,0.6-1
		c-0.4-0.8-1.9-1.2-2.5-0.6c-0.1,0.1-0.2,0.3-0.2,0.4C105.9,89.4,106.7,89.8,107.5,89.8z M93.7,131.9c0.2-0.1,0.5-0.3,0.9-0.4
		c-0.1-0.2-0.3-0.5-0.4-0.7c-0.1-0.1-0.1-0.3-0.2-0.4c-0.1-0.1-0.2-0.3-0.3-0.3c-0.6-0.2-1.5,0.4-1.5,1.1c0,0.6,0.6,0.4,0.9,0.5
		C93.2,131.8,93.3,131.8,93.7,131.9z M106.6,91.2c-0.3-0.4-0.5-0.8-0.8-0.9s-0.8,0.1-1.2,0.2c-0.1,0-0.2,0.3-0.2,0.4
		c0.1,0.6,1,1.1,1.5,0.9C106.2,91.7,106.3,91.5,106.6,91.2z M98.8,86.2c-0.4-0.3-0.7-0.6-1.1-0.7c-0.4-0.2-0.6,0-0.6,0.5
		C97.2,86.6,98,86.8,98.8,86.2z M92,89.3c-0.1-0.1-0.2-0.2-0.3-0.2c-0.4,0-0.7,0-1.1,0.1c0,0.2,0,0.4,0.1,0.5
		c0.4,0.3,0.8,0.2,1.2-0.1C91.9,89.5,91.9,89.4,92,89.3z M93.8,85.7c0-0.1,0-0.1,0-0.2c-0.6-0.1-1.3-0.2-1.9,0c0,0.1,0,0.1,0,0.2
		C92.6,85.7,93.2,85.7,93.8,85.7z M86.9,131.1c-0.2,0.2-0.4,0.3-0.4,0.4c0.1,0.2,0.2,0.4,0.4,0.6c0.1-0.2,0.3-0.4,0.4-0.6
		C87.4,131.4,87.1,131.3,86.9,131.1z"/>
	<path d="M109.4,29.4c-0.1,0.7-0.3,1.3-0.4,1.9c-0.2,0.9-0.4,1.9-0.6,2.8c-0.2,1.2-0.9,1.9-2,2.2
		c-2.1,0.6-4.3,0.2-5.8-1.9c-0.7-1-0.7-2.1-0.5-3.2c0.2-1.1,0.5-2.2,0.8-3.3c0.1-0.5,0.4-1,0.7-1.3c1.1-1.1,2.4-1.8,4-1.8
		c0.1,0,0.1,0,0.2,0c1.1,0.7,2.4,1.1,3.1,2.3C109.2,27.9,109.2,28.7,109.4,29.4z M107.3,30.2c0-0.2,0-0.4,0-0.7
		c-0.1-1-1.1-2.1-2-2.2c-1.6-0.2-3.3,1.4-3.2,3c0,0.2,0,0.3,0,0.5c-0.3,1.6,0.3,2.7,1.6,3.5c0.6,0.3,1.1,0.4,1.5-0.1
		C106.5,33.2,107.3,31.9,107.3,30.2z"/>
	<path d="M42.6,58.5c-0.9-0.1-1.7-0.2-2.6-0.3c-0.2,0-0.5-0.1-0.7,0s-0.6,0.2-0.6,0.3c0,0.3,0.1,0.6,0.3,0.8
		c1,0.7,2,1.4,3,2.1c0.3,0.2,0.8,0.7,0.7,0.9c-0.1,0.5-0.8,0.4-1.1,0.3c-0.8-0.3-1.5-0.7-2.3-1c-0.2-0.1-0.5-0.2-0.7-0.3
		c-1.3-0.3-2.5-0.8-3.5-1.8c-0.3-0.3-0.7-0.6-1.1-0.8c-0.6-0.3-0.7-1.1-0.1-1.4c0.6-0.3,1.2-0.6,1.8-0.8c0.2-0.1,0.4-0.1,0.6-0.2
		c0.5-0.2,1-0.2,1.6-0.1c0.7,0.2,1.5,0.1,2.2,0.1c0.1,0,0.3-0.2,0.3-0.3c0-0.3,0-0.6-0.2-0.8c-0.7-0.6-1.4-1.1-2.1-1.7
		c-0.5-0.4-0.7-0.8-0.4-1.3c0.3-0.4,0.8-0.5,1.3-0.2c0.3,0.2,0.5,0.4,0.8,0.6c0.7,0.3,1.4,0.6,2.1,0.9c0.4,0.2,0.8,0.4,1.2,0.6
		c0.8,0.4,1.5,0.8,2.3,1.2c0.9,0.5,1,1.4,0.3,2.1c-0.5,0.6-1.2,0.8-1.9,0.8C43.4,58.5,43,58.5,42.6,58.5L42.6,58.5z"/>
	<path d="M86.5,29.9c-0.4,2.8-1.7,5.1-4.6,5.2c-0.4,0-0.8,0.1-1.1,0.2c-0.6,0.2-1.1-0.1-1.4-0.6c-0.3-0.6-0.5-1.3-0.6-2
		c-0.1-1.1-0.3-2.2-1-3.1c-0.1-0.1-0.2-0.2-0.2-0.3c-0.1-1.2-0.2-2.5-0.2-3.7c0-0.7,0.4-1.2,1.2-1.3c1.2-0.2,2.4-0.5,3.6-0.4
		c1.5,0.1,2.9,0.9,3.5,2.4C86.2,27.5,86.3,28.9,86.5,29.9z M84.7,30.6c0-0.2,0-0.4,0-0.5c-0.1-0.6-0.2-1.2-0.4-1.8
		c-0.2-0.6-0.5-1.3-1-1.8c-0.6-0.8-1.6-1-2.4-0.7C80,26.2,80,27,80.1,27.7c0.2,1.5,0.5,3,0.8,4.5c0.1,0.3,0.5,0.6,0.8,0.7
		C82.7,33.2,84.9,32.1,84.7,30.6z"/>
	<path d="M51,122.2c0,0.8-0.5,1.3-0.9,1.7c-0.7,0.6-1.4,1.2-2,1.8c-1.1,1.2-2.5,1.9-3.9,2.7c-0.7,0.4-1.6,0.2-2.3-0.6
		c-0.6-0.7-1.3-1.5-1.9-2.2c-0.4-0.5-0.6-0.9-0.2-1.6c0.3-0.5,0.5-1.1,0.8-1.7c0.1-0.2,0.2-0.3,0.4-0.4c1.2-0.7,2.2-1.7,3-2.8
		c0.4-0.6,0.9-1.2,1.5-1.4c0.5-0.2,1.3-0.1,1.8,0.2c0.9,0.7,1.7,1.6,2.5,2.4c0.3,0.3,0.5,0.6,0.7,0.9C50.7,121.7,50.9,122,51,122.2z
		 M44.6,121.8c0,0.8,0.4,1.4,1.1,1.8c0.8,0.4,1.7,0.7,2.6,0.1c0.4-0.3,0.6-0.6,0.4-1.1c-0.3-0.8-0.6-1.6-1.3-2.1
		c-0.5-0.4-1.1-0.8-1.8-0.4C45,120.4,44.5,120.9,44.6,121.8z M44.9,125.7L44.9,125.7c-0.1-1.5-1.2-2.5-2.4-2.3
		c-0.4,0.1-0.7,0.3-0.9,0.7c-0.3,0.8,0.1,1.8,0.9,2.5c0.5,0.5,1.2,0.6,1.7,0.3C44.5,126.8,44.7,126.1,44.9,125.7z"/>
	<path d="M149.8,88.6c-0.7-0.2-1.5-0.4-2.2-0.7c-1.1-0.5-2.2-0.7-3.3-0.1c-0.8,0.4-1.4,0.3-1.7-0.4
		c-0.1-0.2,0-0.6,0.1-0.7c0.7-0.9,1.7-1.2,2.8-1.3c0.6,0,1.1-0.1,1.3-0.8c0.2-0.7-0.1-1.5-0.7-1.8c-0.6-0.4-1.2-0.5-1.9-0.2
		c-0.7,0.4-1.7-0.2-1.8-1c-0.1-0.4,0.1-0.8,0.5-0.8c0.3-0.1,0.6,0,0.9-0.1c0.4,0,0.9-0.1,1.3-0.2c0.2,0,0.3-0.1,0.5-0.1
		c1.2,0,2.3,0,3.5,0.1c0.9,0,1.8,0,2.6,0c0.6,0,0.8,0.3,0.9,0.9c0.1,1,0.3,2.1,0.3,3.1c0,0.7-0.3,1.4-0.6,2.1
		C151.8,88.2,151.5,88.5,149.8,88.6C149.8,88.5,149.8,88.6,149.8,88.6z M151.7,84c0.1,0,0.1,0,0.2,0c-0.2-0.5-0.2-1-0.5-1.4
		c-0.5-0.6-1.8-0.4-2.4,0.2c-0.7,0.9-0.7,2.7,0.1,3.6c0.5,0.6,1.7,0.6,2.1-0.2C151.5,85.5,151.8,84.8,151.7,84z"/>
	<path d="M152.6,95.6c0.4,0.2,0.4,0.6,0.1,1c-0.7,0.8-1.5,1.5-2.4,2c-0.4,0.2-0.9,0.2-1.3,0.3c-0.7,0.1-1.3,0-2,0.1
		c-1,0.1-2-0.1-2.8-0.7c-0.6-0.5-1.3-0.8-2-1.2c-0.6-0.3-0.8-0.7-0.9-1.4c-0.3-1.4,0-2.5,1.1-3.5c0.7-0.7,1.4-1.4,2.4-1.6
		c1.6-0.2,3.2-0.3,4.6,0.6c0.8,0.5,1.7,1,2.5,1.5c0.3,0.2,0.6,0.5,0.9,0.8c0.1,0.1,0.2,0.4,0.1,0.6
		C152.9,94.7,152.7,95.1,152.6,95.6z M147.4,97.3c0.5,0,0.9,0,1.4,0c0.7,0,1.2-0.4,1.5-1.1c0.5-1.4,0.1-2-1.2-2.8
		c-1-0.7-2.2-0.7-3.4-1c-1.3-0.3-2,0.6-2.5,1.6c-0.4,0.8,0.1,2.2,0.9,2.7C145.1,97.3,146.3,97.4,147.4,97.3z"/>
	<path d="M116.6,38.5c-0.7,0-1.3,0.2-1.7,0.7c-0.2,0.2-0.4,0.4-0.6,0.4c-0.3,0-0.7,0-1-0.2s-0.1-0.6,0.1-0.8
		c0.6-0.8,1.2-1.6,1.8-2.4c0.2-0.2,0.4-0.3,0.6-0.5c0.5-0.5,1.1-1,1.6-1.6c0.8-0.9,1.5-1.9,2.3-2.7c0.5-0.5,1.2-0.6,1.8-0.3
		c0.2,0.1,0.5,0.4,0.6,0.6c0.1,0.4,0.1,0.9,0.1,1.4c-0.1,1.4-0.3,2.9-0.5,4.3c-0.1,0.7-0.5,1.4-0.7,2.1c-0.3,1.1-0.5,2.1-0.7,3.2
		c-0.1,0.6-0.6,1.1-1.1,1s-0.8-0.8-0.7-1.4c0.2-0.8,0.3-1.5,0.4-2.3c0.1-0.4-0.6-1.1-1.2-1.3C117.3,38.6,116.9,38.6,116.6,38.5z
		 M120,35.3c0-0.8-0.1-0.9-0.6-0.7c-0.6,0.3-1.2,0.7-1.4,1.4c-0.1,0.3,0.1,0.7,0.3,0.9c0.2,0.1,0.7,0,0.9-0.1
		C119.7,36.4,120,35.9,120,35.3z"/>
	<path d="M58.1,130.2c0.6-0.3,1.2-0.5,1.8-0.7c0.4-0.2,0.9-0.4,1.3,0.1c0.1,0.2,0.2,0.5,0.1,0.6
		c-0.4,0.5-0.8,1.2-1.3,1.5c-1.4,0.6-2.5,1.6-3.6,2.7c-0.5,0.5-1.2,0.8-1.9,1.1s-1.5,0.6-2.2,0.9c-1,0.3-1.7-0.3-1.6-1.4
		c0.1-1.4,0.7-2.7,1.1-3.9c0.5-1.3,0.9-2.6,1.4-3.9c0.2-0.5,0.3-1.1,0.5-1.7c0.1-0.2,0.4-0.4,0.6-0.4c0.4,0,0.7,0.3,0.6,0.7
		c0,0.2-0.1,0.5-0.2,0.7c-0.4,0.9-0.2,1.7,0.7,2.3c0.6,0.4,1.2,0.9,1.9,1.3C57.4,130,57.7,130.1,58.1,130.2z M52.7,132.8
		c0.2,0.4,0.3,0.8,0.4,0.8c0.3,0.1,0.7,0,0.9-0.2c0.3-0.2,0.6-0.5,0.8-0.8c0.5-0.6,0.5-1.2,0-1.8c-0.3-0.3-0.9-0.4-1.1,0
		C53.4,131.5,53.1,132.2,52.7,132.8z"/>
	<path d="M37.4,104.1c0.4-0.1,0.7-0.1,1.1-0.2c0.2,0,0.4-0.1,0.6,0c0.6,0.1,0.8,0.4,0.5,1c-0.4,0.7-0.9,1.3-1.9,1.3
		c-0.1,0-0.2,0-0.3,0c-1.4,0.4-2.8,0.8-4.2,1.2c-0.3,0.1-0.6,0.2-0.9,0.3c-0.9,0.2-2-0.5-2.1-1.5c-0.1-0.6,0-1.2-0.2-1.7
		c-0.1-0.6-0.4-1.2-0.7-1.7c-0.7-1.2-0.1-2.1,0.6-3c0.2-0.3,0.4-0.5,0.7-0.7c0.4-0.3,0.9-0.2,1.4,0c0.7,0.2,1.4,0.5,2.1,0.3
		c0.6-0.1,1.2-0.7,1.7-1.1c0.4-0.2,0.7-0.6,1.1-0.7c0.5-0.2,0.8,0.1,0.7,0.7c0,0.6-0.4,0.9-0.9,1.1c-1.2,0.6-1.7,1.5-1.5,2.8
		C35.3,103.4,36.5,104.2,37.4,104.1z M34.1,104.1c0-0.8-0.5-1.9-1.3-2.8c-0.4-0.5-0.9-0.7-1.4-0.4c-0.5,0.3-0.7,0.8-0.6,1.3
		c0.2,0.9,0.5,1.7,0.8,2.5c0.3,0.7,1,1,1.6,0.8C33.9,105.4,34.1,105,34.1,104.1z"/>
	<path d="M67.8,28.1c0.1-0.8,0.5-1.4,1.2-1.5c0.9-0.1,1.8-0.5,2.7-0.8c0.7-0.3,1.5-0.4,2.3-0.1c0.6,0.3,0.8,0.7,0.5,1.2
		c-0.4,0.4-0.9,0.8-1.4,1S72,28,71.5,28.2c-0.5,0.2-0.8,0.5-1.2,0.8c-0.1,0.1-0.1,0.4,0,0.5c0.4,0.5,0.8,0.9,1.6,0.6
		c0.4-0.2,0.8-0.2,1.2-0.2c0.3,0,0.6,0.2,0.8,0.4c0.2,0.3,0.2,0.7-0.1,1c-0.3,0.2-0.6,0.5-0.9,0.6c-1,0.5-1.4,1.1-1,1.8
		c0.5,1.1,1.1,1.9,2.3,1.4c0.4-0.2,0.9-0.3,1.4-0.3c0.3,0,0.9,0.2,0.9,0.4c0.1,0.3-0.1,0.9-0.4,1c-0.6,0.4-1.3,0.6-2,0.8
		c-0.5,0.2-1.1,0.3-1.7,0.4c-0.2,0-0.4,0-0.6,0c-0.8-0.4-1.4-0.9-1.6-1.8c-0.2-0.8-0.4-1.5-0.6-2.3c-0.3-1.1-0.7-2.2-1-3.4
		C68.1,29.4,68,28.8,67.8,28.1z"/>
	<path d="M40.6,109.1c0.4,0,0.8,0,1.2,0.1c0.5,0,0.9,0.2,1.2,0.7c0.1,0.2,0.3,0.3,0.4,0.5c0.3,0.4,0.9,0.8,1,1.2
		c0.2,0.8,0.3,1.8,0,2.6c-0.2,0.6-1,1.1-1.6,1.6c-0.7,0.6-1.7,0.8-2.3,1.5c-0.2,0.3-0.9,0.3-1.3,0.3c-0.6,0-1.1,0-1.6,0.4
		c-0.1,0.1-0.3,0.1-0.4,0.1c-0.9-0.2-1.9-0.1-2.5-1.1c-0.2-0.3-0.5-0.7-0.8-1c-0.6-0.8-0.5-1.7-0.3-2.6c0-0.1,0-0.2,0.1-0.3
		c0.7-1,1.3-2.2,2.6-2.7c0.4-0.2,0.6-0.5,1-0.7C38.4,109.3,39.5,109.2,40.6,109.1z M42.4,113.1c0-1.2-1.9-2.4-2.9-2
		c-0.4,0.2-0.9,0.2-1.3,0.3c-1.1,0.2-1.7,0.7-2,1.8c-0.1,0.2-0.2,0.5-0.3,0.7c-0.5,1.1-0.5,1.5,0.4,2.3c0.6,0.6,1,0.6,1.7,0.3
		c0.2-0.1,0.4-0.2,0.6-0.2c1.6-0.3,2.8-1.1,3.6-2.6C42.3,113.4,42.4,113.2,42.4,113.1z"/>
	<path d="M35.1,85.9c-0.2-0.5-0.2-0.9,0.1-1.3c0.7-1.1,0.8-2.3,0.3-3.6c-0.1-0.4-0.9-0.7-1.2-0.4
		c-0.5,0.4-1.1,0.8-1,1.5c0,0.3,0,0.7,0,1c0,0.6,0,1.1-0.5,1.5l-0.1,0.1c-0.1,1.1-1.1,1.2-1.8,1.6c-0.1,0.1-0.3,0.1-0.4,0.1
		c-0.6-0.2-1.3-0.4-1.9-0.6c-0.1,0-0.3-0.1-0.3-0.2c-0.5-1.2-1.4-2.3-1-3.8c0.1-0.4,0.1-0.9,0.1-1.3c0-0.8,0.8-1.6,1.6-1.4
		c0.5,0.1,0.6,0.4,0.3,0.8c-0.6,0.8-0.5,1.7-0.5,2.5c0,0.4,0,0.9,0.5,1.1c0.6,0.2,1.5,0.1,1.8-0.3s0.4-0.8,0.6-1.2
		c0.1-0.4,0.1-0.9,0.2-1.4c0.1-1.3,0.6-1.9,1.9-2.2c0.7-0.1,1.4-0.1,2.1,0c0.3,0.1,0.6,0.4,0.9,0.7c0.2,0.2,0.4,0.5,0.5,0.8
		c0.1,0.2,0.1,0.4,0.2,0.6c0.1,0.4,0,0.9,0.1,1.3c0.2,0.6,0.2,1.2-0.2,1.8c-0.1,0.2-0.2,0.3-0.3,0.5C37,85.5,36.2,85.9,35.1,85.9z"
		/>
	<path d="M152.3,73.9c-0.1,0.7-0.2,1.2-0.3,1.8c-0.2,0.9-0.8,1.4-1.5,1.9c-0.1,0.1-0.2,0.1-0.3,0.1
		c-1.3,0.5-3.2-0.3-4-1.4c-0.5-0.7-0.6-1.3-0.7-2.1c-0.1-1.2-1-1.7-2.1-1.3c-0.5,0.2-1,0.2-1.5,0.2c-0.3,0-0.6-0.4-0.7-0.7
		c-0.1-0.2,0.2-0.5,0.3-0.7c0.1-0.1,0.2-0.2,0.3-0.2c1.1-0.3,2.1-0.6,3.2-0.9c0.5-0.1,1-0.1,1.4-0.4c1-0.6,2.1-0.6,3.2-0.7
		c0.3,0,0.8,0.3,1,0.6c0.5,0.8,0.9,1.6,1.2,2.4C152.1,72.8,152.2,73.4,152.3,73.9z M150.4,73.2h0.1c-0.1-0.3-0.1-0.6-0.2-0.9
		c-0.3-0.7-1.2-1.3-1.8-1.1c-0.7,0.2-1.3,1-1.3,1.7c0.1,0.7,0.2,1.4,0.5,2c0.2,0.5,0.7,0.8,1.2,1.1c0.7,0.3,1.4-0.2,1.5-1
		C150.4,74.4,150.4,73.8,150.4,73.2z"/>
	<path d="M37.4,72.3c-1.1-0.4-2.1-0.8-3.2-1.1c-0.7-0.2-1.5-0.3-2.3-0.5c-1-0.3-2-0.4-2.8-1.2c-0.3-0.4-0.4-0.7-0.3-1.1
		c0.3-0.8,0.5-1.6,0.7-2.3c0.1-0.3,0.4-0.6,0.6-0.8c0.3-0.4,0.6-0.9,0.9-1.3c0.2-0.4,0.6-0.4,0.8,0c0.3,0.6,0.3,1.2-0.1,1.8
		c-0.4,0.7-0.5,1.4-0.4,2.1c0.1,0.4,0.3,0.7,0.7,0.8c0.4,0,0.9,0,1.1-0.5c0.3-0.6,0.5-1.3,0.7-2c0.1-0.2,0.1-0.5,0.2-0.7
		c0.2-0.4,0.8-0.5,1.1-0.4c0.4,0.2,0.6,0.8,0.4,1.2c-0.2,0.6-0.5,1.3-0.6,2c-0.2,0.9,0.6,1.7,1.5,1.8c1,0.1,1.5-0.4,1.6-1.5
		c0-0.2,0.1-0.4,0.2-0.6c0.3-0.5,0.5-1,0.8-1.4c0.1-0.2,0.5-0.4,0.5-0.4c0.2,0.2,0.5,0.4,0.5,0.6c0,0.5,0,1-0.2,1.4
		c-0.2,0.8-0.5,1.7-0.8,2.5s-1,1.4-1.9,1.4C37.5,72.2,37.5,72.3,37.4,72.3z"/>
	<path d="M118.6,137.8c-0.7,0.2-1.3,0.4-2,0.5s-1.3,0.3-2,0.3c-1,0-1.7-0.5-2-1.5c-0.2-0.9-0.4-1.8-0.4-2.7
		c0-0.5,0.4-1.1,0.7-1.6c0.9-1.4,2.4-1.9,4-2.2c0.2,0,0.5,0.3,0.8,0.4c-0.1,0.2-0.3,0.5-0.5,0.6c-0.9,0.5-1.7,1-2.6,1.4
		c-0.6,0.3-1,1.5-0.5,2.1c0.4,0.4,0.9,0.8,1.4,1c0.4,0.2,0.9,0.1,1.3-0.3c1.7-1.4,4-1.2,5.4,0.5c0.1,0.1,0.1,0.2,0.2,0.2
		c0.2,1.1,0.3,2.2-0.2,3.3c-0.2,0.5-1.3,0.7-1.7,0.5c-0.1-0.1-0.2-0.2-0.2-0.4s0-0.5,0.1-0.7c0.3-0.9-0.1-1.4-1.1-1.5
		C119.1,137.9,118.8,137.9,118.6,137.8C118.6,137.9,118.6,137.8,118.6,137.8z"/>
	<path d="M145.1,108.8c-0.7,0.5-1.4,0.5-2.1,0.3c-2.2-0.7-3.6-3.1-3.3-5.2c0.1-0.8,0.4-1.6,0.7-2.3
		c0.2-0.6,0.9-0.7,1.4-0.6c2.1,0.3,4.2,0.5,6,1.6c0.6,0.3,1.1,0.8,1.5,1.2c0.4,0.4,0.3,0.9,0.1,1.4c-0.4,1-0.9,1.9-1.4,2.9
		c-0.1,0.2-0.3,0.4-0.5,0.5c-0.4,0.2-1,0.3-1.2-0.2c-0.1-0.3,0.2-0.8,0.4-1.2c0.2-0.3,0.5-0.5,0.7-0.8c0.3-0.4,0.2-0.8-0.1-1.1
		c-0.5-0.4-1.1-0.8-1.7-1.2c-0.5-0.3-1-0.5-1.4-0.7c-0.8-0.4-1.6-0.9-2.5-0.3c-0.3,0.2-0.5,0.5-0.6,0.9c-0.3,1.3,0.5,2.1,1.4,2.9
		C143.4,107.4,144.2,108,145.1,108.8z"/>
	<path d="M62.2,142.3c0.4-0.7,0.8-1.5,1.1-2.3c0.1-0.3,0.1-0.6,0.2-0.9c0-0.2,0.1-0.4,0.2-0.5c1-0.9,1.2-2.1,1.2-3.4
		c0-0.3-0.3-0.8-0.5-1c-0.3-0.4-0.8-0.6-1.1-1c-0.4-0.4-0.6-1.3-0.4-1.8c0.2-0.5,1-0.5,1.5-0.2c0.7,0.4,1.5,0.8,2.3,1.2
		c0.6,0.3,1.2,0.6,1.7,1c0.5,0.3,0.5,0.8,0.2,1.3c-0.4,0.8-0.8,1.7-1.2,2.5c-0.6,1.1-1.2,2.3-1.9,3.4c-0.1,0.3-0.3,0.5-0.4,0.8
		c-0.4,0.7-0.8,1.5-1.3,2.2c-0.1,0.1-0.2,0.2-0.3,0.1c-0.5-0.1-1.1-0.9-1.1-1.5C62.3,142.3,62.3,142.3,62.2,142.3z"/>
	<path d="M140.9,120.2c-0.4-0.3-0.8-0.6-1.2-0.9c-0.2-0.1-0.3-0.2-0.5-0.3c-0.5-0.3-1.2-0.4-1.6-0.8
		c-0.9-0.7-1.8-1.5-2.6-2.3c-1.4-1.4-1.1-1.9-0.2-3.4c0.1-0.2,0.3-0.4,0.4-0.6c0.7-2.1,2.2-2.3,3.9-2.1c1.5,0.2,2.7,1.1,3.8,2
		c0.6,0.5,1.2,1.1,1.8,1.6c0.3,0.3,0.5,0.6,0.2,1s-0.7,0.4-1.1,0.1c-0.6-0.3-1.2-0.5-1.8-0.8c-0.2-0.1-0.4-0.2-0.5-0.4
		c-0.6-0.5-1.2-1-1.8-1.5c-0.8-0.6-2.5-0.3-3.2,0.5c-0.6,0.7-0.5,2.2,0.1,3c0.4,0.6,0.9,0.9,1.5,1.2c1.1,0.6,2.3,1.2,3,2.3
		C141.3,119.3,141.2,119.7,140.9,120.2z"/>
	<path d="M148.4,62.8c-0.2,0.3-0.4,0.7-0.7,0.8c-0.4,0.1-0.9-0.1-1.1-0.5c-0.2-0.3-0.3-0.7-0.6-1
		c-0.6-0.7-1-0.7-1.8-0.4c-0.7,0.3-1.4,0.8-2.1,1c-1,0.4-2,0.7-3.1,0.9c-0.5,0.1-1.2,0-1.3-0.5c-0.2-0.6,0.4-0.9,0.9-1.1
		c1.5-0.7,3-1.4,4.5-2.2c0.8-0.4,1.6-1.3,0.8-2.5c-0.3-0.5-0.4-1-0.2-1.6c0.1-0.3,0.3-0.4,0.6-0.3c0.7,0.3,1.3,0.7,1.6,1.4
		c0.6,1.3,1.3,2.6,1.9,3.9C148,61.3,148.1,62,148.4,62.8z"/>
	<path d="M127.4,135.1c0.6-0.8,1.1-1.6,1.6-2.4c0.2-0.3,0.4-0.7,0.3-0.9c-0.3-0.4-0.7-0.8-1.2-1s-1.2-0.1-1.5,0.6
		c-0.1,0.2-0.2,0.3-0.4,0.5c-0.4,0.5-1,0.4-1.2-0.2c-0.2-0.4-0.1-0.6,0.3-0.7c1.1-0.3,1.2-1.2,1.2-2.1c0-0.7-0.5-1.2-1.2-1.5
		c-0.8-0.2-1.2,0-1.7,0.6c-0.3,0.4-0.6,0.8-1,1.1c-0.3,0.2-0.7,0.3-1.1,0.3c-0.2,0-0.5-0.3-0.6-0.5c0-0.2,0.1-0.6,0.3-0.8
		c0.8-0.8,1.6-1.5,2.4-2.3c0.2-0.2,0.3-0.4,0.5-0.6c0.4-0.2,0.7-0.4,1.1,0s0.9,0.5,1.3,0.9c0.7,0.7,1.5,1.3,1.9,2.2
		c0.2,0.4,0.7,0.7,1,1.1c0.2,0.2,0.4,0.4,0.6,0.6c0.2,0.2,0.4,0.5,0.7,0.7c0.8,0.6,0.9,1.2,0.3,1.9c-0.4,0.5-0.9,1-1.4,1.5
		c-0.2,0.2-0.3,0.3-0.4,0.5C128.8,135.5,128.2,135.6,127.4,135.1z"/>
	<path d="M131.5,118.9c1.5-0.1,2.9,0.3,4.1,1.3c1.8,1.6,2.7,3.5,2.5,5.9c-0.1,1.6-1.4,2.7-3,2.6c-0.5,0-0.8-0.3-0.9-0.8
		c-0.1-0.5,0.3-0.6,0.6-0.7s0.7-0.2,0.9-0.4c1-0.7,1.2-1.6,0.7-2.8c-0.3-0.7-0.5-1.4-1.1-1.8c-0.1-0.1-0.2-0.2-0.3-0.2
		c-0.9-0.1-1.4-0.7-2.1-1.1c-0.9-0.5-2.5-0.1-3.1,0.8c-0.2,0.4-0.3,0.7-0.1,1.1c0.1,0.3,0.1,0.7-0.1,0.9c-0.3,0.5-0.9,0.5-1.1-0.1
		c-0.2-0.6-0.5-1.3-0.4-2c0-0.4,0.5-0.9,0.8-1.3c0.1-0.2,0.3-0.4,0.4-0.6c0.3-0.8,0.7-1,1.5-1C131.1,118.9,131.3,118.9,131.5,118.9z
		"/>
	<path d="M39.8,47.6c0.1-0.3,0.2-0.5,0.3-0.7c0.2-0.3,0.4-0.6,0.7-0.8c0.9-0.7,1.4-1.6,2-2.5c0.3-0.5,0.8-0.9,1.3-1.2
		c0.3-0.2,0.8-0.1,1,0s0.2,0.6,0.2,0.9c-0.1,0.4-0.3,0.7-0.5,1.1c-0.5,0.8-0.5,1.2,0.2,1.9c1.4,1.4,2.9,2.6,4.7,3.6
		c0.5,0.3,0.5,0.6,0.4,1.1c-0.1,0.2-0.2,0.4-0.2,0.6c-0.3,0.7-0.9,0.8-1.5,0.2c-0.7-0.9-1.4-1.7-2.6-2.1c-0.4-0.1-0.6-0.5-0.9-0.7
		c-0.5-0.4-1.1-0.8-1.6-1.2c-0.7-0.4-1.2-0.3-1.7,0.3c-0.3,0.3-0.7,0.5-1.1,0.5C40.1,48.5,40,47.9,39.8,47.6z"/>
	<path d="M92.8,23.7c0.8,0,1.6-0.1,2.4,0c1.1,0.1,2.3,0.3,3.4,0.4c0.4,0.1,0.7,0.3,0.7,0.8s-0.3,0.9-0.8,0.9
		c-0.5,0.1-1,0.1-1.6,0.1c-0.5,0-0.8,0.3-1,0.8c-0.5,1.3-0.6,2.6-0.5,3.9c0,0.3-0.1,0.7-0.1,1.1c0.1,0.9-0.2,1.7-0.5,2.5
		c-0.1,0.4-0.3,0.6-0.7,0.6c-0.4,0-0.6-0.3-0.6-0.7c0-1.3-0.3-2.6,0.3-3.8c0,0,0,0,0-0.1c-0.3-1,0.3-2,0.2-3c0-0.9-0.3-1.3-1.2-1.6
		c-0.4-0.1-0.8-0.3-1.1-0.4c-0.6-0.2-0.8-0.6-0.7-1.1c0.1-0.3,0.5-0.4,0.9-0.6C92.1,23.6,92.5,23.7,92.8,23.7L92.8,23.7z"/>
	<path d="M127.8,36.4c0.6,0,0.9,0.3,0.8,0.8c-0.2,0.7-0.5,1.3-0.8,1.9c-0.3,0.5-0.8,1-1.2,1.5c-0.7,0.9-1.5,1.8-2.2,2.7
		c-0.4,0.5-0.3,1,0.1,1.4c0.5,0.5,1.1,1,1.5,1.5c0.2,0.3,0.4,0.9,0.2,1.2c-0.2,0.5-0.8,0.5-1.2,0.3c-0.6-0.3-1.2-0.7-1.8-1.1
		c-0.3-0.2-0.5-0.4-0.8-0.6c-0.8-0.5-1.1-1.5-0.8-2.4c0.4-1.1,1.1-2.1,2-2.8c1.3-0.9,2-2.2,2.8-3.5
		C126.9,36.7,127.2,36.4,127.8,36.4z"/>
	<path d="M60.1,42.4c0,0.6-0.5,0.7-0.9,0.9c-0.4,0.1-1,0.2-1.1-0.3c-0.3-1.2-1.2-1.7-1.8-2.6c-0.4-0.6-0.8-1.2-1.1-1.8
		c-0.5-1-1.8-1.7-2.8-1.5c-0.2,0.1-0.5,0.3-0.7,0.3c-0.3,0-0.7,0-0.8-0.2s0-0.6,0.2-0.8c0.5-0.6,1.1-1.1,1.7-1.5
		c0.8-0.7,1.6-1.3,2.5-1.9c0.5-0.3,1-0.4,1.5-0.2c0.4,0.2,0.5,0.4,0.2,0.7c-0.2,0.3-0.4,0.5-0.6,0.7c-1,1.1-1.2,1.8-0.2,3
		c0.7,0.9,1.3,1.9,2.4,2.5c0.2,0.1,0.4,0.4,0.5,0.6c0.4,0.5,0.7,1.1,1,1.6C60.1,42.1,60.1,42.3,60.1,42.4z"/>
	<path d="M127.1,49.5c-0.2-0.8,0.2-1.4,0.8-1.8c0.2-0.2,0.4-0.5,0.5-0.8c0.2-0.2,0.3-0.5,0.5-0.7c0.4-0.5,1-0.9,1.3-1.4
		c0.4-0.5,0.7-1,1.3-1.3c0.2-0.1,0.5-0.3,0.6-0.5c0.4-0.5,0.9-0.7,1.5-0.8s1,0.5,0.7,1c-0.3,0.4-0.6,0.8-0.9,1.2
		c-0.3,0.3-0.6,0.7-0.9,1c-0.7,0.8-1.5,1.6-2.2,2.4c-0.7,0.8-0.7,2,0.1,2.7c0.3,0.3,0.6,0.6,0.9,0.9c0.3,0.3,0.3,0.5,0.1,0.9
		c-0.4,0.7-0.9,0.8-1.5,0.2c-0.6-0.5-1.1-1-1.9-1.1c-0.3,0-0.7-0.4-0.9-0.8c-0.2-0.3-0.3-0.7-0.4-1.1C127,49.5,127,49.5,127.1,49.5z
		"/>
	<path d="M60.2,31.2c0.9-0.1,1.2,0.6,1.5,1.2c0.4,0.7,0.8,1.4,1.1,2.1c0.5,1.2,1.3,2.3,2.4,3c0.4,0.3,1.1,0.2,1.7,0.2
		c0.3,0,0.7-0.1,1,0c0.2,0,0.5,0.2,0.5,0.4c0.1,0.1,0,0.4-0.2,0.6c-1,1.1-2.4,1.6-3.9,1.7c-0.7,0.1-1.1-0.3-1.3-1
		c-0.1-0.3-0.3-0.5-0.4-0.8c-0.1-0.1-0.2-0.2-0.2-0.3c-0.2-1.4-1.3-2.3-1.9-3.5c-0.4-0.8-0.8-1.6-1.1-2.4
		C59.2,31.7,59.5,31.2,60.2,31.2z"/>
	<path d="M144.2,53.2c-0.1,0.5-0.5,1.1-1.1,1.4c-1,0.4-1.9,1-2.8,1.6c-1.2,0.7-2.4,1.3-3.6,1.9
		c-0.2,0.1-0.4,0.2-0.6,0.4c-0.4,0.4-0.8,0.3-1.1,0c-0.4-0.3-0.7-0.7-0.2-1.2s1.1-1,1.7-1.4c1.2-0.8,2.4-1.4,3.5-2.2
		c0.1-0.1,0.3-0.2,0.4-0.3c0.7-0.4,1.4-0.9,2-1.3c0.4-0.2,0.7-0.5,1.1-0.2C144.1,52.3,144.2,52.4,144.2,53.2z"/>
	<path d="M53.3,47.1c-0.1-0.1-0.3-0.2-0.5-0.3c-0.8-0.7-1.5-1.4-2.3-2.1c-1.3-1.1-2.5-2.4-3.3-3.9
		c-0.1-0.3,0-0.8,0.1-1.1c0.2-0.3,0.6-0.5,1-0.2s0.8,0.6,1.2,1c0,0,0.1,0.1,0.1,0.2c1.3,1.5,2.5,3.1,4.1,4.2c0.6,0.4,0.8,1,0.8,1.7
		C54.5,47,53.9,47.1,53.3,47.1z"/>
	<path d="M30.8,90.5c-0.7,0-1.5,0-2.2-0.1c-0.5,0-1-0.6-1-1.1c0-0.2,0.3-0.6,0.5-0.6c0.9-0.2,1.8-0.3,2.7-0.3
		c1.1,0,2.3,0.1,3.4-0.2c0.5-0.1,1-0.1,1.5,0c0.4,0,0.8,0.4,0.7,0.8c0,0.3-0.3,0.6-0.5,0.8c-0.1,0.1-0.4,0.2-0.6,0.2
		C33.9,90.2,32.4,90.4,30.8,90.5C30.9,90.6,30.9,90.6,30.8,90.5z"/>
	<path d="M97.9,143.1c-1,0-1.7,0-2.4,0c-0.5,0-0.8-0.3-0.8-0.8c-0.1-0.5,0.2-0.7,0.6-0.8c0.3,0,0.5,0,0.8,0
		s0.6,0,0.8-0.1c0.8-0.6,1.8-0.5,2.7-0.6c0.4,0,0.8-0.1,1.2,0c0.2,0,0.6,0.3,0.6,0.4c0,0.3-0.1,0.6-0.3,0.9
		c-0.1,0.1-0.2,0.2-0.4,0.3C99.6,142.5,98.7,143.4,97.9,143.1z"/>
	<path d="M80.1,142.7c-0.7-0.1-1.4-0.3-2.1-0.4c-0.5-0.1-0.9-0.2-1.4-0.2s-1.1-0.4-1.2-0.8c-0.1-0.5,0.1-0.8,0.6-0.9
		c1.6-0.3,3.2-0.2,4.7,0.5c0.8,0.4,1,1.2,0.4,1.6C80.9,142.6,80.5,142.6,80.1,142.7z"/>
	<path d="M88.7,141.5c0.6,0,1.2,0.5,1.2,0.9s-0.7,1.2-1.1,1.2c-0.8,0-1.4-0.6-1.4-1.2C87.5,141.8,87.9,141.5,88.7,141.5
		z"/>
	<path d="M116.6,141.9c0.5-0.6,0.9-1.1,1.7-0.9c0.4,0.1,0.8-0.2,1.2-0.2c0.2,0,0.3,0.1,0.5,0.2
		c-0.1,0.1-0.1,0.3-0.3,0.4c-0.5,0.4-1,0.8-1.5,1.2c-0.4,0.4-0.8,0.3-1.1-0.1C117,142.2,116.8,142.1,116.6,141.9z"/>
	<path d="M121.3,63.4c1,0,2,0,2.9,0c1.3,0,2.2,0.7,2.5,1.8c0.2,0.9-0.2,1.4-1.1,1.5c-0.3,0-0.5,0.1-0.8,0.1
		c-0.8,0-1.1,0.5-1.4,1.1c-0.2,0.4-0.4,0.7-0.6,1.1c-0.2,0.6-0.3,1.3-0.5,1.9c-0.1,0.4-0.1,0.8-0.2,1.2c-0.4,1.3-0.9,2.7-1.4,4
		s-0.9,2.5-1.5,3.8c-0.1,0.2-0.5,0.5-0.7,0.5c-1.1,0.1-2.1-0.7-2.3-1.8c-0.2-0.7-0.6-1.4-0.7-2.1c-0.3-1.2-0.5-2.4-0.8-3.6
		c-0.1-0.4-0.3-0.9-0.5-1.3c-0.1-0.2-0.4-0.5-0.6-0.5c-0.3,0.1-0.7,0.3-0.8,0.6c-0.3,0.5-0.6,1.1-0.7,1.6c-0.3,1.2-1,2.2-1.1,3.5
		c0,0.8-0.4,1.6-0.7,2.4c-0.4,0.8-1.7,0.8-2.2,0c-0.6-1.1-1.1-2.3-1.5-3.5c-0.4-1.1-0.6-2.3-0.9-3.5c0-0.2-0.2-0.3-0.3-0.5
		c-0.2-0.5-0.4-1-0.6-1.6c-0.2-0.5-0.3-1.1-0.6-1.6c-0.5-1-1.2-2-2.4-2.4c-0.3-0.1-0.7-0.4-0.9-0.6c-0.4-0.3-0.3-1,0.1-1.3
		c0.4-0.3,0.8-0.5,1.3-0.6c0.9-0.2,1.8-0.4,2.7-0.4c0.9,0,1.9,0.1,2.8,0.3c1.2,0.2,1.5,1.4,0.8,2.5c-0.1,0.2-0.3,0.3-0.4,0.5
		c-0.5,0.6-0.7,1.3-0.4,2c0.3,0.7,0.5,1.4,0.9,2c0.1,0.2,0.5,0.5,0.7,0.5c0.3-0.1,0.5-0.4,0.7-0.7c0.1-0.2,0.1-0.5,0.2-0.8
		c0.2-0.8,0.4-1.5,0.6-2.3c0.1-0.3,0.1-0.6,0.2-0.9c0.3-0.7,0.5-1.5,0.9-2.2c0.9-1.3,2.9-1,3.6,0.4c0.2,0.4,0.5,0.8,0.7,1.3
		s0.4,1,0.5,1.6c0.2,0.7,0.4,1.4,0.6,2.2c0.1,0.4,0.2,0.9,0.3,1.3c0.1,0.5,0.4,0.7,0.9,0.7s0.7-0.3,0.8-0.7c0.2-0.8,0.5-1.5,0.8-2.2
		c0.4-0.9,0.2-1.7-0.7-2.2c-0.6-0.3-1.1-1.2-0.9-1.9c0.1-0.5,0.4-0.9,0.9-1C120.3,63.5,120.8,63.5,121.3,63.4L121.3,63.4z"/>
	<path d="M74.3,63.4c0.8,0,1.8,0.1,2.8,0.1c0.6,0,1.3,0.5,1.4,1c0.2,0.5,0.1,1.1-0.4,1.4c-0.3,0.2-0.6,0.2-1,0.2
		c-1.3,0.1-1.9,0.6-2.2,2c-0.1,0.4-0.3,0.9-0.5,1.3c-0.5,0.9-0.8,1.7-0.9,2.7c0,0.4-0.2,0.9-0.3,1.3c-0.1,0.7-0.3,1.4-0.4,2
		c-0.1,0.3-0.1,0.6-0.2,0.9c-0.4,0.8-0.8,1.6-1.2,2.4c-0.3,0.6-1,1.1-1.5,1c-0.3-0.1-0.6-0.3-0.7-0.5c-0.6-1.7-1.1-3.4-1.7-5.1
		c-0.4-1-0.9-1.8-1.4-2.8c-0.2-0.3-0.5-0.4-0.7-0.1S65,72,64.9,72.4c-0.1,0.5-0.1,0.9-0.2,1.4c-0.3,1.1-0.6,2.1-0.9,3.2
		c-0.2,0.7-0.4,1.5-0.7,2.2s-1.7,0.9-2.1,0.3c-0.3-0.3-0.5-0.7-0.6-1.1c-0.3-0.8-0.8-1.6-0.9-2.5c-0.2-1.2-0.8-2.1-1.3-3.1
		c-0.2-0.4-0.1-1-0.3-1.4c-0.4-1-0.8-2-1.2-3c0-0.1-0.1-0.2-0.1-0.3c-0.2-1.3-1-1.9-2.2-2.1c-0.1,0-0.2-0.1-0.3-0.1
		c-0.4-0.2-1-0.3-1-0.9c0-0.8,0.6-1.4,1.3-1.5s1.3,0,2-0.1c0.6-0.1,1.2-0.2,1.8-0.3c0.1,0,0.2,0,0.2,0c1.1,0.2,2.2,0.4,3.3,0.8
		c0.8,0.3,0.9,1.1,0.2,1.6c-0.4,0.3-0.9,0.5-1.3,0.7c-0.7,0.3-0.9,0.6-0.6,1.3c0.4,1,0.8,1.9,1.2,2.8c0.1,0.3,0.4,0.5,0.7,0.7
		c0.5,0.3,0.9,0.1,1.1-0.5c0.3-1.1,0.5-2.2,1.3-3.1c0.2-0.3,0.2-0.7,0.3-1.1c0-1.1,0.3-2.1,1.2-2.7c0.3-0.2,0.9-0.2,1.1,0
		c0.6,0.4,1.1,1,1.3,1.8c0.4,1.1,0.8,2.2,1.1,3.3c0.2,0.6,0.3,1.2,0.5,1.8c0.2,0.4,0.4,0.8,1,0.9c0.5,0,0.8-0.3,0.9-0.7
		c0.4-1,0.8-1.9,1.1-2.9c0.3-0.9,0-1.2-0.8-1.7c-0.6-0.3-1.1-0.6-1.1-1.3c0-0.2,0.1-0.6,0.3-0.6C72.2,63.9,73,63.3,74.3,63.4z"/>
	<path d="M96,58.6c-0.5,0.7-1.1,1.4-1.9,1.6c-0.2,0.1-0.5,0-0.7-0.1c-0.3-0.1-0.7-0.3-1-0.3c-1.9,0-3.8,0-5.7,0.1
		c-1,0-1.8-0.4-2.3-1.1c-0.2-0.3-0.2-0.8-0.1-1.2c0.1-0.3,0.5-0.5,0.8-0.6c0.4-0.1,0.9-0.2,1.3-0.3c0.8-0.2,1-0.5,1-1.4
		c0-0.6,0.1-1.3,0.1-1.9c0-0.1,0-0.2,0-0.2c-0.1-1.4-0.1-2.9-0.2-4.3c-0.1-0.9-0.5-1.2-1.4-1.2c-0.6,0-1.2,0.1-1.7,0
		c-0.2,0-0.6-0.2-0.7-0.5c-0.3-0.7-0.3-1.4,0.2-2c0.4-0.6,1-0.7,1.7-0.7c1.9,0,3.9,0,5.8-0.1c1.1,0,2.3,0,3.4,0
		c1.2,0.1,1.5,0.4,1.2,1.6c-0.2,0.6-0.1,1.3-0.9,1.5c-0.3,0.1-0.5,0.1-0.8,0.1s-0.6-0.1-0.8-0.1c-0.8,0-1.3,0.4-1.4,1.2
		c-0.1,2-0.2,4.1-0.3,6.1c0,1.1,0.5,1.6,1.6,1.7c0.3,0,0.6,0,0.9,0.1c0.8,0,1.4,0.4,1.7,1.2C95.8,58.2,95.9,58.4,96,58.6z"/>
	<path d="M89.1,63.2c0.9,0.7,1.6,1.4,2,2.4c0.3,0.6,0.7,1.2,1.1,1.7c0.2,0.2,0.5,0.3,0.8,0.4c0.6,0.2,1.2,0.2,1.8,0.4
		c0.2,0.1,0.5,0.3,0.5,0.4c0,0.3-0.1,0.7-0.3,0.9c-0.4,0.3-0.9,0.5-1.4,0.9c-0.3,0.2-0.6,0.5-0.6,0.8c-0.1,0.8-0.1,1.6,0.4,2.4
		s0.3,1.7,0.3,2.6c0,0.1-0.1,0.2-0.2,0.3c-0.6,0.7-1.5,0.8-2.2,0.3c-0.5-0.4-1-0.9-1.5-1.3s-1-0.8-1.5-1c-0.7-0.3-1.4,0.2-2,0.6
		c-0.3,0.2-0.5,0.6-0.8,0.8c-0.3,0.2-0.7,0.2-0.9,0.1c-0.2-0.1-0.3-0.5-0.3-0.8s0.1-0.6,0.2-0.9c0.8-1.9,0.3-3.4-1.5-4.4
		c-0.3-0.1-0.5-0.3-0.7-0.5c-0.3-0.3-0.7-0.7-0.4-1.1c0.3-0.5,0.7-0.7,1.3-0.6c0.6,0.1,1.3,0.2,1.9,0.1c1-0.1,1.7-0.5,2.1-1.5
		C87.9,65.1,88.6,64.2,89.1,63.2z"/>
	<path d="M70.8,53.3c0.1-0.9-0.7-1.3-1-1.9c-0.2-0.3-0.6-0.5-0.8-0.8c-0.2-0.2-0.3-0.6-0.3-0.9c0-0.2,0.4-0.4,0.6-0.5
		c0.8-0.1,1.5-0.2,2.3-0.2c1.1-0.1,1.4-0.4,1.6-1.4c0.1-0.6,0.5-1.1,0.9-1.6c0.3-0.4,1.7,0.2,1.9,0.7c0.1,0.2,0.2,0.5,0.3,0.7
		c0.4,1.5,0.7,1.4,2.4,1.6c0.1,0,0.2,0,0.3-0.1c0.5-0.1,1-0.1,1.2,0.4s-0.2,0.8-0.5,1.2c-1.1,1.1-1.8,2-1,3.4
		c0.3,0.6,0.5,1.2,0.7,1.8c0.2,0.5,0,0.8-0.3,1.2c-0.3,0.3-0.7,0.2-1,0c-0.5-0.3-0.9-0.6-1.4-0.9c-0.6-0.3-1.2-0.8-1.8-0.7
		c-0.6,0-1.3,0.5-1.7,1c-0.7,0.9-1.6,1.3-2.6,1.3c-0.6,0-1-0.5-0.8-1.1c0.1-0.3,0.1-0.6,0.2-0.8c0.2-0.5,0.4-1.1,0.6-1.6
		C70.6,53.9,70.7,53.6,70.8,53.3z"/>
	<path d="M102,48.6c0.5-0.1,1.1-0.1,1.6-0.2c0.8-0.1,1.4-0.5,1.7-1.4c0.1-0.2,0.2-0.4,0.3-0.6c0.4-0.5,0.9-0.4,1.1,0.1
		c0.6,1.3,1.9,2,3.3,1.9c0.5,0,1,0,1.4,0.1c0.5,0.1,0.6,0.8,0.2,1.3s-0.8,0.9-1.2,1.4c-1,1.1-0.7,2.3-0.4,3.5
		c0.1,0.3,0.2,0.5,0.2,0.7c0.1,1-0.6,1.6-1.5,1.3c-0.6-0.2-1.1-0.4-1.6-0.7c-0.7-0.4-1.4-0.6-2.1,0c-0.5,0.4-1.1,0.6-1.6,0.9
		c-0.4,0.2-0.8,0.3-1.1-0.1c-0.3-0.3-0.4-0.7-0.1-1.1c0.2-0.3,0.2-0.7,0.2-1c0.1-0.5,0.2-0.9,0.3-1.4c0-0.2,0.1-0.4,0-0.6
		c-0.2-0.5-0.5-1-0.7-1.5c-0.3-0.8-0.6-1.5-0.9-2.3c0-0.1,0.1-0.3,0.2-0.3c0.2-0.1,0.5-0.1,0.8-0.1C102,48.6,102,48.6,102,48.6z"/>
	<path d="M118.8,103.5c-0.2,0.2-0.3,0.3-0.5,0.3c-0.1,0-0.2-0.1-0.4-0.2c0.2-0.2,0.3-0.3,0.5-0.5
		C118.5,103.1,118.7,103.3,118.8,103.5z"/>
	<path d="M89,97.2c0-1,0-1.9,0-2.9c0.1,0,0.1,0,0.2,0c0.1,0.4,0.4,0.8,0.3,1.1c-0.3,0.6,0.1,1.1,0,1.6
		c0,0.1-0.2,0.2-0.3,0.3C89.2,97.3,89.1,97.2,89,97.2z"/>
</g>
</svg>
