<?xml version="1.0" encoding="UTF-8" standalone="no"?>
<!DOCTYPE svg PUBLIC "-//W3C//DTD SVG 1.1//EN" "http://www.w3.org/Graphics/SVG/1.1/DTD/svg11.dtd">
<svg width="100%" height="100%" viewBox="0 0 1536 1536" version="1.1" xmlns="http://www.w3.org/2000/svg" xmlns:xlink="http://www.w3.org/1999/xlink" xml:space="preserve" xmlns:serif="http://www.serif.com/" style="fill-rule:evenodd;clip-rule:evenodd;stroke-linecap:round;stroke-linejoin:round;stroke-miterlimit:1.5;">
    <g id="Artboard1" transform="matrix(0.75,0,0,1,0,0)">
        <g>
            <rect x="0" y="0" width="2048" height="1536" style="fill:none;"/>
            <g transform="matrix(1.1839,0,0,1.1839,-520.14,-203.35)">
                <g id="Ring" transform="matrix(1.33333,0,0,1,0,0)">
                    <g transform="matrix(3.44828,0,0,3.57143,-940.138,-555.429)">
                        <path d="M558,216C654.033,216 732,291.278 732,384C732,476.722 654.033,552 558,552C461.967,552 384,476.722 384,384C384,291.278 461.967,216 558,216ZM555.68,249.6C475.652,249.6 410.68,310.575 410.68,385.68C410.68,460.785 475.652,521.76 555.68,521.76C635.708,521.76 700.68,460.785 700.68,385.68C700.68,310.575 635.708,249.6 555.68,249.6Z"/>
                    </g>
                    <g transform="matrix(0.781433,0.320652,-0.320652,0.781433,1315.03,-424.567)">
                        <g transform="matrix(0.0345536,-1.08945,0.999497,0.0317005,-1906.78,1039.28)">
                            <text x="-392.133px" y="1514.96px" style="font-family:'RubikSprayPaint-Regular', 'Rubik Spray Paint';font-size:100px;fill:white;">I</text>
                        </g>
                        <g transform="matrix(0.158465,-1.07842,0.989376,0.145381,-1799.48,833.104)">
                            <text x="-391.772px" y="1471.57px" style="font-family:'RubikSprayPaint-Regular', 'Rubik Spray Paint';font-size:100px;fill:white;">W</text>
                        </g>
                        <g transform="matrix(0.335659,-1.03703,0.951404,0.307944,-1572.62,557.274)">
                            <text x="-376.68px" y="1375.92px" style="font-family:'RubikSprayPaint-Regular', 'Rubik Spray Paint';font-size:100px;fill:white;">W</text>
                        </g>
                        <g transform="matrix(0.533876,-0.950303,0.871838,0.489795,-1269.82,318.337)">
                            <text x="-335.847px" y="1262.92px" style="font-family:'RubikSprayPaint-Regular', 'Rubik Spray Paint';font-size:100px;fill:white;">B</text>
                        </g>
                        <g transform="matrix(0.661687,-0.866181,0.794662,0.607052,-1056.89,204.322)">
                            <text x="-294.438px" y="1190.64px" style="font-family:'RubikSprayPaint-Regular', 'Rubik Spray Paint';font-size:100px;fill:white;">O</text>
                        </g>
                        <g transform="matrix(0.777601,-0.763831,0.700762,0.713395,-851.529,126.976)">
                            <text x="-242.505px" y="1124.18px" style="font-family:'RubikSprayPaint-Regular', 'Rubik Spray Paint';font-size:100px;fill:white;">S</text>
                        </g>
                        <g transform="matrix(0.872327,-0.653564,0.5996,0.8003,-673.137,81.0455)">
                            <text x="-185.532px" y="1069.14px" style="font-family:'RubikSprayPaint-Regular', 'Rubik Spray Paint';font-size:100px;fill:white;">T</text>
                        </g>
                        <g transform="matrix(0.952215,-0.530459,0.48666,0.873592,-510.782,51.4726)">
                            <text x="-123.789px" y="1023.41px" style="font-family:'RubikSprayPaint-Regular', 'Rubik Spray Paint';font-size:100px;fill:white;">O</text>
                        </g>
                        <g transform="matrix(1.01994,-0.384477,0.352731,0.935725,-350.714,30.9124)">
                            <text x="-49.877px" y="983.101px" style="font-family:'RubikSprayPaint-Regular', 'Rubik Spray Paint';font-size:100px;fill:white;">N</text>
                        </g>
                    </g>
                    <g transform="matrix(-0.844502,0.0164962,-0.0164962,-0.844502,1164.2,2096.77)">
                        <g transform="matrix(0.0345536,-1.08945,0.999497,0.0317005,-1906.78,1039.28)">
                            <text x="-392.133px" y="1514.96px" style="font-family:'RubikSprayPaint-Regular', 'Rubik Spray Paint';font-size:100px;fill:white;">I</text>
                        </g>
                        <g transform="matrix(0.158465,-1.07842,0.989376,0.145381,-1799.48,833.104)">
                            <text x="-391.772px" y="1471.57px" style="font-family:'RubikSprayPaint-Regular', 'Rubik Spray Paint';font-size:100px;fill:white;">W</text>
                        </g>
                        <g transform="matrix(0.335659,-1.03703,0.951404,0.307944,-1572.62,557.274)">
                            <text x="-376.68px" y="1375.92px" style="font-family:'RubikSprayPaint-Regular', 'Rubik Spray Paint';font-size:100px;fill:white;">W</text>
                        </g>
                        <g transform="matrix(0.533876,-0.950303,0.871838,0.489795,-1269.82,318.337)">
                            <text x="-335.847px" y="1262.92px" style="font-family:'RubikSprayPaint-Regular', 'Rubik Spray Paint';font-size:100px;fill:white;">B</text>
                        </g>
                        <g transform="matrix(0.661687,-0.866181,0.794662,0.607052,-1056.89,204.322)">
                            <text x="-294.438px" y="1190.64px" style="font-family:'RubikSprayPaint-Regular', 'Rubik Spray Paint';font-size:100px;fill:white;">O</text>
                        </g>
                        <g transform="matrix(0.777601,-0.763831,0.700762,0.713395,-851.529,126.976)">
                            <text x="-242.505px" y="1124.18px" style="font-family:'RubikSprayPaint-Regular', 'Rubik Spray Paint';font-size:100px;fill:white;">S</text>
                        </g>
                        <g transform="matrix(0.872327,-0.653564,0.5996,0.8003,-673.137,81.0455)">
                            <text x="-185.532px" y="1069.14px" style="font-family:'RubikSprayPaint-Regular', 'Rubik Spray Paint';font-size:100px;fill:white;">T</text>
                        </g>
                        <g transform="matrix(0.952215,-0.530459,0.48666,0.873592,-510.782,51.4726)">
                            <text x="-123.789px" y="1023.41px" style="font-family:'RubikSprayPaint-Regular', 'Rubik Spray Paint';font-size:100px;fill:white;">O</text>
                        </g>
                        <g transform="matrix(1.01994,-0.384477,0.352731,0.935725,-350.714,30.9124)">
                            <text x="-49.877px" y="983.101px" style="font-family:'RubikSprayPaint-Regular', 'Rubik Spray Paint';font-size:100px;fill:white;">N</text>
                        </g>
                    </g>
                </g>
                <g transform="matrix(1.33333,0,0,1,0,0)">
                    <path d="M792.294,1285.33C942.423,1185.17 1094.4,1178.43 1247.88,1247.18" style="fill:none;stroke:black;stroke-width:16.89px;"/>
                </g>
                <g transform="matrix(1.33333,0,0,1,0,0)">
                    <path d="M868.068,1296.35C639.648,1212.5 472.984,1046.3 561.523,539.749" style="fill:none;stroke:black;stroke-width:16.89px;"/>
                </g>
                <g transform="matrix(1.33333,0,0,1,0,0)">
                    <path d="M921.815,1247.02C801.013,1092.18 734.775,892.904 693.857,668.121" style="fill:none;stroke:black;stroke-width:16.89px;"/>
                </g>
                <g transform="matrix(1.33333,0,0,1,0,0)">
                    <path d="M957.951,1208.47C946.594,921.83 914.864,630.463 873.044,336.756" style="fill:none;stroke:black;stroke-width:16.89px;"/>
                </g>
                <g transform="matrix(1.33333,0,0,1,0,0)">
                    <path d="M1081.54,1200.53C1168.88,1008.56 1197.88,803.575 1105.88,571.621" style="fill:none;stroke:black;stroke-width:16.89px;"/>
                </g>
                <g transform="matrix(1.33333,0,0,1,0,0)">
                    <path d="M1351.99,1038.05C1048.12,975.383 832.12,895.4 679.729,1140.14" style="fill:none;stroke:black;stroke-width:16.89px;"/>
                </g>
                <g transform="matrix(1.33333,0,0,1,0,0)">
                    <path d="M563.227,988.212C811.909,831.104 1072.09,781.963 1319.08,926.571" style="fill:none;stroke:black;stroke-width:16.89px;"/>
                </g>
                <g transform="matrix(1.33333,0,0,1,0,0)">
                    <path d="M513.315,878.199C773.211,699.321 1044.83,682.97 1323.55,765.215" style="fill:none;stroke:black;stroke-width:16.89px;"/>
                </g>
                <g id="Snippy" transform="matrix(1.3888,0,0,1.0416,-70.9571,-18.6971)">
                    <g id="Snippy-Red" serif:id="Snippy Red">
                        <path d="M1008,600C1018.72,615.968 1021.04,655.998 1024,696C1026.92,735.502 1020.9,774.356 1024,792C1030,826.13 1072.01,821.339 1080,804C1123.71,709.112 1066.6,623.13 1038.85,600C1029.64,592.315 1001.31,590.037 1008,600Z" style="fill:rgb(210,8,0);stroke:black;stroke-width:8.11px;"/>
                        <path d="M678,744L780,762C793.79,760.176 889.118,967.086 828,1002C689.312,1081.23 711.662,1272 702,1266C619.396,1214.73 616.107,884.034 690,780C697.325,769.687 678,744 678,744Z" style="fill:rgb(210,8,0);stroke:black;stroke-width:8.11px;"/>
                        <path d="M840,624C812.815,695.384 819.402,800.593 834,828C836.821,833.296 849.244,833.329 852,828C866.809,799.364 882.96,702.988 876,618L840,624Z" style="fill:rgb(210,8,0);stroke:black;stroke-width:8.11px;"/>
                        <path d="M936,622.076C907.863,644.123 914.825,826.456 924,828C930.146,829.035 1012.72,873.065 979.042,636C976.994,621.584 945.812,614.388 936,622.076Z" style="fill:rgb(210,8,0);stroke:black;stroke-width:8.11px;"/>
                        <path d="M792,1062C793.372,1038.12 816.37,1017.12 828,1014C851.312,1007.74 862.318,1063.41 864,1092C866,1126 852,1223 840,1218C828,1213 788.886,1116.19 792,1062Z" style="fill:rgb(210,8,0);stroke:black;stroke-width:8.11px;"/>
                        <g transform="matrix(1,0,0,1,0,5.47394)">
                            <path d="M1272,846.526C1274.46,877.976 1263.54,895.849 1224,918.526C1148.53,932.614 1073.41,893.614 1061.41,918.526C1049.41,943.438 1126.9,1052 1152,1068C1174.59,1082.4 1212,1014.53 1212,1014.53C1212,1014.53 1154.58,1065.5 1157.36,1069.92C1172.88,1094.58 1290.03,1163.76 1332,1146.53C1373.98,1129.29 1419.21,1016.53 1409.21,966.526C1399.21,916.526 1272,846.526 1272,846.526Z" style="fill:rgb(210,8,0);stroke:black;stroke-width:8.11px;"/>
                        </g>
                        <path d="M1284,756C1256,765.066 1254.91,838.398 1272,870.398C1281.24,887.7 1306.65,910.634 1332,921.646C1353.54,931.001 1375.04,939.172 1386.57,948C1402.43,960.158 1415.02,1014.53 1422.52,996C1431.42,974 1463.09,856 1440,816C1416.91,776 1312,746.934 1284,756Z" style="fill:rgb(210,8,0);stroke:black;stroke-width:8.11px;"/>
                        <path d="M1212,630.779C1206.44,660.425 1218,767.13 1260,804C1302,840.87 1432.3,853.928 1464,852C1475.69,851.289 1476.56,837.588 1476,816C1472.47,680.554 1442.32,701.765 1440,655.424C1437.21,599.607 1219.6,590.219 1212,630.779Z" style="fill:rgb(210,8,0);stroke:black;stroke-width:8.11px;"/>
                        <path d="M1116,533.391C1102.22,562.452 1144.97,626.512 1188,654.286C1220.83,675.48 1314.96,669.26 1386.39,672C1434.35,673.84 1488.59,684.998 1482.58,672C1470.16,645.125 1368.96,522.838 1320,486.008C1305.72,475.266 1289.4,458.101 1272,462.143C1238,470.04 1130.97,501.809 1116,533.391Z" style="fill:rgb(210,8,0);stroke:black;stroke-width:8.11px;"/>
                        <path d="M1368,468C1367.46,470.522 1258.43,492.657 1236,504C1140.57,552.265 1041.85,582.696 1032,576L1044,348C1030.81,333.279 1377.61,423.252 1368,468Z" style="fill:rgb(210,8,0);stroke:black;stroke-width:8.11px;"/>
                        <path d="M468,720C480.156,711.818 513.327,708.835 516,694.19C553.26,490.008 831.698,270.725 1140,330C1020.87,386.129 1071.66,545.958 1050,588C1023.88,638.704 832.619,634.319 792,648C757.673,659.562 804,756 804,756C742.404,780.613 661.295,783.912 684,696C679.696,723.408 676.51,761.93 684,780C673.399,757.707 647.451,739.203 617.76,737.815C615.208,745.928 571.205,743.936 573.393,744C599.766,744.768 612.649,743.124 618.349,732C622.745,723.421 609.31,742.713 612,699C612.897,684.418 603.375,675.575 600,672C591.739,663.249 559.893,680.45 552,708C547.276,771.348 502.172,886.433 480,924C502.987,867.677 485.597,843.101 480,828C475.604,816.139 490.667,804 492,792C492.651,786.139 475.985,784.27 480,780C506.993,751.287 496.302,723.315 468,720Z" style="fill:rgb(210,8,0);stroke:black;stroke-width:8.11px;"/>
                        <path d="M589.499,684C605.768,679.876 553.329,730.412 564,708C570.33,694.704 579.766,686.467 589.499,684Z" style="fill:rgb(210,8,0);stroke:black;stroke-width:8.11px;"/>
                        <path d="M624.3,743.949C574.424,875.572 474.265,827.009 566.523,1122.91" style="fill:rgb(210,8,0);stroke:black;stroke-width:8.11px;"/>
                        <path d="M625.466,748.363C547.785,909.435 578.773,986.072 637.591,1001.78C783.418,1040.74 802.146,810.698 965.104,882.824" style="fill:rgb(210,8,0);stroke:black;stroke-width:8.11px;"/>
                    </g>
                    <g id="Snippy-Highlight" serif:id="Snippy Highlight">
                        <g transform="matrix(1,0,0,1,0,0.832794)">
                            <path d="M691.972,682.707C692.226,680.483 694.237,678.885 696.461,679.139C698.684,679.393 700.283,681.404 700.028,683.628C698.245,699.228 697.812,711.593 698.919,721.35C699.945,730.383 702.254,737.042 706.211,741.82C710.883,747.46 717.799,750.333 727.02,751.747C742.363,754.1 763.652,752.352 791.703,750.291C793.935,750.127 795.88,751.805 796.044,754.037C796.208,756.269 794.529,758.214 792.297,758.378C763.456,760.497 741.565,762.182 725.791,759.763C714.268,757.995 705.803,754.04 699.966,746.992C690.765,735.883 688.132,716.29 691.972,682.707Z" style="fill:white;fill-opacity:0.73;"/>
                        </g>
                        <path d="M848.003,647.32C848.378,645.114 850.474,643.628 852.68,644.003C854.886,644.378 856.372,646.474 855.997,648.68C845.115,712.683 845.735,771.858 844.053,828.121C843.986,830.358 842.116,832.12 839.879,832.053C837.642,831.986 835.88,830.116 835.947,827.879C837.639,771.264 837.052,711.723 848.003,647.32Z" style="fill:white;fill-opacity:0.73;"/>
                        <path d="M955.983,654.13C956.288,651.913 958.335,650.361 960.552,650.665C962.769,650.97 964.322,653.017 964.017,655.234C956.34,711.095 953.17,754.173 955.551,781.747C956.458,792.251 958.138,800.407 960.784,806.019C962.221,809.066 963.878,811.285 965.98,812.462C967.933,813.554 968.631,816.027 967.538,817.98C966.446,819.933 963.973,820.631 962.02,819.538C956.177,816.269 951.635,808.262 949.194,795.424C944.159,768.943 946.879,720.375 955.983,654.13Z" style="fill:white;fill-opacity:0.73;"/>
                        <path d="M1032.79,625.947C1031.71,623.985 1032.44,621.518 1034.4,620.444C1036.36,619.369 1038.83,620.09 1039.9,622.053C1053.57,647.012 1053.6,675.224 1051.83,704.681C1050.14,732.957 1046.81,762.406 1053.74,791.048C1054.26,793.223 1052.92,795.416 1050.75,795.941C1048.57,796.467 1046.38,795.128 1045.85,792.952C1038.74,763.517 1041.99,733.256 1043.74,704.196C1045.41,676.318 1045.72,649.569 1032.79,625.947Z" style="fill:white;fill-opacity:0.73;"/>
                        <path d="M932.123,615.142C930.389,616.556 927.833,616.297 926.418,614.563C925.004,612.829 925.263,610.273 926.997,608.858C934.713,602.564 945.942,598.052 958.513,594.361C976.435,589.101 997.151,585.432 1013.46,579.73C1029.46,574.137 1041.39,567.016 1039.07,552.647C1021.22,442.209 1027.77,382.511 1077.55,344.769C1079.33,343.417 1081.88,343.767 1083.23,345.55C1084.58,347.334 1084.23,349.879 1082.45,351.231C1034.6,387.511 1029.92,445.191 1047.07,551.353C1050.03,569.662 1036.52,580.258 1016.13,587.385C999.709,593.128 978.848,596.843 960.797,602.142C949.388,605.491 939.126,609.43 932.123,615.142Z" style="fill:white;fill-opacity:0.73;"/>
                        <path d="M1319.36,455.791C1290.72,436.756 1191.85,389.836 1120.84,375.98C1118.64,375.551 1117.21,373.42 1117.63,371.223C1118.06,369.027 1120.19,367.592 1122.39,368.02C1199.41,383.049 1308.56,436.454 1329.13,452.828C1330.07,453.58 1330.54,454.511 1330.69,455.524C1330.82,456.4 1330.75,457.538 1329.88,458.743C1329.44,459.342 1328.2,460.445 1326.01,461.619C1308.36,471.075 1206.85,507.813 1206.85,507.813C1204.75,508.574 1202.42,507.483 1201.66,505.379C1200.9,503.274 1201.99,500.948 1204.09,500.187C1204.09,500.187 1283.77,471.378 1313.79,458.379C1315.75,457.53 1317.71,456.601 1319.36,455.791Z" style="fill:white;fill-opacity:0.73;"/>
                        <path d="M496.31,712.394C510.617,727.098 514.127,739.02 513.02,748.398C511.85,758.318 505.398,765.762 499.481,771.199C497.317,773.188 495.242,774.839 493.734,776.239C506.148,779.186 511.732,784.081 513.854,789.377C516.051,794.861 514.626,801.344 511.83,808.123C509.551,813.648 506.425,819.438 504.952,825.016C503.795,829.396 503.696,833.638 507,837.273C508.506,838.928 508.383,841.495 506.727,843C505.072,844.506 502.505,844.383 501,842.727C496.632,837.923 495.568,832.536 496.323,826.859C496.97,821.997 499.063,816.885 501.324,811.847C503.125,807.832 505.026,803.864 506.094,800.111C506.921,797.204 507.306,794.469 506.178,792.05C504.494,788.44 499.909,785.932 491.111,783.956C486.437,782.906 484.701,780.734 484.182,779.066C483.786,777.793 483.828,776.384 484.529,774.862C485.193,773.418 486.834,771.578 489.165,769.501C492.013,766.964 496.034,763.741 499.388,759.599C502.38,755.904 504.863,751.434 505.085,745.954C505.401,738.149 501.232,728.658 489.146,716.685C486.621,714.183 486.455,711.814 487.082,709.91C487.714,707.989 490.009,705.834 494.013,704.467C499.593,702.561 509.29,701.204 516.747,698.802C518.875,698.116 520.798,697.354 522.298,696.418C523.168,695.875 523.917,695.363 524.189,694.616C651.43,344.297 987.354,322.542 1109.64,331.957C1111.87,332.129 1113.54,334.08 1113.37,336.311C1113.2,338.542 1111.25,340.214 1109.02,340.043C988.473,330.761 657.24,352.055 531.811,697.384C530.81,700.14 528.317,702.555 524.638,704.382C518.399,707.48 508.292,709.167 500.861,710.96C499.351,711.324 497.601,711.922 496.31,712.394Z" style="fill:white;fill-opacity:0.73;"/>
                        <path d="M692.127,790.799C692.79,788.662 695.064,787.464 697.201,788.127C699.338,788.79 700.536,791.064 699.873,793.201C647.027,963.588 649.508,1071.82 673.981,1155.48C647.642,1030.17 658.943,915.517 716.472,814.001C717.576,812.054 720.052,811.369 721.999,812.472C723.946,813.576 724.631,816.052 723.528,817.999C656.551,936.185 653.539,1072.48 699.875,1222.81C700.501,1224.84 699.45,1227.01 697.467,1227.78C695.484,1228.55 693.243,1227.66 692.334,1225.73C647.541,1130.96 623.202,1013.03 692.127,790.799Z" style="fill:white;fill-opacity:0.73;"/>
                        <path d="M784.003,818.536C782.603,816.79 782.885,814.236 784.631,812.836C786.377,811.437 788.931,811.718 790.33,813.464C831.923,865.352 851.023,922.311 848.332,984.176C848.235,986.412 846.341,988.148 844.105,988.051C841.869,987.954 840.133,986.059 840.231,983.824C842.836,923.917 824.28,868.781 784.003,818.536Z" style="fill:white;fill-opacity:0.73;"/>
                        <path d="M620.223,742.527C621.036,740.442 623.388,739.409 625.473,740.223C627.558,741.036 628.591,743.388 627.777,745.473C595.479,828.286 587.982,872.504 597.198,911.057C607.598,954.562 626.899,979.995 649.376,990.416C671.38,1000.62 696.177,996.137 717.633,980.708C765.919,945.984 824.043,884.56 871.598,863.756C888.47,856.375 904.126,854.035 917.716,858.944C931.299,863.851 943.077,876.028 951.782,898.538C952.589,900.625 951.55,902.975 949.462,903.782C947.375,904.589 945.025,903.55 944.218,901.462C937.364,883.739 928.682,873.052 918.315,867.991C908.831,863.362 898.059,863.555 886.415,866.937C867.755,872.357 847.03,885.856 825.619,902.413C790.866,929.286 754.451,964.22 722.367,987.292C698.368,1004.55 670.577,1009.19 645.965,997.773C621.824,986.58 600.481,959.67 589.311,912.943C579.831,873.287 587.001,827.706 620.223,742.527Z" style="fill:white;fill-opacity:0.73;"/>
                        <path d="M619.966,744.412C619.739,742.186 621.362,740.194 623.588,739.966C625.814,739.739 627.806,741.362 628.034,743.588C629.405,757.026 625.056,768.587 617.334,779.511C610.056,789.808 599.715,799.554 588.659,809.925C557.025,839.599 519.188,874.738 537.398,947.009C558.079,1029.09 581.189,1100.54 577.677,1149.22C576.45,1166.23 572.016,1180.55 563.419,1191.79C554.769,1203.1 541.892,1211.37 523.536,1215.93C521.365,1216.48 519.163,1215.15 518.623,1212.98C518.082,1210.81 519.407,1208.61 521.578,1208.07C537.824,1204.02 549.322,1196.88 556.977,1186.87C564.686,1176.79 568.489,1163.88 569.589,1148.64C573.057,1100.56 549.959,1030.06 529.534,948.991C510.304,872.666 549.703,835.349 583.111,804.011C593.735,794.045 603.719,784.725 610.712,774.831C617.262,765.564 621.13,755.81 619.966,744.412Z" style="fill:white;fill-opacity:0.73;"/>
                        <g transform="matrix(0.96006,0,0,0.96006,53.9725,29.471)">
                            <path d="M618.339,1212.41C510.102,1097.72 455.705,921.091 593.742,744.255" style="fill:none;stroke:white;stroke-opacity:0.73;stroke-width:8.45px;"/>
                        </g>
                        <path d="M579.61,699.525C577.664,700.631 575.187,699.95 574.081,698.004C572.974,696.059 573.656,693.582 575.601,692.475L585.996,686.564C587.941,685.458 590.418,686.139 591.525,688.084C592.631,690.029 591.95,692.507 590.004,693.613L579.61,699.525Z" style="fill:white;fill-opacity:0.73;"/>
                        <path d="M1315.94,501.168C1314.2,499.763 1313.92,497.209 1315.33,495.467C1316.73,493.724 1319.29,493.451 1321.03,494.855C1377.25,540.185 1418.16,589.464 1441.55,643.21C1442.44,645.262 1441.5,647.652 1439.45,648.545C1437.39,649.438 1435,648.497 1434.11,646.445C1411.2,593.787 1371.02,545.581 1315.94,501.168Z" style="fill:white;fill-opacity:0.73;"/>
                        <path d="M1176.1,623.697C1174.33,622.329 1174.01,619.781 1175.37,618.01C1176.74,616.239 1179.29,615.911 1181.06,617.279C1216.77,644.861 1254.05,653.492 1292.66,646.145C1294.86,645.727 1296.98,647.172 1297.4,649.37C1297.82,651.569 1296.38,653.693 1294.18,654.111C1253.34,661.883 1213.88,652.871 1176.1,623.697Z" style="fill:white;fill-opacity:0.73;"/>
                        <path d="M1235.11,748.411C1233.93,746.508 1234.52,744.007 1236.42,742.829C1238.33,741.651 1240.83,742.24 1242.01,744.143C1268.64,787.177 1301.23,815.206 1344.22,817.512C1346.45,817.632 1348.17,819.544 1348.05,821.778C1347.93,824.013 1346.02,825.73 1343.78,825.61C1298.24,823.167 1263.33,794.005 1235.11,748.411Z" style="fill:white;fill-opacity:0.73;"/>
                        <path d="M1436.68,692.611C1436.09,690.452 1437.37,688.223 1439.53,687.637C1441.69,687.051 1443.92,688.329 1444.5,690.489C1460.08,747.923 1465.69,790.68 1465.53,824.883C1465.52,827.121 1463.7,828.93 1461.46,828.92C1459.22,828.909 1457.41,827.084 1457.42,824.847C1457.58,791.191 1452.01,749.126 1436.68,692.611Z" style="fill:white;fill-opacity:0.73;"/>
                        <path d="M1262.51,842.206C1261.82,840.078 1262.99,837.788 1265.11,837.095C1267.24,836.403 1269.53,837.568 1270.22,839.696C1282.15,876.346 1302.61,900.333 1335.59,906.037C1337.79,906.418 1339.27,908.518 1338.89,910.723C1338.51,912.928 1336.41,914.409 1334.2,914.027C1298.28,907.813 1275.51,882.141 1262.51,842.206Z" style="fill:white;fill-opacity:0.73;"/>
                        <path d="M1438.56,865.889C1438.72,863.657 1440.66,861.975 1442.89,862.136C1445.12,862.297 1446.8,864.24 1446.64,866.472C1443.74,906.732 1439.47,941.251 1433.77,969.736C1433.33,971.93 1431.2,973.355 1429,972.917C1426.81,972.478 1425.38,970.34 1425.82,968.146C1431.46,939.939 1435.68,905.755 1438.56,865.889Z" style="fill:white;fill-opacity:0.73;"/>
                        <path d="M1379,967.507C1379.43,965.31 1381.56,963.873 1383.76,964.299C1385.95,964.725 1387.39,966.854 1386.96,969.051C1379.16,1009.31 1369.02,1044.99 1354.3,1071.37C1342.9,1091.8 1328.71,1106.74 1310.89,1114.29C1293.03,1121.86 1271.44,1122.11 1245.1,1112.64C1242.99,1111.88 1241.89,1109.56 1242.65,1107.45C1243.41,1105.35 1245.73,1104.25 1247.84,1105.01C1271.82,1113.63 1291.47,1113.72 1307.72,1106.83C1324.01,1099.92 1336.8,1086.09 1347.22,1067.42C1361.59,1041.66 1371.38,1006.81 1379,967.507Z" style="fill:white;fill-opacity:0.73;"/>
                        <path d="M1179.96,1029.53C1182.03,1030.37 1183.04,1032.73 1182.21,1034.81C1181.38,1036.88 1179.02,1037.89 1176.94,1037.06C1139.26,1021.95 1099.42,983.817 1081.86,955.692C1077.14,948.127 1074.01,941.231 1072.8,935.642C1071.83,931.141 1072.09,927.337 1073.39,924.423C1074.82,921.224 1077.63,918.847 1081.86,917.401C1086.7,915.749 1093.72,915.304 1102.34,915.655C1133.13,916.911 1185.96,928.065 1227.85,916.389C1230.01,915.788 1232.25,917.05 1232.85,919.206C1233.45,921.362 1232.18,923.6 1230.03,924.2C1187.3,936.11 1133.41,925.039 1102.01,923.758C1095.77,923.503 1090.48,923.633 1086.46,924.527C1083.7,925.141 1081.6,925.913 1080.79,927.731C1080.07,929.339 1080.19,931.446 1080.73,933.929C1081.78,938.811 1084.62,944.79 1088.74,951.398C1105.59,978.392 1143.79,1015.03 1179.96,1029.53Z" style="fill:white;fill-opacity:0.73;"/>
                        <g transform="matrix(0.96006,0,0,0.96006,53.9725,29.471)">
                            <path d="M783.997,1068.48C782.635,1126.27 795.126,1176.09 819.584,1219.01" style="fill:none;stroke:rgb(255,199,198);stroke-width:8.45px;"/>
                        </g>
                    </g>
                </g>
            </g>
            <g id="Globe">
            </g>
        </g>
    </g>
</svg>
